{"glyphs":{"0":{"ha":596,"x_min":54,"x_max":542,"o":"m 59 357 q 76 374 66 371 q 99 374 86 377 q 122 365 111 371 q 141 355 133 359 q 150 350 149 350 l 153 347 l 162 295 l 182 235 l 182 232 l 177 183 l 189 129 l 189 126 q 191 120 189 123 q 194 115 192 117 q 209 108 199 109 q 229 107 219 107 q 252 109 240 107 l 256 109 l 314 97 l 408 104 q 439 116 427 106 q 458 135 452 125 q 466 152 465 144 q 468 161 468 160 l 468 158 q 459 196 463 180 q 453 223 456 211 q 449 235 450 235 l 437 311 l 437 313 l 456 372 l 454 482 l 452 555 l 456 642 l 456 683 l 456 688 l 461 685 l 475 678 l 473 673 l 473 693 l 473 695 l 475 695 l 515 695 l 518 695 l 520 693 l 530 649 l 530 578 l 540 450 l 532 332 l 527 278 l 527 281 l 542 132 l 542 129 l 534 56 l 532 53 l 446 7 l 444 7 l 349 7 l 270 -3 l 177 9 l 174 9 l 130 45 l 128 45 l 111 82 l 118 85 q 117 81 118 82 q 115 80 116 80 q 111 82 114 80 q 98 99 107 85 q 92 110 96 102 q 86 124 88 119 q 84 138 84 130 q 84 155 83 146 q 85 169 85 163 q 86 176 86 174 l 86 173 l 73 224 l 73 227 l 59 357 m 147 344 q 122 359 134 352 q 99 368 111 364 q 79 369 87 372 q 71 364 73 368 q 66 357 68 360 l 81 227 l 91 176 l 91 173 q 91 164 91 170 q 90 151 90 157 q 90 137 90 144 q 91 126 90 130 q 96 116 93 122 q 104 103 100 109 q 111 93 108 97 q 115 87 114 88 l 113 87 q 111 86 111 87 q 111 85 110 85 l 118 87 l 135 50 l 179 14 l 177 16 l 270 4 l 349 14 l 444 14 l 527 60 l 527 58 l 534 132 l 534 129 l 520 278 l 520 281 l 525 332 l 534 450 l 522 578 l 522 649 l 513 690 l 515 688 l 475 688 l 479 693 l 479 673 l 479 669 l 473 671 l 459 681 l 464 683 l 464 642 l 459 555 l 461 482 l 464 372 l 444 311 l 444 313 l 456 237 l 475 161 l 475 158 q 465 131 473 142 q 444 111 457 120 q 408 99 430 101 l 314 90 l 252 102 l 256 102 q 247 101 254 102 q 229 100 239 100 q 208 102 218 100 q 189 109 197 104 q 183 118 185 113 q 182 126 182 123 l 172 183 l 174 232 q 165 262 170 249 q 160 284 163 275 q 157 295 157 294 l 145 344 l 147 344 m 459 642 l 486 563 l 475 639 l 508 649 l 525 649 l 515 693 l 475 693 l 475 673 l 459 683 l 459 642 m 147 347 q 109 368 126 361 q 80 374 94 375 q 64 357 67 374 q 69 349 66 352 q 75 342 72 345 q 83 340 79 340 l 103 332 l 113 256 l 115 340 l 147 347 m 434 95 l 452 75 l 456 104 l 473 119 q 482 122 479 120 q 489 124 486 123 q 493 126 492 125 q 493 131 494 128 q 490 137 491 134 q 486 144 488 140 l 473 161 q 455 126 468 138 q 428 109 441 114 q 393 102 412 102 l 434 95 m 483 364 l 473 330 l 486 227 l 464 330 l 475 372 q 472 419 473 398 q 469 453 471 437 q 468 472 468 469 l 483 364 m 184 136 q 178 125 180 131 q 173 117 175 121 q 172 109 172 113 q 173 107 171 107 q 177 106 174 106 q 184 106 179 106 q 199 99 193 102 q 211 94 205 96 q 219 92 216 92 q 220 99 220 92 q 219 106 220 102 q 198 111 205 107 q 188 119 191 115 q 184 127 184 123 q 184 136 184 132 m 525 477 l 490 487 l 522 467 l 525 442 l 532 372 l 538 450 l 534 491 l 525 477 m 522 195 l 527 151 l 540 129 l 525 256 l 522 195 m 515 60 l 515 80 l 503 56 l 466 31 l 437 21 l 444 9 q 486 31 467 21 q 516 47 503 40 q 530 56 529 54 q 532 61 531 57 q 533 68 533 64 q 532 77 533 73 l 515 60 m 238 66 l 268 73 l 250 58 l 209 58 l 227 43 l 248 41 l 290 38 l 304 50 l 405 56 l 314 45 l 290 28 l 236 33 l 204 45 q 191 58 197 52 l 174 75 l 238 66 m 113 214 l 125 203 l 140 191 l 140 144 l 132 185 l 118 197 l 113 185 l 113 146 l 121 129 l 132 112 l 147 63 l 132 99 l 109 124 q 102 139 103 129 q 104 159 102 149 q 111 185 106 172 l 89 229 l 113 214 m 493 357 l 511 273 l 483 344 l 493 357 m 59 438 l 59 440 q 57 456 58 449 q 55 470 56 463 q 54 482 54 477 l 54 578 l 69 675 q 74 688 69 681 q 86 701 79 694 q 99 713 93 708 q 109 720 106 718 l 111 720 l 199 732 l 201 732 l 294 720 l 297 720 q 310 712 302 717 q 327 704 318 708 q 343 698 335 701 q 358 698 352 696 q 377 698 366 698 q 397 693 389 699 q 409 680 405 687 q 415 663 413 672 q 415 643 416 651 q 412 631 414 635 q 409 625 411 627 q 408 622 408 623 l 331 622 l 328 622 q 310 626 328 623 q 271 634 293 629 q 227 643 248 638 q 199 652 206 648 q 188 650 195 653 q 173 642 180 647 q 157 629 165 636 q 142 616 149 622 l 145 616 l 125 543 l 132 453 l 132 455 l 147 406 l 150 401 l 145 401 l 113 403 l 111 403 l 111 406 l 111 431 l 115 428 l 98 413 l 94 410 l 94 413 l 62 438 l 59 438 m 59 482 q 62 457 59 473 q 66 440 64 449 l 66 442 l 98 418 l 94 418 l 113 433 l 118 438 l 118 431 l 118 406 l 115 410 l 145 408 l 140 403 l 125 453 l 118 543 l 121 543 l 138 620 l 138 622 q 147 629 140 623 q 164 643 155 636 q 184 655 174 650 q 201 656 194 660 q 217 651 206 654 q 243 646 229 649 q 272 640 257 644 q 300 635 288 637 q 322 631 313 633 q 331 629 330 629 l 408 629 l 405 629 l 405 627 q 407 634 406 629 q 408 645 408 638 q 408 663 408 652 q 403 676 406 671 q 395 685 400 682 q 376 693 386 693 q 360 690 366 692 q 341 692 352 688 q 319 701 330 695 q 301 710 309 706 q 293 715 293 715 l 294 715 l 199 724 l 201 724 l 111 715 l 113 715 q 101 706 107 711 q 89 695 95 701 q 80 684 83 690 q 76 675 76 679 l 62 578 q 60 533 61 553 q 59 501 60 516 q 59 482 59 486 m 109 457 l 109 494 q 102 473 106 482 q 96 459 99 465 q 89 453 92 453 q 81 451 85 453 q 73 446 77 449 q 64 440 68 444 l 94 416 l 113 431 l 113 406 l 145 403 l 109 457 m 408 624 q 408 665 412 648 q 404 679 408 672 q 394 689 400 685 q 380 694 389 693 q 358 693 371 696 q 370 689 366 691 q 375 686 374 688 q 371 685 376 685 q 366 682 366 685 q 366 674 365 678 q 371 663 368 669 l 338 673 l 375 649 l 400 649 l 408 624 m 118 622 l 142 634 q 146 644 144 639 q 149 650 147 647 q 153 656 151 654 q 157 660 155 657 q 163 666 159 663 q 170 673 165 669 q 182 671 176 671 q 201 671 195 669 q 205 669 203 671 q 208 664 208 667 q 205 660 208 661 q 199 659 203 658 q 183 653 193 659 q 163 639 173 646 q 140 620 153 630 l 132 602 l 118 622 m 101 701 l 118 708 l 132 722 l 111 718 l 73 681 l 101 701 m 64 585 l 72 553 l 57 536 l 57 583 l 64 646 l 64 585 m 220 710 l 282 701 l 312 685 l 282 693 l 220 710 m 270 690 l 299 683 l 285 681 l 270 690 m 125 614 l 111 627 l 130 669 l 162 688 l 135 659 l 135 622 l 125 614 z "},"1":{"ha":402,"x_min":54,"x_max":348,"o":"m 348 31 q 340 14 347 20 q 327 4 334 7 q 301 1 315 -1 q 275 9 287 4 q 246 25 260 16 l 243 27 l 243 31 l 248 58 q 245 71 247 60 q 243 87 243 81 l 243 142 q 243 150 243 143 q 243 166 243 157 q 245 186 244 176 q 248 205 246 197 q 252 230 252 216 q 248 255 251 243 q 247 267 248 260 q 246 276 246 273 l 246 366 q 245 377 246 371 q 243 388 245 382 q 241 400 242 394 l 241 402 q 243 428 241 413 q 245 458 244 444 q 247 483 246 472 q 248 494 248 493 q 245 529 248 519 q 238 541 241 538 q 237 543 238 543 l 235 543 q 225 543 234 543 q 207 542 217 543 q 185 542 196 542 q 170 541 174 541 q 159 540 165 541 q 144 537 152 538 q 127 533 136 535 l 127 530 q 114 533 123 531 q 93 537 104 535 q 74 541 83 539 q 62 543 64 543 q 54 554 54 549 q 60 565 54 559 q 72 576 65 571 q 86 585 79 581 q 96 591 94 589 l 125 589 l 173 604 l 225 630 l 243 660 l 254 698 l 252 717 l 252 719 l 256 719 q 319 719 298 736 q 330 709 326 715 q 335 698 333 703 q 337 688 336 692 q 337 683 337 684 l 340 641 q 341 633 340 639 q 344 620 342 627 q 347 606 346 612 q 348 596 348 599 q 347 587 348 594 q 343 570 345 579 q 340 553 342 561 q 337 543 338 545 l 337 473 q 339 464 337 471 q 340 447 340 456 q 344 417 342 429 q 346 402 346 406 q 343 386 345 400 q 342 354 342 372 q 341 321 341 337 q 340 300 340 305 q 340 287 340 296 q 339 268 339 278 q 338 251 338 258 q 337 241 337 243 l 335 193 q 336 183 335 191 q 337 165 336 175 q 339 148 338 156 q 340 140 340 140 l 348 33 l 348 31 m 340 33 q 339 55 340 37 q 336 91 338 72 q 332 140 334 113 l 327 193 l 330 241 q 332 268 331 256 q 334 288 334 278 q 335 300 335 297 q 335 319 335 303 q 335 353 335 334 q 336 387 336 371 q 337 406 336 402 l 332 397 l 321 283 l 321 397 l 327 412 l 327 439 q 324 455 326 448 q 322 467 323 461 q 321 475 321 473 l 321 526 q 323 555 322 543 q 324 574 323 566 q 325 581 325 583 q 325 574 325 579 q 327 561 326 568 q 329 545 328 553 q 332 530 330 536 l 332 543 l 332 547 q 335 558 333 551 q 337 573 336 566 q 339 588 338 581 q 340 596 340 594 q 339 604 340 599 q 337 616 338 610 q 336 628 336 623 q 335 638 335 634 l 332 683 q 332 684 332 683 q 331 687 331 686 q 330 690 331 688 q 323 687 328 688 q 314 690 319 686 l 300 690 l 300 672 l 300 607 l 285 690 q 276 694 280 692 q 269 700 273 696 q 262 707 264 703 l 262 698 l 262 696 l 252 656 l 248 656 l 246 651 l 246 623 l 233 614 l 212 614 l 175 596 l 125 581 l 100 583 q 95 582 97 583 q 92 581 94 581 l 84 570 l 120 557 l 81 557 l 75 549 q 101 544 85 547 q 127 538 116 541 q 135 541 130 539 q 147 543 140 542 q 159 546 153 545 q 170 547 165 547 q 180 547 173 547 q 196 548 187 547 q 213 548 204 548 q 227 549 221 549 l 254 568 l 259 541 l 259 538 l 264 538 l 267 570 l 273 536 l 259 538 l 264 509 l 254 515 q 255 505 254 511 q 256 494 256 500 q 255 479 256 492 q 252 449 254 465 q 250 419 251 433 q 248 402 248 405 q 250 391 248 401 q 254 370 252 380 l 259 447 l 259 323 l 280 315 l 288 145 l 275 308 l 256 313 l 259 239 l 259 219 l 259 163 l 256 208 l 256 205 q 251 171 253 190 q 248 142 248 152 l 248 137 l 254 93 l 264 93 l 269 147 l 273 93 l 262 82 l 254 64 q 256 58 254 58 l 252 31 l 252 30 q 254 27 254 28 l 267 27 l 273 61 l 278 45 l 278 25 q 284 28 281 26 q 289 32 287 30 q 293 35 292 33 q 296 46 293 39 q 300 53 298 50 l 300 119 l 300 166 l 314 125 l 314 79 l 319 42 l 332 35 l 340 33 z "},"2":{"ha":619,"x_min":54,"x_max":564,"o":"m 294 39 l 432 50 l 283 34 l 267 42 l 243 50 l 278 50 l 294 39 m 561 58 q 564 44 564 52 q 564 31 564 37 q 561 16 562 23 l 558 13 l 555 13 l 532 16 l 473 5 l 471 5 q 453 5 463 5 q 434 6 443 5 q 417 7 425 7 q 408 7 410 7 q 399 7 407 7 q 383 6 392 7 l 360 5 l 302 2 l 299 2 l 262 7 q 252 7 261 7 q 233 6 243 7 l 206 5 q 179 3 191 5 q 165 -1 167 1 l 162 -1 l 66 18 l 64 20 q 56 38 58 29 q 55 55 54 47 q 56 70 55 63 q 59 81 58 77 q 60 86 59 82 q 62 90 61 87 q 65 101 62 94 q 73 115 68 108 q 80 128 77 122 q 85 136 84 134 l 120 187 l 133 219 l 136 219 l 185 256 l 212 275 l 233 290 l 252 309 l 252 311 l 254 311 l 278 319 l 355 370 l 357 372 l 389 383 l 429 398 l 460 433 l 463 433 l 534 481 l 537 481 q 555 470 549 481 q 562 455 561 464 q 562 437 562 446 q 558 417 560 427 l 558 414 l 555 414 l 526 404 l 519 370 l 519 368 l 479 333 l 476 333 l 460 328 q 452 321 458 326 q 439 311 446 316 q 421 296 431 304 l 382 269 l 345 261 l 321 240 l 286 219 l 243 184 l 193 130 q 192 129 193 129 q 191 127 191 127 l 180 116 q 170 96 171 100 q 170 92 170 94 q 180 92 174 88 l 231 84 l 281 71 q 299 72 284 71 q 330 74 313 73 q 374 77 350 75 l 427 79 l 473 66 l 545 68 l 548 68 q 555 65 552 68 q 561 58 559 62 m 553 20 l 540 31 l 481 39 l 543 37 l 545 63 l 473 58 l 427 71 l 374 71 l 281 63 l 231 77 l 196 81 l 180 71 l 157 71 l 157 60 q 142 63 146 60 q 135 71 137 66 q 133 81 132 75 l 138 109 l 178 124 l 238 190 l 273 216 l 254 229 l 233 220 q 217 214 224 216 q 209 211 210 211 q 213 214 208 211 q 225 221 218 217 q 243 232 233 226 l 286 237 l 310 245 l 328 269 l 339 282 l 387 311 l 347 280 l 342 269 l 379 277 q 387 282 380 279 q 399 290 393 286 q 416 301 407 295 l 458 333 l 458 336 l 476 338 l 511 372 l 519 406 l 522 409 l 524 409 l 524 420 l 537 435 l 481 404 l 450 365 l 471 409 l 522 446 q 522 452 521 450 q 522 458 522 455 q 524 465 523 461 l 465 427 l 435 393 q 414 384 423 387 q 400 378 407 380 q 392 375 393 375 l 360 365 l 283 314 l 281 314 l 257 307 l 238 285 l 238 282 q 226 274 233 278 q 214 267 220 271 q 201 258 207 262 l 193 243 l 170 232 l 154 224 l 141 214 l 125 184 l 93 131 q 82 117 87 125 q 72 103 76 109 l 72 90 l 72 71 q 67 66 70 67 q 64 58 64 66 q 63 54 64 56 q 62 50 62 52 l 62 42 l 64 42 q 71 38 66 40 q 81 35 76 36 q 96 31 88 33 l 75 28 l 80 23 l 149 10 l 170 16 l 188 18 l 193 13 l 203 13 l 262 13 l 299 10 q 311 11 301 10 q 332 12 320 11 l 360 13 l 408 13 q 420 13 410 13 q 440 12 429 12 q 460 11 452 11 q 471 10 469 10 l 529 20 l 532 20 l 553 20 m 339 309 l 289 304 l 342 317 l 360 319 l 392 340 l 411 343 l 321 290 l 339 309 m 561 566 l 561 563 l 551 528 l 548 528 q 543 523 548 527 q 529 515 537 519 q 511 508 521 511 q 492 507 501 505 q 482 511 486 507 q 473 520 477 514 l 473 523 l 471 566 l 458 600 q 451 604 456 601 q 443 609 447 606 q 435 615 439 612 q 432 618 432 617 l 400 640 q 390 640 398 640 q 374 641 382 640 q 353 642 364 642 l 313 645 l 260 642 l 241 618 l 241 616 l 201 592 l 173 528 q 166 522 172 527 q 153 512 161 517 q 136 503 145 507 q 117 502 126 500 q 101 520 105 506 l 98 520 l 115 592 l 125 640 l 125 642 l 127 642 l 165 660 l 191 697 l 193 700 l 238 715 l 238 718 l 304 724 l 374 721 l 400 726 l 403 726 l 471 700 l 511 652 l 561 568 l 561 566 m 553 566 l 503 648 l 497 657 l 503 648 l 460 692 l 439 705 l 400 721 l 374 713 l 304 718 l 241 711 l 246 703 l 286 697 l 331 689 l 235 697 l 220 689 l 201 684 l 176 663 l 170 654 l 168 652 l 133 634 q 130 625 132 632 q 125 610 127 618 q 120 589 123 600 l 106 523 l 117 531 l 130 536 l 138 573 l 157 600 q 154 583 155 591 q 152 570 153 576 q 149 560 151 564 q 146 543 146 555 q 146 531 146 537 l 165 531 l 168 531 l 196 595 l 196 597 l 209 605 l 228 627 l 238 642 l 243 652 l 260 663 l 254 652 l 257 648 l 307 652 l 313 660 l 374 652 l 406 652 l 421 663 l 473 627 l 416 650 l 406 645 q 413 640 408 643 q 423 632 418 636 q 432 626 429 629 q 435 624 435 624 l 463 605 l 463 602 l 479 568 l 481 523 l 494 531 l 503 531 l 508 571 l 503 602 l 519 568 q 517 553 517 560 q 517 541 517 547 q 519 534 517 536 q 526 531 519 532 q 540 531 534 531 l 543 531 l 553 566 z "},"3":{"ha":632,"x_min":54,"x_max":578,"o":"m 494 423 q 498 412 498 418 q 498 400 498 406 q 497 388 498 393 l 497 386 l 494 386 q 467 377 473 378 q 460 378 462 376 q 447 379 456 378 q 431 380 438 380 l 337 391 l 289 396 q 274 397 282 397 q 257 398 265 398 q 244 399 250 399 q 237 399 238 399 l 224 399 q 203 394 210 395 q 195 393 197 393 q 187 399 191 395 q 180 408 183 403 q 177 419 178 413 q 178 430 177 425 q 182 441 180 435 l 182 444 l 184 444 l 208 461 l 211 463 l 267 461 l 327 463 l 329 463 q 347 459 338 461 q 363 454 356 456 q 376 450 371 452 q 383 449 382 449 q 389 448 384 449 q 399 444 393 446 q 411 440 406 442 q 420 436 417 438 l 478 431 q 494 423 491 431 m 340 399 q 347 397 343 398 q 354 396 350 397 q 364 396 359 396 l 358 399 l 321 410 l 283 410 l 275 404 l 289 404 l 340 399 l 340 399 m 465 383 q 474 385 467 383 q 489 391 481 387 q 484 397 486 393 q 480 406 481 401 q 478 418 478 412 l 460 415 l 425 415 l 454 420 l 471 423 l 471 425 l 420 431 q 396 438 408 435 q 383 441 385 441 q 374 443 381 441 q 357 447 366 444 q 340 451 349 449 q 327 455 332 454 l 267 455 l 281 449 l 307 449 l 321 452 l 332 449 l 353 444 l 329 444 l 302 444 l 275 444 l 256 452 l 243 455 l 211 455 l 187 439 l 187 436 l 197 428 l 235 431 l 205 423 l 200 410 l 200 401 q 211 402 204 401 q 222 404 217 404 q 232 407 228 407 q 237 408 236 408 l 252 408 l 273 410 l 283 418 l 315 415 l 350 410 l 369 399 l 406 391 q 416 389 412 389 q 424 387 420 388 q 431 386 427 387 q 456 386 448 386 q 465 383 463 385 m 578 319 l 578 180 q 575 137 576 156 q 573 106 574 121 q 572 89 572 92 q 571 77 572 87 q 562 64 570 68 q 551 60 558 60 q 538 64 544 60 l 535 64 l 535 67 l 528 91 l 528 158 l 509 233 l 497 370 l 494 372 l 497 372 l 528 383 l 530 386 l 530 383 l 538 375 l 541 391 l 541 393 l 543 393 l 562 396 l 565 396 l 568 393 l 578 348 l 578 319 m 570 319 q 570 324 570 319 q 571 333 570 328 q 572 343 572 338 q 572 348 572 347 l 553 346 q 552 293 553 315 q 551 259 551 273 q 551 249 551 245 q 549 269 551 252 q 547 302 548 285 q 543 348 545 323 l 530 368 l 505 359 l 515 254 l 525 243 l 532 233 l 538 199 l 525 222 l 519 225 l 532 161 l 532 94 l 535 89 l 541 89 l 548 94 l 548 137 l 553 89 l 565 86 l 565 89 q 566 106 565 92 q 567 136 566 120 q 569 165 568 152 q 570 180 570 178 l 570 319 l 570 319 m 570 182 l 570 225 l 559 199 l 570 182 m 532 64 q 535 52 535 59 q 533 37 534 44 q 530 24 532 30 q 528 16 528 18 l 525 16 l 522 16 l 463 16 q 453 13 460 15 q 437 8 446 11 q 420 3 429 5 q 406 0 412 1 q 395 2 401 0 q 381 6 388 3 q 370 10 375 8 q 364 14 365 12 q 354 14 361 14 q 339 16 347 14 q 319 18 330 17 q 311 18 317 18 q 296 18 304 18 q 278 17 288 18 q 262 16 269 16 l 240 21 l 230 21 l 197 27 q 188 28 192 27 q 184 30 186 29 l 128 35 l 71 40 l 68 40 q 57 56 61 48 q 56 75 54 64 q 61 89 57 83 q 71 100 66 96 q 85 109 77 106 l 87 109 l 126 104 q 154 106 138 104 q 174 109 170 107 q 184 107 176 109 q 208 102 193 105 q 223 97 216 100 q 233 94 231 94 q 246 101 236 96 q 264 109 256 106 l 267 109 l 296 96 q 303 95 298 96 q 316 91 309 93 q 334 86 323 88 l 385 78 l 418 69 q 433 66 425 68 q 445 64 439 65 q 454 64 451 64 q 470 65 458 62 q 489 73 481 68 l 492 73 l 525 73 q 530 68 527 70 q 532 64 532 66 m 515 43 l 500 37 l 471 53 l 494 48 l 517 56 l 522 64 l 492 64 q 484 61 489 62 q 472 58 478 59 q 461 55 467 56 q 454 56 456 54 q 445 57 451 56 q 433 59 439 58 q 421 61 427 60 q 415 64 416 62 l 385 69 l 332 81 l 294 89 l 296 81 l 350 67 l 401 61 l 342 61 l 281 83 l 264 96 l 248 86 l 184 81 l 208 89 l 218 91 q 213 91 216 91 q 205 94 210 92 q 189 99 198 96 q 177 102 179 102 q 166 100 174 100 q 151 99 159 100 q 136 99 143 99 q 126 99 129 99 l 87 102 l 85 102 l 80 78 l 98 67 q 107 68 103 67 q 122 73 115 70 q 131 72 124 74 q 144 66 137 70 q 163 58 153 63 l 106 56 l 77 58 l 77 48 l 77 45 q 91 45 82 45 q 108 43 100 44 q 128 40 117 41 l 184 35 l 197 35 l 205 37 l 208 43 l 222 33 l 248 27 l 271 24 l 289 35 l 342 30 l 299 33 l 289 27 l 319 27 l 364 21 l 364 18 q 372 15 367 17 q 384 12 378 14 q 396 9 391 11 q 406 8 402 8 q 408 8 407 7 q 410 9 410 8 q 412 11 411 9 l 409 16 l 436 27 l 449 33 l 444 24 l 456 21 l 460 24 l 463 24 l 522 24 l 515 43 m 538 562 l 543 509 l 530 562 l 532 600 l 543 606 l 538 562 m 565 425 l 565 423 l 562 423 q 539 411 550 413 q 520 412 528 410 q 503 420 511 414 l 503 423 l 500 485 q 499 492 500 486 q 497 505 498 498 l 494 522 l 492 572 l 489 600 q 491 630 493 622 q 486 640 488 637 q 481 638 484 640 q 478 637 479 637 l 476 637 l 418 640 l 358 646 l 299 646 l 271 651 l 218 646 l 190 618 l 139 591 q 127 594 137 591 q 106 603 117 596 q 87 621 86 610 q 96 642 87 632 q 126 665 106 653 q 134 667 128 667 l 155 702 l 187 718 l 190 718 l 264 726 q 274 727 267 726 q 291 728 282 728 q 308 728 300 728 q 319 728 316 728 q 329 727 321 728 q 343 725 336 726 q 357 724 351 724 q 364 723 363 723 l 412 726 l 492 720 q 537 714 521 720 q 562 699 553 709 q 565 685 566 690 q 562 680 564 680 q 561 668 562 678 q 559 648 560 659 q 557 628 558 637 q 557 621 557 620 l 551 557 q 552 549 551 555 q 555 534 553 542 q 559 512 557 524 l 568 458 l 565 425 m 562 458 q 559 467 561 459 q 555 485 557 475 q 551 509 553 496 l 546 557 l 548 621 l 557 680 l 557 688 l 532 704 l 500 712 q 496 714 498 714 q 492 715 494 715 l 412 720 l 374 715 l 385 712 l 444 704 l 377 709 l 347 715 l 319 718 l 264 715 l 275 709 l 304 707 l 264 707 l 245 715 l 211 715 q 197 712 203 713 q 190 712 192 712 l 160 696 l 139 665 l 139 662 l 136 662 q 134 661 136 662 q 128 656 132 660 l 128 631 l 160 654 l 182 685 l 168 643 l 134 616 l 117 606 l 117 603 q 131 601 124 601 q 139 600 137 600 l 184 624 l 216 651 l 271 659 l 299 654 l 304 654 l 312 659 l 340 667 l 337 659 l 350 656 l 372 662 l 388 672 l 418 680 l 441 680 l 418 675 q 412 674 414 675 q 406 669 406 673 q 402 666 405 667 q 397 663 400 664 q 391 659 395 661 l 401 649 l 418 649 l 476 646 l 473 654 q 489 661 481 659 q 500 663 495 663 q 505 656 505 662 l 505 627 l 497 613 l 497 600 l 497 572 l 503 522 l 509 485 l 509 425 l 522 433 l 525 485 l 530 449 l 543 431 l 557 428 l 562 458 z "},"4":{"ha":643,"x_min":54,"x_max":589,"o":"m 458 501 l 461 448 l 444 397 l 444 313 l 437 397 l 444 450 l 444 488 l 444 528 l 458 501 m 568 243 q 583 222 578 233 q 589 204 588 214 q 582 185 589 194 l 580 185 l 537 185 l 503 188 q 498 190 501 190 q 492 188 494 190 q 486 179 489 186 q 482 154 482 172 q 482 122 481 136 q 485 96 483 107 q 490 71 487 83 l 490 43 q 488 32 490 37 q 485 21 487 27 q 477 11 482 16 q 460 2 469 5 q 439 1 452 -1 q 424 3 431 1 q 413 11 417 5 q 404 29 406 19 q 401 49 401 39 q 403 71 401 60 l 403 74 q 401 89 403 76 q 397 116 399 102 l 397 172 l 397 233 l 408 290 l 400 401 l 400 403 l 408 450 l 406 511 l 397 559 l 397 562 l 395 627 q 394 641 395 633 q 393 655 393 647 q 393 672 393 663 q 392 698 391 688 q 394 712 393 707 q 396 720 395 718 q 400 723 398 722 q 409 724 401 723 q 429 726 418 726 q 452 726 440 727 q 472 720 464 725 q 482 701 482 713 l 482 675 l 475 625 l 479 546 l 485 511 l 485 509 q 486 491 486 499 q 487 476 487 484 q 488 465 488 469 q 485 444 488 458 q 479 414 481 430 q 476 393 477 401 q 475 382 475 384 q 476 370 475 380 q 479 353 477 361 q 482 336 481 344 q 482 326 482 328 l 482 321 q 480 289 480 300 q 480 270 479 277 q 481 261 481 264 q 482 258 482 259 q 496 257 487 258 q 514 253 505 255 q 530 249 523 251 q 540 245 538 246 l 566 243 l 568 243 l 568 243 m 568 191 q 567 194 568 192 q 566 198 566 196 q 563 203 566 201 q 557 207 560 205 q 548 208 553 208 q 538 210 542 209 q 532 211 534 210 q 532 211 530 211 l 564 211 l 564 224 l 566 237 l 564 237 l 540 237 l 537 237 l 537 240 q 519 244 528 241 q 503 248 511 245 q 488 251 494 250 l 467 237 l 467 258 q 468 264 467 261 q 470 269 469 267 q 472 274 471 272 q 472 296 472 284 q 475 321 473 308 q 475 325 475 324 l 477 326 q 475 336 477 328 q 472 351 474 343 q 470 371 470 362 q 469 382 469 380 q 470 392 469 384 q 472 414 470 399 q 477 444 475 430 q 479 465 479 458 l 479 509 l 472 543 l 472 546 l 469 625 l 475 675 l 477 701 l 477 703 q 475 704 477 704 l 467 699 l 439 704 l 439 667 l 437 609 l 426 699 l 408 707 l 403 715 q 399 706 400 713 q 398 687 398 699 q 399 660 398 675 q 403 627 401 644 l 403 562 l 413 511 l 416 450 l 408 401 l 416 293 l 416 290 l 406 230 l 406 227 l 408 224 l 421 211 l 429 240 l 429 211 l 418 195 l 411 206 l 408 188 l 413 177 l 421 129 l 403 164 l 406 116 q 407 104 406 111 q 409 90 408 97 q 409 77 410 83 q 408 71 409 72 l 411 71 q 409 57 410 64 q 409 42 408 50 q 413 26 410 35 l 424 26 l 429 45 l 441 37 l 458 40 l 444 64 l 441 74 l 437 140 l 444 93 l 461 64 l 469 48 l 477 40 l 479 35 q 481 38 481 37 q 481 41 481 39 q 482 43 481 42 l 482 68 q 479 78 481 71 q 476 98 478 86 q 474 124 475 109 q 475 157 473 140 q 488 193 475 185 q 493 195 490 195 q 498 196 496 196 q 503 195 501 196 q 510 195 505 195 q 522 194 516 195 q 537 193 530 193 l 568 191 m 424 612 l 431 591 l 429 541 l 424 588 l 424 612 m 211 193 q 197 190 207 189 q 176 191 186 190 q 150 195 164 193 l 189 203 l 211 206 l 258 211 l 211 193 l 211 193 m 181 280 q 163 265 170 271 q 154 256 157 260 q 150 251 151 252 q 150 248 150 249 q 159 249 151 248 q 176 251 166 249 l 178 251 q 190 251 183 251 q 204 250 197 250 q 215 249 210 249 q 221 248 220 248 l 252 248 q 257 247 253 248 q 267 245 262 246 q 277 242 273 244 q 284 240 282 241 q 315 239 300 240 q 332 240 330 238 q 345 237 338 240 q 358 230 353 234 q 374 220 370 226 q 375 207 376 214 q 372 195 374 200 q 366 182 369 188 l 363 180 l 310 185 l 262 182 l 214 180 l 170 175 l 168 175 l 138 177 l 102 180 l 76 175 l 73 175 l 71 175 q 63 182 66 176 q 58 193 60 187 q 55 216 54 203 q 60 240 56 229 q 71 266 64 253 q 74 272 71 267 q 81 286 77 278 q 89 300 85 293 q 94 311 92 307 q 101 319 97 314 q 110 330 106 325 q 117 341 114 336 q 123 348 121 346 q 126 353 123 349 q 133 363 129 357 q 140 375 136 369 q 147 387 144 382 l 163 425 l 200 456 l 231 491 l 250 528 l 252 528 l 252 530 l 279 564 q 289 582 283 572 q 294 599 294 593 q 303 610 294 604 q 318 619 312 616 l 327 643 q 342 653 334 651 q 355 654 350 656 q 364 647 360 652 q 370 638 368 643 q 374 627 372 633 l 374 583 l 374 580 l 371 580 l 355 538 l 335 501 l 310 463 l 276 437 l 262 401 l 218 348 l 200 306 l 181 282 l 181 280 l 181 280 m 152 266 q 162 275 156 270 q 176 288 168 280 l 195 311 l 214 351 l 255 403 l 271 440 l 271 443 l 305 467 q 309 472 306 468 q 314 482 311 477 q 321 493 317 488 q 327 501 324 498 l 332 530 l 345 556 l 355 559 l 366 583 l 368 625 l 358 616 l 345 586 l 348 625 l 332 637 l 327 614 l 323 614 l 323 612 q 308 605 315 610 q 300 599 300 600 q 298 589 300 595 q 293 577 296 583 q 288 567 290 572 q 284 562 285 562 l 284 559 l 258 526 l 237 488 l 239 481 l 271 509 l 239 470 l 221 463 l 211 448 l 195 435 l 181 389 l 150 353 l 176 397 l 178 420 l 168 422 l 168 420 q 164 412 166 418 q 159 400 161 406 q 152 385 156 393 q 148 376 151 382 q 141 363 145 370 q 134 351 138 357 q 128 342 130 345 q 123 336 127 340 q 116 326 120 332 q 108 315 112 321 q 102 306 104 310 q 95 296 99 302 q 86 281 90 289 q 76 264 81 273 q 75 260 76 262 q 74 256 75 259 q 71 251 73 254 l 73 237 l 90 224 l 102 220 l 84 214 l 71 214 l 73 182 q 73 181 73 182 q 76 180 73 180 l 102 188 l 142 182 l 168 182 l 211 188 l 262 191 l 310 191 l 358 188 l 348 203 l 297 217 l 327 214 l 345 222 l 353 224 q 342 231 347 229 q 335 233 336 233 q 328 232 334 231 q 313 233 321 232 q 296 235 304 234 q 281 235 288 235 q 264 238 274 237 q 252 240 254 240 l 221 240 q 213 240 219 240 q 200 242 207 241 q 186 243 193 243 q 178 245 180 244 q 170 243 174 243 q 163 240 166 242 l 157 237 l 142 240 l 128 248 l 152 266 m 183 311 l 170 293 l 176 313 l 195 351 l 183 311 z "},"5":{"ha":618,"x_min":54,"x_max":564,"o":"m 488 722 q 507 707 499 715 q 517 688 513 699 q 516 664 522 677 l 513 661 l 511 661 l 497 667 l 500 661 l 500 659 q 499 652 500 657 q 495 640 498 646 q 487 629 492 634 q 473 625 481 625 l 450 633 l 418 638 l 386 635 l 328 638 l 273 635 l 214 635 l 212 635 q 208 637 210 636 q 203 638 204 638 q 199 628 202 636 q 199 597 197 620 l 196 566 q 192 541 194 552 q 189 523 191 531 q 188 513 188 515 l 181 479 l 175 412 l 175 410 q 169 406 174 410 q 157 401 164 403 q 139 402 149 399 q 117 415 129 404 l 114 418 l 114 420 l 114 452 l 122 505 l 135 555 l 135 619 l 130 682 q 129 689 130 684 q 132 701 129 694 q 201 722 148 722 l 245 717 q 274 713 261 715 q 286 712 287 712 l 334 707 q 342 711 336 709 q 354 715 348 713 q 366 718 360 717 q 374 720 372 720 q 381 721 376 720 q 391 725 386 723 q 414 727 405 727 q 426 728 422 728 q 434 726 428 726 q 449 725 441 726 q 467 724 458 724 q 485 722 477 723 l 488 722 l 488 722 m 374 715 q 362 711 371 715 q 340 704 353 708 l 386 715 l 374 715 l 374 715 m 468 685 q 475 705 470 696 q 481 715 479 713 q 469 716 477 715 q 450 718 460 718 q 433 719 441 719 q 424 720 426 720 l 407 720 l 401 709 l 340 701 l 334 701 l 286 704 l 201 715 l 196 715 l 161 707 l 137 692 q 136 689 136 690 q 136 687 136 688 q 137 685 136 686 l 137 682 l 140 619 l 140 555 l 130 505 l 119 452 l 122 420 l 135 423 l 151 441 l 159 479 l 157 423 l 170 415 l 172 479 l 181 516 l 188 568 l 191 597 l 191 611 l 182 627 l 185 656 q 190 662 185 662 q 201 659 195 662 q 217 650 208 656 l 214 643 q 227 643 218 643 q 247 642 237 642 q 273 640 259 641 l 288 640 l 299 650 q 292 655 295 652 q 287 660 290 657 q 283 664 284 662 q 277 667 283 665 q 273 669 275 668 l 249 677 l 275 677 l 304 664 l 317 653 l 338 648 l 352 648 l 349 656 l 379 648 l 384 640 l 386 640 l 418 643 l 450 640 l 452 640 l 471 633 l 473 650 l 458 664 l 407 680 l 444 680 l 471 674 l 468 685 l 468 685 m 154 597 l 157 560 l 140 505 l 148 560 l 145 606 l 154 597 m 509 444 q 511 441 509 444 q 515 433 513 438 q 517 422 517 428 q 516 410 518 416 q 500 391 512 399 q 490 392 498 391 q 468 394 483 392 l 455 394 q 446 393 453 394 q 431 391 439 392 q 414 388 422 390 q 399 386 405 387 l 343 374 l 243 352 q 225 348 234 350 q 212 343 216 346 q 209 342 210 342 q 203 342 208 342 q 192 345 199 343 q 172 349 185 346 l 170 349 l 170 352 q 166 364 167 358 q 165 375 165 370 q 170 386 166 381 q 182 399 174 395 l 246 410 q 257 415 250 412 q 269 421 263 418 q 281 426 275 424 q 288 429 286 429 q 295 431 289 429 q 310 436 302 433 q 329 443 319 439 q 346 450 338 447 l 412 455 l 473 463 l 476 463 l 476 460 l 509 448 l 509 444 l 509 444 m 346 441 q 339 440 344 441 q 328 436 334 438 l 335 436 l 368 436 l 386 448 l 346 441 l 346 441 m 397 391 q 400 391 398 391 q 404 392 401 391 q 410 394 406 393 l 401 399 l 359 391 l 320 379 l 315 374 q 335 380 327 378 q 343 382 339 381 l 397 391 l 397 391 m 503 439 l 473 455 q 461 453 471 454 q 441 450 452 452 q 422 448 431 449 q 412 448 413 448 l 407 448 l 394 441 l 374 435 l 346 429 l 317 426 l 302 426 q 293 422 296 424 q 288 420 290 420 q 275 415 287 420 q 252 405 264 410 l 249 405 l 196 394 l 196 389 l 212 389 l 243 386 l 206 384 l 185 384 q 184 372 185 378 q 178 355 183 361 q 196 351 187 353 q 206 349 204 349 q 216 353 208 351 q 243 357 224 355 q 250 359 246 357 q 258 360 254 359 q 268 363 262 361 l 307 379 l 328 391 l 365 402 l 401 408 l 412 402 l 439 399 q 449 401 445 399 q 455 402 453 402 q 459 401 456 401 q 464 401 461 401 q 471 399 467 401 l 492 399 l 492 408 l 481 423 l 450 426 l 492 429 l 503 439 m 564 349 q 562 336 563 342 q 561 325 562 330 q 561 317 561 319 l 561 182 q 559 141 560 159 q 558 111 559 125 q 558 93 558 96 q 557 82 558 91 q 547 69 555 73 q 524 69 538 59 l 522 69 l 522 72 l 513 96 l 511 96 l 511 161 l 494 235 l 485 371 l 481 374 l 485 374 l 513 384 l 516 386 l 516 384 l 524 376 l 527 391 l 527 394 l 530 394 l 547 397 l 551 397 l 551 394 l 564 349 l 564 349 m 555 317 q 555 325 555 319 q 556 335 555 330 q 556 344 556 340 q 558 349 557 348 l 539 347 q 538 295 538 317 q 537 262 537 276 q 537 252 537 248 q 536 271 537 255 q 533 304 534 287 q 530 349 531 325 l 516 366 l 492 360 l 500 254 l 511 243 l 519 235 l 524 201 l 511 222 l 506 228 l 519 161 l 519 98 l 522 93 l 527 93 l 534 96 l 534 138 l 539 90 l 551 87 l 551 93 q 551 110 551 96 q 553 140 552 124 q 555 169 554 156 q 555 182 555 181 l 555 317 l 555 317 m 555 185 l 555 228 l 545 201 l 555 185 m 555 47 q 556 36 557 43 q 553 23 555 29 q 548 11 551 16 q 545 5 545 6 l 542 3 l 479 8 q 469 7 477 8 q 451 4 461 5 q 432 1 441 3 q 418 0 423 0 q 406 2 413 0 q 392 7 399 4 q 380 13 385 10 q 374 16 374 15 l 326 26 q 318 26 324 26 q 303 27 312 26 q 285 29 294 28 q 268 31 275 30 l 217 45 q 211 45 216 45 q 200 47 205 46 l 185 50 l 130 61 l 69 72 l 66 72 q 56 90 58 81 q 56 106 54 98 q 63 120 58 115 q 75 130 68 126 q 90 138 82 134 l 93 138 l 132 130 q 147 128 139 129 q 162 127 155 127 q 175 127 170 127 q 182 128 180 127 q 194 126 186 128 q 220 117 202 123 q 234 111 227 113 q 243 109 241 109 q 259 113 248 109 q 281 120 271 116 l 283 120 l 310 104 q 318 101 311 103 q 331 96 324 99 q 349 90 338 94 l 401 75 l 434 66 q 451 61 444 64 q 464 57 458 59 q 473 56 470 56 q 480 56 475 56 q 490 57 485 56 q 501 58 496 58 q 511 58 507 58 l 511 61 l 513 61 l 547 56 q 553 53 550 56 q 555 47 555 50 m 542 47 l 513 53 q 506 51 511 52 q 495 49 501 50 q 482 48 488 48 q 473 47 476 47 q 464 50 471 48 q 451 54 458 52 q 438 57 444 56 q 431 58 432 58 l 401 69 l 346 81 l 310 96 l 310 90 l 365 69 l 418 58 l 357 63 l 294 90 l 278 106 l 260 98 l 193 102 l 217 106 l 229 106 q 223 108 227 106 q 217 109 220 109 q 197 117 207 113 q 182 120 186 120 q 174 120 180 120 q 158 121 167 121 q 142 122 150 122 q 132 123 135 123 l 93 130 l 90 130 l 81 109 l 100 98 q 111 99 105 98 q 119 100 115 100 q 127 102 124 100 q 135 100 129 103 q 149 92 142 96 q 167 81 157 87 l 109 87 l 79 93 l 79 81 l 72 77 q 86 75 77 77 q 105 71 96 73 q 130 66 117 68 l 188 56 l 220 50 l 226 50 l 241 53 l 243 58 l 260 45 l 278 39 l 304 35 l 307 35 l 328 42 l 384 31 l 335 37 l 328 35 l 374 24 l 376 24 q 381 20 376 22 q 392 15 385 18 q 406 10 399 12 q 418 8 413 8 l 424 8 l 424 16 l 450 21 l 466 26 l 460 19 l 471 14 q 472 15 472 15 q 474 16 473 15 q 476 16 475 16 l 479 16 l 539 11 l 534 28 l 519 26 l 489 45 l 516 37 l 537 42 l 542 47 z "},"6":{"ha":602,"x_min":54,"x_max":549,"o":"m 99 102 l 99 217 l 104 158 l 99 102 m 448 684 q 451 676 449 683 q 455 662 454 670 q 454 645 456 653 q 444 630 452 636 l 397 630 l 348 646 l 315 654 q 306 650 313 652 q 292 646 299 648 q 271 640 283 643 l 218 627 l 174 625 l 168 585 l 168 584 l 155 571 l 146 558 q 145 547 146 556 q 141 526 143 537 q 136 497 138 513 l 133 456 l 126 410 l 131 374 q 132 370 131 374 q 133 360 132 366 q 133 348 134 354 q 131 336 133 341 q 127 320 129 332 q 122 295 125 308 q 118 273 120 283 q 115 263 116 264 l 121 209 q 122 201 121 207 q 124 188 123 195 q 125 177 125 182 q 126 171 126 172 q 125 158 126 169 q 123 134 125 147 q 121 111 122 121 q 118 97 119 100 l 128 51 l 128 47 q 124 43 127 47 q 116 33 121 39 q 106 22 112 27 q 96 15 101 17 q 80 20 87 15 q 79 21 80 21 q 78 22 79 21 q 77 22 77 22 q 67 41 70 31 q 63 58 64 50 q 62 75 62 66 l 62 125 q 62 133 62 125 q 60 151 61 141 q 59 176 60 161 l 58 222 l 58 287 l 62 333 q 62 343 62 334 q 60 363 61 352 q 58 391 58 375 l 54 471 l 64 533 l 75 570 l 83 600 l 83 602 l 99 646 l 100 646 l 123 681 l 126 681 l 197 709 l 241 727 l 306 727 l 307 727 l 376 701 l 412 690 l 448 684 l 448 684 m 430 671 q 431 676 430 675 q 435 681 433 678 q 427 683 431 682 q 420 684 423 684 q 412 686 416 685 l 374 694 l 306 719 l 284 719 l 243 718 l 223 707 l 210 694 l 196 701 l 131 676 l 105 643 l 87 600 l 83 566 l 77 547 l 85 535 l 75 517 l 75 489 l 83 483 l 87 466 l 85 448 l 83 359 l 75 420 l 80 453 l 72 469 l 67 441 l 62 433 l 64 391 l 69 333 l 69 332 l 64 287 l 64 222 l 64 176 l 69 125 l 69 75 q 68 71 68 73 q 68 64 68 68 q 69 56 68 60 q 76 51 74 54 q 80 46 77 47 q 83 50 80 44 q 85 56 84 52 l 91 93 l 91 147 l 96 46 l 109 43 l 121 47 l 121 51 l 113 93 l 110 93 l 113 97 q 115 118 114 106 q 118 141 117 130 q 120 160 119 152 q 121 171 121 169 q 118 184 121 172 q 113 207 115 197 l 113 209 l 110 263 l 110 264 l 99 277 l 91 292 l 99 349 l 99 298 l 109 286 l 110 305 l 118 308 q 122 326 121 319 q 126 336 123 333 q 127 348 127 341 q 126 359 127 354 q 123 373 125 366 l 121 407 l 121 410 l 126 456 l 131 497 l 142 562 l 146 574 l 136 584 l 131 600 l 131 646 l 138 600 l 146 593 l 155 648 l 193 663 l 159 646 l 156 594 l 161 589 l 169 630 l 169 631 l 172 631 l 218 631 q 227 635 222 633 q 236 637 231 636 q 246 640 241 639 l 252 654 l 236 659 l 256 663 l 266 655 l 289 661 l 298 667 l 307 673 l 307 659 l 292 654 l 315 659 l 317 659 l 348 654 l 399 635 l 432 635 q 427 642 429 638 q 421 650 424 646 q 416 659 418 654 l 371 676 l 353 684 l 374 689 l 427 663 l 430 671 l 430 671 m 541 83 q 542 62 548 76 l 522 46 l 461 28 l 389 20 l 356 9 q 346 9 353 9 q 332 8 339 9 q 319 6 325 7 q 312 5 313 5 q 304 4 310 5 q 291 2 298 3 q 280 1 285 1 q 274 0 275 0 l 223 0 l 220 0 l 144 12 l 142 12 q 139 18 142 13 q 135 30 136 23 q 135 45 134 37 q 144 58 136 52 l 146 58 l 187 53 l 236 62 l 284 68 l 347 71 q 356 72 348 71 q 374 77 365 74 l 399 83 l 430 92 l 468 104 l 471 104 l 509 98 q 522 96 515 98 q 532 92 527 95 q 541 83 537 89 m 312 12 q 323 13 316 12 q 335 15 330 15 l 323 15 l 312 12 l 312 12 m 519 51 l 513 58 l 507 71 l 448 53 l 399 58 l 445 66 l 486 80 l 473 97 l 471 97 l 432 83 l 399 79 l 348 62 l 333 62 l 347 62 l 358 51 l 330 51 l 307 56 l 289 53 l 252 58 l 236 58 l 190 47 l 187 47 l 150 51 l 161 33 l 184 24 l 241 28 l 184 20 l 156 22 q 152 20 155 20 q 150 16 150 19 l 223 7 l 274 7 q 279 7 276 6 q 289 9 282 7 l 294 12 l 294 22 l 311 20 l 325 20 l 343 20 l 351 15 q 354 16 353 15 q 356 16 355 16 l 386 28 l 389 28 l 458 34 l 519 51 m 513 415 l 509 413 l 491 395 l 490 392 l 444 392 q 433 389 442 391 q 413 385 424 387 l 385 378 l 325 361 l 264 359 l 193 354 l 169 345 l 168 345 l 168 346 q 165 347 166 346 q 162 354 163 349 q 161 371 161 359 q 159 402 160 382 l 159 406 l 161 407 q 176 414 163 408 q 204 424 189 419 q 234 432 219 429 q 256 430 249 434 q 272 428 261 427 q 295 430 283 428 q 320 433 308 431 q 338 437 332 435 l 347 437 l 404 437 l 458 448 l 486 443 l 490 443 l 500 433 l 504 433 l 500 429 l 499 423 l 509 418 l 513 415 m 169 354 l 174 354 l 169 354 m 484 400 l 471 407 l 471 433 l 481 438 l 458 441 l 407 429 l 404 429 l 347 429 l 338 429 q 313 425 326 427 q 288 422 300 423 q 267 422 276 422 q 252 425 257 422 q 238 426 248 427 q 216 420 229 424 q 191 412 204 416 q 168 402 178 407 l 190 392 l 252 400 l 201 387 l 187 378 l 184 359 l 193 361 q 213 362 203 361 q 232 363 222 363 q 252 364 242 364 l 271 378 l 306 382 l 274 373 l 266 364 l 325 368 q 335 371 326 368 q 354 376 344 373 q 381 384 366 380 l 440 397 l 444 397 l 484 400 m 389 423 l 417 423 l 392 415 l 328 392 l 353 413 l 328 425 l 370 418 l 389 423 m 545 287 q 547 276 545 283 q 547 264 549 268 q 545 253 547 262 q 542 232 543 243 q 537 203 539 219 l 528 144 l 522 120 l 522 117 l 519 117 q 507 115 513 115 q 496 117 502 115 q 486 121 491 118 l 484 121 l 484 125 l 481 142 l 476 131 l 473 125 l 471 131 l 461 147 l 461 150 l 461 153 l 468 185 l 473 241 l 476 241 l 490 290 l 473 356 l 473 359 l 476 361 q 481 366 477 362 q 490 374 485 370 q 502 381 496 378 q 512 384 508 384 q 515 383 513 384 q 519 379 517 382 l 541 322 l 545 287 l 545 287 m 542 264 q 541 273 542 267 q 537 287 540 279 l 532 319 l 513 370 l 509 368 l 509 327 l 500 356 l 484 359 q 481 356 484 356 l 494 290 l 494 287 l 481 241 l 476 185 l 471 158 l 481 177 l 490 217 l 490 190 l 491 177 l 499 147 l 507 139 q 512 136 511 142 q 517 126 514 130 q 518 132 517 130 q 519 138 519 135 l 519 144 l 530 207 l 536 235 q 539 255 538 246 q 542 264 541 264 m 522 308 l 528 268 l 522 252 l 519 236 l 522 223 l 519 209 l 513 222 l 513 246 l 517 276 l 512 295 l 522 308 z "},"7":{"ha":606,"x_min":54,"x_max":552,"o":"m 265 196 l 321 254 l 273 191 l 271 154 l 258 164 l 229 134 l 255 183 l 265 196 m 494 574 q 489 566 492 570 q 484 555 486 561 q 478 546 481 550 q 475 539 476 541 q 471 533 475 537 q 462 524 467 530 q 451 514 456 519 q 444 505 446 509 q 438 490 443 503 q 427 464 433 478 q 416 439 421 450 q 410 427 410 427 l 370 361 l 349 311 l 349 298 l 345 254 l 341 254 l 297 176 q 295 168 297 174 q 290 152 293 162 q 283 131 287 142 q 275 106 279 119 q 253 41 265 77 q 247 28 250 35 q 238 17 243 23 q 224 7 233 12 q 187 0 208 0 q 142 10 166 1 l 140 13 l 140 15 l 148 58 l 151 60 l 182 110 l 210 231 l 213 231 l 242 254 l 260 311 l 297 387 l 345 484 l 418 582 q 443 593 430 591 q 468 593 454 596 q 494 576 481 591 l 494 574 m 469 542 q 473 549 469 544 q 480 563 476 555 l 469 563 l 441 542 l 410 516 l 433 542 l 457 570 l 433 576 l 422 578 l 422 576 l 349 479 q 341 462 348 477 q 326 430 334 448 q 305 385 317 410 l 269 308 l 250 251 l 265 256 l 287 319 l 347 442 l 292 308 l 271 248 l 245 241 l 232 224 l 205 168 l 189 107 l 156 55 l 151 33 l 189 18 l 180 31 l 193 52 l 240 92 l 224 65 l 200 47 l 221 23 l 237 28 q 241 34 240 31 q 243 39 242 36 l 245 44 l 292 178 l 292 180 l 336 256 l 345 301 l 345 311 l 345 313 l 366 363 l 405 429 q 409 441 405 430 q 419 467 414 453 q 431 493 425 481 q 438 510 436 506 q 446 520 441 515 q 457 529 452 525 q 464 536 460 532 q 469 542 468 540 m 383 434 l 418 498 l 397 429 l 368 393 l 366 409 l 383 434 m 551 691 q 549 673 552 682 q 542 655 546 663 q 534 642 538 648 q 530 636 530 637 l 527 636 l 444 621 l 376 629 l 317 629 l 273 639 l 260 623 l 260 621 l 258 623 l 210 629 l 151 629 q 141 626 149 629 q 127 621 133 623 l 82 623 q 68 627 75 623 q 59 636 62 631 q 54 658 54 645 q 58 683 55 671 q 65 704 61 695 q 69 715 68 713 l 166 715 l 193 728 l 195 728 l 232 723 l 258 715 l 287 704 l 373 707 l 420 704 l 454 699 l 507 699 l 538 704 l 541 704 q 551 691 547 701 m 535 699 l 507 694 l 454 694 q 442 695 448 694 q 432 696 437 696 q 422 696 427 696 l 412 691 l 381 694 l 345 694 l 339 699 l 287 696 l 255 709 q 250 710 254 709 q 241 712 245 711 l 229 715 l 213 718 l 200 712 l 182 699 l 158 701 l 156 709 l 74 709 l 87 681 l 109 675 l 158 671 l 96 663 l 74 646 l 80 631 l 82 631 l 124 629 q 137 631 128 629 q 151 634 146 634 l 184 634 l 197 646 l 240 642 l 258 652 l 265 678 l 368 654 l 273 665 l 271 646 l 273 646 l 317 634 l 376 634 l 444 626 l 525 642 l 517 654 l 460 663 l 507 663 l 525 678 l 535 699 z "},"8":{"ha":593,"x_min":54,"x_max":539,"o":"m 507 59 q 509 47 509 54 q 507 34 508 40 q 504 22 505 27 q 502 16 502 17 l 502 14 l 499 14 l 441 14 q 433 12 439 14 q 418 7 426 9 q 401 3 410 5 q 389 1 393 1 q 378 1 385 -1 q 366 5 372 3 q 355 9 359 7 q 349 11 350 11 l 307 16 l 254 16 l 209 23 q 203 23 208 23 q 194 24 199 24 q 181 26 188 25 l 130 31 l 77 35 l 75 35 l 75 39 l 59 64 l 59 66 l 59 111 l 57 145 q 57 157 57 149 q 58 173 58 165 q 59 189 58 182 q 59 197 59 195 q 57 204 58 197 q 56 218 56 210 q 55 232 55 225 q 54 241 54 239 l 54 276 l 59 335 l 59 373 q 63 381 61 380 q 66 382 64 382 q 80 377 73 382 q 95 365 87 372 q 107 351 102 358 q 115 341 113 344 l 115 339 l 109 298 l 106 260 q 107 250 106 258 q 111 231 109 241 q 115 206 113 220 l 130 126 q 136 113 131 119 q 149 105 141 109 q 172 101 157 101 q 197 94 176 101 q 216 89 206 92 q 227 89 226 87 q 241 93 231 89 q 256 101 251 98 l 258 101 l 286 89 q 293 87 288 89 q 305 84 298 85 q 322 79 313 81 l 369 71 l 399 64 q 414 61 407 62 q 426 59 420 60 q 434 59 432 59 q 448 62 437 59 q 467 66 459 64 l 469 66 l 499 66 q 503 63 501 64 q 507 59 505 62 m 490 39 l 476 35 l 448 52 l 471 43 l 492 52 l 496 59 l 469 61 q 463 59 467 60 q 453 56 458 57 q 442 53 447 54 q 434 52 437 52 q 426 54 431 52 q 414 56 420 55 q 402 58 408 57 q 396 59 397 59 l 369 64 l 319 73 l 286 84 l 286 77 l 338 61 l 385 56 l 329 56 l 272 77 l 256 89 l 242 79 l 181 77 l 204 84 l 214 84 q 197 89 205 84 q 181 92 189 90 q 172 94 173 94 q 164 94 168 94 q 157 96 161 94 q 151 94 154 95 q 145 92 148 93 q 139 91 142 91 q 132 93 139 90 q 120 103 125 96 q 119 118 117 109 q 122 133 121 127 q 118 154 120 142 q 114 177 116 165 q 109 203 111 190 l 106 220 q 102 224 103 223 q 101 227 102 226 l 94 255 l 94 281 l 101 288 l 101 298 l 106 339 l 106 341 l 89 341 l 79 307 l 79 346 l 71 353 l 64 361 l 64 335 l 59 276 q 59 270 59 275 q 60 259 60 265 q 61 248 61 254 q 62 241 62 243 q 62 235 62 240 q 63 222 62 229 q 63 208 63 215 q 64 197 64 201 l 64 145 l 66 111 l 66 108 l 77 91 l 77 68 l 87 61 l 113 54 l 92 54 l 84 48 l 79 43 q 91 41 83 42 q 109 40 100 41 q 132 39 119 39 l 181 31 l 209 31 l 216 28 l 230 35 l 232 39 l 247 28 l 264 26 l 286 23 l 289 23 l 307 31 l 357 26 l 314 28 l 307 23 l 349 18 q 369 11 357 15 q 389 6 382 6 q 394 9 394 6 l 391 16 l 417 23 l 429 31 l 425 21 l 434 18 q 436 20 435 20 q 437 20 437 20 q 439 21 438 20 l 441 21 l 496 21 l 490 39 m 68 276 l 77 248 l 75 208 l 68 276 m 125 52 l 176 43 l 155 41 l 125 52 m 434 691 l 425 656 l 425 653 l 422 653 l 366 646 l 324 644 l 244 626 l 242 626 l 181 623 q 170 627 176 625 q 157 631 163 629 q 145 632 151 632 q 136 631 139 633 q 135 627 136 629 q 134 621 134 625 l 134 618 l 130 574 q 131 561 130 572 q 134 536 132 550 q 139 501 136 521 l 150 433 q 149 422 149 428 q 146 412 147 418 q 142 404 145 407 q 137 400 140 401 q 132 398 135 398 q 115 401 122 398 q 102 408 108 403 q 94 421 96 412 l 75 476 l 75 541 l 71 589 l 66 633 l 87 670 l 87 673 l 120 689 l 122 689 l 162 699 l 192 696 q 208 694 199 694 q 219 694 217 694 q 224 696 220 694 q 232 701 229 699 q 243 708 237 704 q 252 711 248 711 q 257 715 253 713 q 266 718 262 717 q 277 721 271 720 l 279 721 l 309 721 q 346 725 329 723 q 366 726 363 726 q 380 728 371 728 q 394 728 389 728 l 425 721 l 427 719 l 434 694 l 434 691 m 377 686 l 404 689 l 419 716 l 394 721 l 369 721 q 359 719 367 720 q 343 718 352 718 q 325 716 334 717 q 311 716 316 716 l 279 714 q 275 713 278 714 q 267 711 271 712 q 259 708 263 709 q 254 705 256 706 q 245 701 250 704 q 237 696 241 698 q 228 690 232 692 q 221 686 224 688 q 206 687 218 686 q 189 689 195 687 q 178 690 183 689 q 168 691 173 690 q 162 691 163 691 l 134 686 l 130 679 l 109 673 l 104 663 l 89 663 l 75 633 l 77 604 l 87 614 l 87 578 l 87 551 l 87 515 l 82 509 l 82 476 q 85 465 83 474 q 92 447 88 456 q 99 421 95 435 q 101 418 100 420 q 104 416 102 416 l 106 416 l 106 429 l 120 473 l 120 433 l 130 419 q 130 422 130 420 q 136 429 132 427 l 142 429 l 142 433 l 134 501 l 122 574 l 127 611 l 122 623 l 122 642 l 136 648 l 155 644 l 162 636 q 176 632 170 633 q 184 628 182 630 l 242 633 l 232 646 l 274 646 l 309 653 l 338 658 l 324 651 l 364 651 l 419 661 l 406 679 l 377 686 m 279 699 l 352 701 l 284 686 l 237 668 l 262 691 l 279 699 m 502 646 l 502 591 l 490 481 l 490 435 q 488 432 490 435 q 481 425 486 429 q 470 419 477 422 q 454 416 463 416 l 452 416 l 452 419 l 444 435 l 437 431 l 432 431 l 432 433 q 431 446 431 439 q 429 458 430 452 q 427 471 428 465 q 426 487 426 477 q 426 507 426 496 q 427 525 427 517 q 427 534 427 532 l 427 636 l 441 646 l 457 646 l 457 668 l 457 670 l 460 670 l 481 694 l 485 696 l 487 691 l 502 648 l 502 646 m 494 646 l 492 661 q 492 648 492 654 q 491 638 492 642 q 487 632 490 633 q 479 633 484 630 q 467 631 473 636 q 460 626 463 629 l 460 562 l 450 626 l 434 633 l 434 531 q 433 507 433 518 q 433 487 433 497 q 434 471 433 477 q 435 455 434 464 q 437 440 437 446 q 443 445 439 442 q 448 449 446 447 q 454 454 451 452 l 454 469 l 471 494 l 465 471 l 467 446 l 471 440 l 481 435 l 485 435 l 485 481 q 490 536 487 512 q 493 574 491 557 q 494 591 494 591 l 494 646 m 437 571 l 441 548 l 437 506 l 437 571 m 532 183 l 532 218 l 522 197 l 532 183 m 539 326 l 539 302 l 539 181 q 538 168 539 180 q 537 142 538 157 q 535 116 536 128 q 534 101 534 104 q 533 91 534 99 q 525 79 532 83 q 502 79 515 71 l 499 81 l 492 103 l 492 161 l 474 227 l 476 227 l 474 227 l 469 274 l 469 309 q 468 316 469 313 q 465 321 466 319 q 460 323 462 323 l 457 323 l 417 330 l 414 330 l 414 333 l 385 333 l 291 335 l 242 339 l 192 339 q 186 339 190 339 q 178 335 182 338 q 153 330 155 328 q 141 335 146 332 q 134 344 136 337 q 131 354 131 348 q 130 365 130 359 q 132 377 130 371 l 134 377 l 134 379 l 159 396 l 216 398 l 277 406 q 292 402 283 404 q 309 399 301 400 q 323 397 317 397 q 332 396 330 396 q 338 395 333 396 q 349 392 343 393 q 362 389 355 391 q 372 387 368 387 l 429 387 l 462 389 l 490 387 l 492 387 l 492 384 l 499 373 l 525 368 l 528 368 l 530 366 l 539 328 l 539 326 m 277 398 q 264 397 275 398 q 242 396 253 396 l 258 391 l 286 393 l 294 396 q 283 397 288 396 q 277 398 279 398 m 317 344 l 311 346 l 274 353 l 237 351 l 230 346 l 242 346 l 291 344 l 317 344 m 532 323 l 530 323 l 525 302 l 530 330 l 528 349 l 522 363 l 496 366 l 494 366 l 494 368 l 492 371 l 487 371 l 476 379 q 470 377 473 378 q 465 379 465 376 q 462 380 465 380 q 455 378 459 379 q 444 373 450 376 l 419 371 l 419 379 l 369 382 q 345 386 356 383 q 332 389 334 389 q 327 389 330 389 q 319 391 325 389 l 307 389 l 279 387 l 254 387 l 235 391 l 221 393 l 216 393 l 162 389 l 139 373 l 153 363 l 189 368 l 162 361 l 157 346 l 157 339 q 167 340 161 339 q 176 344 173 342 q 186 346 182 345 q 192 346 190 346 l 204 346 l 227 351 l 237 358 l 269 358 l 304 355 l 324 349 l 361 341 q 378 339 372 339 l 385 339 q 411 340 404 340 q 419 339 418 339 l 448 330 l 471 339 l 469 346 l 481 335 l 490 323 l 485 307 l 481 293 l 476 296 l 476 274 l 479 243 l 490 233 l 494 227 l 502 197 l 490 216 l 485 218 l 496 161 l 499 161 l 499 103 l 499 101 l 504 101 l 511 103 l 511 145 l 516 101 l 528 98 l 528 101 q 528 116 528 104 q 530 142 529 128 q 532 168 531 157 q 532 181 532 180 l 532 302 l 532 323 z "},"9":{"ha":597,"x_min":54,"x_max":543,"o":"m 454 712 q 463 690 461 704 q 452 669 464 677 l 452 666 l 449 666 l 412 671 l 363 662 l 360 662 l 317 657 l 254 657 q 244 653 252 656 q 227 648 236 651 l 202 642 l 173 634 l 134 622 l 133 622 l 95 627 q 82 629 89 627 q 71 633 77 631 q 61 642 64 636 q 58 651 60 646 q 60 662 57 656 l 61 662 l 80 680 l 81 680 l 140 696 l 143 696 l 212 705 l 243 715 q 255 716 248 716 q 269 717 262 717 q 282 718 276 718 q 290 720 288 719 q 298 721 292 720 q 309 723 304 722 q 323 726 316 724 l 327 726 l 376 727 l 376 726 l 452 712 l 454 712 l 454 712 m 290 712 q 278 711 286 712 q 264 710 271 710 l 275 710 l 290 712 l 290 712 m 357 700 l 415 707 l 439 701 q 449 707 448 707 l 376 720 l 327 720 q 320 719 324 720 q 311 717 317 717 l 307 712 l 307 701 l 291 705 l 275 705 l 258 707 l 250 710 q 247 710 249 710 q 245 707 245 709 l 212 696 l 143 691 l 85 674 l 90 666 l 97 654 l 153 671 l 201 666 l 155 659 l 117 647 l 130 629 l 133 629 l 170 642 l 201 647 l 254 662 l 269 662 l 255 662 l 243 674 l 269 674 l 294 671 l 311 671 l 347 666 l 360 669 l 410 680 l 412 680 l 449 674 l 434 691 l 412 700 l 357 700 m 437 323 q 422 316 434 321 q 395 306 410 311 q 365 298 380 301 q 343 300 351 296 q 328 303 339 302 q 305 302 317 303 q 281 299 293 301 q 264 296 270 298 q 257 294 260 294 l 255 294 q 244 295 253 294 q 225 295 235 295 q 206 296 215 296 q 195 296 197 296 l 145 281 l 143 281 l 117 286 l 116 286 l 102 296 l 100 300 l 102 301 l 106 308 l 95 312 l 90 313 l 92 319 l 111 334 l 113 337 l 159 337 q 170 340 161 338 q 190 346 179 343 q 218 353 202 349 l 274 370 l 275 370 l 336 372 l 405 375 l 429 385 l 432 382 q 435 374 433 380 q 437 358 436 369 q 437 327 437 347 l 437 323 m 427 375 l 424 375 l 427 375 m 347 303 q 361 303 351 302 q 382 309 370 305 q 406 317 393 312 q 429 327 418 321 l 406 337 l 347 332 l 399 342 l 412 353 l 412 370 l 406 366 l 385 366 q 366 366 376 366 q 349 365 356 366 l 328 353 l 296 347 l 323 359 l 332 365 l 275 361 q 265 359 273 361 q 246 353 256 356 q 228 347 236 349 q 218 344 219 344 l 159 332 l 117 329 l 130 323 l 133 300 l 123 291 l 143 290 l 195 301 l 255 301 l 260 301 q 286 305 273 303 q 311 307 299 307 q 332 307 323 308 q 347 303 341 307 m 245 317 l 274 303 l 233 312 l 212 308 l 185 308 l 211 313 l 274 337 l 245 317 m 143 576 l 134 542 l 127 485 l 116 439 l 127 372 l 127 370 q 121 363 125 368 q 112 355 117 359 q 101 349 106 351 q 90 347 95 346 q 85 349 87 347 l 64 408 l 60 439 q 56 451 57 444 q 54 465 54 459 q 57 475 55 466 q 61 495 59 484 q 66 523 64 507 l 77 581 l 80 606 l 80 608 l 81 608 q 94 611 81 611 q 117 605 106 611 l 117 602 l 123 585 l 124 596 l 127 602 l 133 596 l 140 579 l 143 576 m 133 569 l 119 550 l 116 511 l 116 538 l 111 549 l 102 579 l 97 586 q 90 590 93 585 q 87 600 87 596 l 81 581 l 71 523 q 70 513 71 522 q 66 494 68 505 q 62 474 64 484 q 60 463 60 465 q 62 455 60 460 q 66 444 65 449 l 66 439 l 70 411 l 87 359 l 95 361 l 95 402 l 102 372 l 119 372 l 107 438 l 107 439 l 119 487 l 127 542 l 133 569 m 87 454 l 90 433 l 80 421 l 77 460 l 81 475 l 81 490 l 81 503 l 85 517 l 90 506 l 90 480 l 87 454 m 102 54 l 71 57 q 65 52 68 56 q 63 42 63 48 q 66 24 62 35 l 77 35 l 100 28 l 124 22 l 130 35 l 106 38 l 102 54 m 497 624 l 500 513 l 495 569 l 497 624 m 530 201 l 520 165 l 515 133 l 515 130 l 497 87 l 473 54 l 401 24 l 359 7 l 294 7 l 294 12 l 294 7 l 248 12 l 221 12 l 180 2 l 127 -1 l 66 22 l 64 22 l 64 24 q 60 39 61 32 q 61 50 60 46 q 67 58 64 56 q 71 60 70 60 l 102 57 l 149 72 l 218 85 l 250 87 l 254 87 l 284 82 q 293 83 286 82 q 308 87 300 85 l 328 92 l 379 107 l 381 107 l 424 107 l 429 145 l 429 149 l 432 149 l 444 160 l 449 174 q 452 185 450 175 q 456 207 454 195 q 460 237 458 220 l 465 274 l 470 322 l 468 358 q 465 362 467 359 q 463 372 464 366 q 463 383 463 377 q 465 395 463 389 q 469 411 467 400 q 474 434 472 422 q 478 456 477 446 q 480 468 480 466 l 478 517 q 475 527 477 521 q 473 539 474 533 q 471 550 471 545 q 470 555 470 555 q 471 568 470 557 q 474 592 473 578 q 477 616 475 605 q 478 632 478 628 l 468 674 l 470 676 q 473 683 470 677 q 480 693 475 688 q 490 704 484 699 q 503 710 496 709 q 509 708 506 710 q 515 705 513 706 q 517 703 517 705 l 517 701 q 528 684 524 693 q 534 667 532 674 q 536 648 536 657 l 532 602 q 533 592 532 600 q 534 575 533 585 q 537 550 536 564 l 541 506 l 537 439 l 536 395 q 536 385 536 394 q 536 366 536 376 q 537 339 536 354 l 543 259 l 530 201 m 532 296 l 532 339 l 527 395 l 527 397 l 532 439 l 532 506 l 530 550 l 527 602 l 527 648 l 527 654 q 527 662 527 658 q 526 669 526 665 q 520 674 523 671 q 517 680 517 677 q 515 680 516 681 q 514 676 515 679 q 512 669 513 673 l 507 632 l 507 579 l 503 681 l 490 681 l 478 676 q 477 675 478 675 q 475 674 477 674 l 485 632 q 483 609 484 622 q 480 585 481 597 q 479 566 479 574 q 478 555 478 557 q 478 551 478 555 q 480 542 479 547 q 482 531 481 537 q 485 521 483 526 l 485 517 l 487 468 l 487 465 l 487 463 l 500 450 l 507 435 l 497 382 l 497 429 l 490 444 l 485 422 l 478 421 q 476 403 478 411 q 473 392 473 395 q 471 381 471 387 q 471 370 471 376 q 473 358 472 364 l 478 322 l 473 274 l 468 234 l 458 170 l 449 159 l 463 149 l 468 133 l 468 87 l 460 133 l 449 140 l 444 85 l 405 71 l 437 87 l 439 138 l 437 143 l 429 106 l 429 100 l 427 100 l 381 100 q 371 98 380 100 q 353 92 363 95 l 349 81 l 363 75 l 343 71 l 332 77 l 308 72 l 301 67 l 291 60 l 291 75 l 308 81 l 284 75 l 250 81 l 221 81 l 153 67 l 102 50 l 71 55 l 70 54 q 68 51 69 52 q 66 48 68 50 q 67 40 66 45 q 70 28 67 35 l 127 4 l 165 7 l 163 12 l 191 24 l 192 43 q 207 43 200 43 q 217 44 212 44 q 222 45 222 45 l 260 45 l 231 39 l 197 35 l 218 24 l 243 33 l 290 33 l 250 28 l 226 19 l 248 19 l 294 14 l 317 14 l 353 19 l 376 28 l 389 39 l 401 33 l 468 57 l 492 92 l 507 133 l 512 165 l 520 188 l 512 196 l 522 216 l 522 241 l 515 251 l 510 264 l 512 284 l 515 370 l 520 312 l 517 276 l 526 261 l 527 290 l 532 296 z "}," ":{"ha":468,"x_min":0,"x_max":0,"o":""},"!":{"ha":221,"x_min":22,"x_max":280,"o":"m 111 389 l 83 415 l 67 684 l 111 728 l 153 684 l 144 531 l 111 566 l 95 551 l 142 504 l 137 415 l 111 389 m 140 777 q 157 742 157 762 l 157 739 l 153 685 l 111 728 l 67 684 l 64 739 l 64 742 q 78 776 64 762 q 107 791 93 791 q 140 777 122 791 m 85 385 l 85 384 l 111 359 l 136 385 l 125 212 l 111 197 l 96 212 l 85 384 l 22 447 l 85 385 m 111 71 q 129 66 120 71 q 142 52 138 62 q 148 34 148 43 q 143 16 148 24 q 129 1 138 7 q 111 -3 120 -3 q 92 1 101 -3 q 78 16 83 7 q 73 34 73 24 q 78 53 73 43 q 92 66 83 62 q 111 71 101 71 m 125 212 l 121 143 l 100 143 l 96 212 l 111 197 l 125 212 m 22 476 l 83 415 l 111 389 l 137 415 l 136 385 l 111 359 l 85 385 l 83 415 l 22 476 m 111 566 l 144 531 l 142 504 l 95 551 l 111 566 m 153 684 l 153 685 l 280 558 l 153 684 m 199 476 l 144 531 l 199 476 m 142 504 l 184 463 l 142 504 z "},"\"":{"ha":391,"x_min":64,"x_max":365,"o":"m 64 751 q 76 775 64 764 q 103 787 87 787 q 130 776 118 787 q 140 751 142 765 l 123 656 l 87 620 l 64 751 l 64 751 m 251 751 q 260 776 248 765 q 288 787 273 787 q 314 776 302 787 q 326 751 326 765 l 303 620 l 268 655 l 251 751 l 251 751 m 99 556 l 87 620 l 123 656 l 106 556 l 99 556 m 268 655 l 303 619 l 292 556 l 286 556 l 268 655 m 303 619 l 303 620 l 365 558 l 303 619 z "},"#":{"ha":699,"x_min":22,"x_max":676,"o":"m 460 461 l 274 461 l 238 328 l 425 328 l 460 461 m 113 503 l 242 503 l 316 773 q 336 789 320 789 q 357 768 357 789 q 357 762 357 765 l 286 503 l 472 503 l 546 773 q 566 789 550 789 q 587 768 587 789 q 587 762 587 765 l 515 503 l 655 503 q 676 482 676 503 q 655 461 676 461 l 505 461 l 468 328 l 586 328 q 607 307 607 328 q 586 286 607 286 l 456 286 l 382 16 q 363 0 378 0 q 341 20 341 0 q 342 26 341 24 l 413 286 l 227 286 l 153 16 q 133 0 149 0 q 111 20 111 0 q 113 26 111 24 l 183 286 l 43 286 q 22 307 22 286 q 43 328 22 328 l 195 328 l 231 461 l 113 461 q 92 482 92 461 q 113 503 92 503 z "},"$":{"ha":850,"x_min":64,"x_max":785,"o":"m 608 747 l 241 747 q 146 713 185 747 q 106 632 106 678 l 106 530 q 145 451 106 484 q 241 416 185 416 l 608 416 q 732 370 680 416 q 785 259 785 325 l 785 157 q 732 46 785 92 q 608 1 680 1 l 446 1 l 446 -114 q 425 -135 446 -135 q 404 -114 404 -135 l 404 1 l 85 1 q 64 22 64 1 q 85 43 64 43 l 608 43 q 704 77 665 43 q 743 157 743 111 l 743 259 q 704 339 743 305 q 608 374 665 374 l 241 374 q 117 419 170 374 q 64 530 64 465 l 64 632 q 117 744 64 698 q 241 789 170 789 l 404 789 l 404 904 q 425 925 404 925 q 446 904 446 925 l 446 789 l 608 789 q 629 768 629 789 q 608 747 629 747 z "},"%":{"ha":631,"x_min":22,"x_max":608,"o":"m 608 136 q 568 40 608 80 q 471 0 528 0 q 375 40 415 0 q 335 136 335 80 q 375 233 335 193 q 471 273 415 273 q 568 233 528 273 q 608 136 608 193 m 566 136 q 538 203 566 176 q 471 231 510 231 q 404 203 432 231 q 377 136 377 176 q 404 70 377 98 q 471 42 432 42 q 538 70 510 42 q 566 136 566 98 m 111 524 l 146 559 q 92 585 115 562 q 65 652 65 613 q 92 719 65 691 q 159 747 120 747 q 226 719 198 747 q 253 665 249 696 l 288 700 q 256 749 277 726 q 159 789 216 789 q 62 749 102 789 q 23 652 23 709 q 62 555 23 595 q 111 524 84 534 m 61 9 q 44 0 54 0 q 22 21 22 0 q 26 33 22 28 l 217 295 l 146 367 l 217 295 l 248 265 l 61 9 l 61 9 m 254 652 q 253 665 254 659 l 288 700 q 296 652 296 677 q 256 556 296 595 q 159 516 216 516 q 111 524 134 516 l 146 559 q 159 558 153 558 q 226 586 198 558 q 254 652 254 613 m 441 602 l 570 780 q 586 789 576 789 q 608 768 608 789 q 604 755 608 761 l 471 572 l 441 602 m 217 295 l 286 389 l 315 359 l 317 361 l 248 265 l 217 295 m 372 508 l 441 602 l 471 572 l 402 478 l 372 508 m 360 492 l 298 406 l 315 389 l 389 463 l 360 492 m 315 389 l 389 463 l 360 492 l 372 508 l 402 478 l 317 361 l 315 359 l 286 389 l 298 406 l 315 389 m 227 476 l 298 406 l 227 476 z "},"&":{"ha":784,"x_min":64,"x_max":720,"o":"m 713 41 q 718 28 718 35 q 695 7 718 7 q 679 17 685 7 l 584 150 l 427 36 q 288 -7 368 -7 q 127 59 189 -7 q 64 209 64 126 q 173 416 64 326 l 202 387 q 107 208 107 308 q 157 87 107 137 q 282 38 206 38 q 402 70 340 38 l 412 77 l 559 184 l 484 290 l 514 319 l 593 209 l 680 271 q 694 275 686 275 q 720 256 720 275 q 706 239 720 246 l 618 174 l 713 41 m 202 387 l 173 416 l 183 425 q 320 520 223 456 q 271 606 286 570 l 303 639 q 355 543 312 604 q 445 665 445 604 q 444 675 445 670 l 392 728 l 444 675 l 444 675 l 484 635 q 418 539 472 585 l 392 566 l 376 551 l 402 526 q 379 509 391 517 l 435 431 l 404 401 l 344 486 q 313 466 330 477 l 303 476 l 241 416 q 243 417 242 416 l 208 382 l 241 415 q 209 392 225 404 l 202 387 m 444 675 q 425 718 441 699 q 376 741 405 741 q 323 714 346 741 q 302 654 302 688 q 303 639 302 648 l 271 606 q 260 654 260 633 q 292 741 260 703 q 376 783 326 783 q 456 747 425 783 q 487 665 487 711 q 484 636 487 650 l 444 675 m 484 290 l 416 384 l 447 414 l 514 319 l 484 290 m 404 401 l 435 431 l 447 414 l 416 384 l 404 401 m 418 539 l 402 526 l 376 551 l 392 566 l 418 539 m 313 466 q 243 417 284 446 l 303 476 l 313 466 l 313 466 m 484 635 l 484 636 l 562 558 l 484 635 m 208 382 l 202 387 l 208 382 z "},"'":{"ha":204,"x_min":64,"x_max":140,"o":"m 98 556 l 64 751 q 75 776 64 765 q 101 787 86 787 q 128 776 117 787 q 140 751 140 765 l 104 556 l 98 556 z "},"(":{"ha":262,"x_min":64,"x_max":262,"o":"m 241 792 q 146 758 185 792 q 106 677 106 724 l 106 -69 q 146 -150 106 -115 q 241 -184 185 -184 q 262 -205 262 -184 q 241 -226 262 -226 q 117 -180 170 -226 q 64 -69 64 -135 l 64 677 q 117 789 64 743 q 241 834 170 834 q 262 813 262 834 q 241 792 262 792 z "},")":{"ha":262,"x_min":0,"x_max":315,"o":"m 198 -69 q 145 -180 198 -135 q 21 -226 93 -226 q 0 -205 0 -226 q 21 -184 0 -184 q 117 -149 77 -184 q 156 -69 156 -115 l 156 222 l 198 264 l 198 -69 l 198 -69 m 0 813 q 21 834 0 834 q 145 789 93 834 q 198 677 198 743 l 198 661 l 151 707 q 117 758 142 735 q 21 792 77 792 q 0 813 0 792 m 156 540 l 156 677 q 151 707 156 693 l 198 661 l 198 498 l 156 540 m 156 222 l 156 385 l 198 426 l 198 264 l 156 222 m 156 414 l 156 511 l 193 474 l 198 469 l 198 456 l 156 414 m 156 414 l 198 456 l 198 426 l 156 385 l 156 414 m 156 540 l 198 498 l 198 469 l 193 474 l 156 511 l 156 540 m 198 426 l 315 543 l 198 426 m 115 551 l 156 511 l 115 551 m 151 707 l 151 707 l 131 728 l 151 707 m 131 566 l 156 540 l 131 566 z "},"*":{"ha":501,"x_min":64,"x_max":437,"o":"m 161 476 l 128 444 q 127 452 127 447 q 132 464 127 458 l 216 581 l 132 609 l 164 642 l 229 621 l 229 707 l 250 728 l 271 707 l 271 621 l 336 642 l 369 608 l 285 581 l 351 489 l 339 476 l 250 566 l 235 551 l 241 544 l 179 458 l 161 476 m 336 642 l 409 666 q 416 667 413 667 q 437 645 437 667 q 422 626 437 631 l 369 608 l 336 642 m 79 626 q 64 645 64 631 q 85 667 64 667 q 92 665 88 667 l 164 642 l 132 609 l 79 626 l 79 626 m 250 566 l 339 476 l 351 488 l 363 472 l 334 442 l 321 459 l 324 463 l 303 483 l 250 556 l 241 544 l 235 551 l 250 566 m 229 766 q 250 787 229 787 q 271 766 271 787 l 271 707 l 250 728 l 229 707 l 229 766 m 145 431 q 128 444 132 432 l 161 476 l 179 458 l 167 441 l 161 447 l 145 431 l 145 431 m 250 359 l 334 442 l 363 472 l 370 464 q 374 452 374 458 q 352 431 374 431 q 336 439 342 431 l 334 442 l 250 359 m 145 431 l 161 447 l 167 441 l 165 439 q 149 431 159 431 l 145 431 m 304 481 l 324 463 l 321 459 l 304 481 m 241 544 l 303 483 l 304 481 l 241 544 m 420 558 l 351 488 l 351 489 l 420 558 m 420 558 l 369 608 l 420 558 z "},"+":{"ha":713,"x_min":64,"x_max":649,"o":"m 336 50 l 336 300 l 85 300 q 64 321 64 300 q 85 342 64 342 l 336 342 l 336 592 q 357 613 336 613 q 378 592 378 613 l 378 342 l 628 342 q 649 321 649 342 q 628 300 649 300 l 378 300 l 378 50 q 357 28 378 28 q 336 50 336 28 z "},",":{"ha":203,"x_min":35,"x_max":139,"o":"m 35 -149 l 97 82 q 117 98 102 98 q 139 77 139 98 q 138 71 139 75 l 76 -159 q 56 -175 72 -175 q 35 -155 35 -175 q 35 -149 35 -152 z "},"-":{"ha":713,"x_min":64,"x_max":649,"o":"m 199 355 l 515 355 l 473 313 l 241 313 l 199 355 m 241 313 l 85 313 q 64 334 64 313 q 85 355 64 355 l 199 355 l 241 313 m 628 355 q 649 334 649 355 q 628 313 649 313 l 473 313 l 515 355 l 628 355 z "},".":{"ha":203,"x_min":64,"x_max":139,"o":"m 102 71 q 120 66 111 71 q 134 52 129 62 q 139 34 139 43 q 134 16 139 24 q 120 1 130 7 q 102 -3 111 -3 q 83 1 92 -3 q 69 16 75 7 q 64 34 64 24 q 70 53 64 43 q 83 66 75 62 q 102 71 92 71 z "},"/":{"ha":542,"x_min":0,"x_max":543,"o":"m 538 824 l 39 -58 q 22 -68 33 -68 q 0 -47 0 -68 q 4 -35 0 -41 l 504 847 q 521 857 510 857 q 543 836 543 857 q 538 824 543 829 z "},"A":{"ha":749,"x_min":54,"x_max":695,"o":"m 399 775 q 394 753 397 765 q 390 730 392 743 q 387 703 388 717 l 379 673 l 362 625 l 331 577 q 322 553 327 566 q 313 527 318 541 q 302 495 307 512 l 269 455 l 256 405 l 232 346 l 224 288 l 203 218 l 186 186 q 178 173 181 180 q 172 161 174 168 q 172 149 170 154 l 172 123 l 172 115 l 168 83 l 168 67 l 160 5 q 155 1 159 2 q 146 0 152 -1 q 129 5 140 0 l 123 13 l 102 1 l 70 5 l 54 42 l 73 94 l 91 110 l 104 193 q 104 201 104 196 q 105 211 105 205 q 107 227 106 218 l 126 269 l 126 277 l 149 322 l 153 344 l 157 373 l 165 399 l 201 480 l 216 495 l 221 519 l 242 556 l 269 600 q 274 607 271 602 q 278 618 276 611 q 283 637 281 625 q 292 644 288 640 q 302 660 299 651 l 315 749 l 312 772 l 333 790 l 387 788 l 399 775 m 385 745 l 381 741 l 370 775 l 357 780 l 354 767 l 354 749 l 354 713 l 343 665 l 347 703 l 347 705 l 349 751 l 343 775 l 339 761 l 328 772 l 320 772 l 320 749 l 307 655 l 302 642 l 298 629 l 298 618 l 280 596 l 259 562 l 246 551 l 227 517 l 221 490 l 208 480 l 186 428 l 180 416 l 165 381 l 163 354 l 163 322 l 163 319 l 147 298 l 139 269 l 145 250 l 155 271 l 172 319 l 182 336 l 190 354 l 182 317 l 163 277 l 145 218 l 131 180 l 131 205 l 137 224 l 137 245 l 129 261 l 118 235 l 116 224 l 116 216 l 99 110 l 91 98 l 78 92 l 64 40 l 75 32 l 94 27 l 97 27 l 109 29 q 116 33 113 31 q 121 45 121 38 l 118 54 l 121 67 l 134 104 l 147 155 l 153 170 l 129 48 l 134 27 l 153 19 l 160 69 l 163 80 l 163 120 l 163 123 l 163 157 l 172 176 q 176 183 173 179 q 180 189 178 186 l 198 227 l 219 288 l 224 349 l 246 399 l 251 412 l 235 389 l 216 328 l 198 304 l 195 271 l 186 248 l 186 298 l 208 334 l 216 368 l 216 389 l 203 360 l 235 447 l 232 426 l 242 431 l 264 476 l 294 522 l 302 559 l 307 591 l 304 538 l 292 505 l 280 484 l 275 468 l 294 495 l 323 577 l 354 629 l 359 642 l 359 658 l 370 670 l 381 705 l 385 745 m 525 274 l 509 258 l 469 248 l 426 243 l 395 232 l 349 211 l 296 189 l 235 178 q 221 222 220 205 q 229 248 222 238 q 254 263 237 258 l 310 267 l 354 274 l 440 290 l 473 292 l 498 300 l 509 300 l 515 286 l 525 274 m 426 269 l 500 290 l 504 292 l 498 292 l 473 286 l 442 282 l 403 277 l 397 269 l 385 274 l 310 258 l 264 255 l 256 243 l 254 218 l 307 230 l 366 245 l 259 208 l 240 186 l 296 197 l 339 214 l 393 240 l 424 250 l 430 250 l 442 253 l 463 255 l 477 263 l 485 267 l 504 282 l 496 288 l 426 269 m 684 69 q 694 41 694 52 q 692 26 695 31 q 682 17 690 19 l 650 5 l 628 19 l 626 11 q 612 2 618 3 q 602 1 606 1 q 593 5 597 2 l 581 85 l 575 120 l 570 147 l 567 186 l 564 197 l 533 253 l 509 326 l 498 383 l 477 434 l 461 480 l 434 517 l 411 583 l 395 639 l 399 660 l 399 670 l 403 673 l 406 715 l 411 715 l 448 621 l 453 606 l 490 556 l 536 464 l 541 455 l 557 418 l 570 365 l 591 328 l 593 314 l 612 271 l 616 261 l 628 203 l 661 125 l 684 69 l 684 69 m 682 59 l 648 139 l 623 199 l 608 258 l 608 269 l 605 274 l 600 277 l 593 292 l 583 309 l 581 319 l 581 334 l 562 362 l 552 408 l 546 426 l 541 439 l 525 455 l 511 472 l 504 498 l 496 519 l 492 532 l 479 556 l 467 581 l 448 604 l 442 614 l 414 689 l 411 670 l 442 569 l 424 602 l 414 655 l 408 658 l 406 644 l 403 637 l 416 585 l 448 509 l 469 484 l 481 436 l 506 387 l 509 360 l 519 334 l 530 326 l 517 373 l 506 391 l 492 455 l 500 426 l 523 383 l 530 352 l 533 319 l 541 292 l 578 222 l 519 319 l 541 255 l 570 199 l 575 189 l 578 155 l 585 85 l 600 24 q 603 33 600 28 q 611 42 606 37 q 626 54 616 47 l 628 73 l 626 92 l 608 186 l 634 69 l 645 65 l 653 73 l 653 104 l 676 59 l 682 59 z "},"B":{"ha":729,"x_min":54,"x_max":675,"o":"m 474 490 l 479 543 l 481 564 l 497 663 l 497 718 l 497 728 q 512 754 503 743 q 532 769 519 764 q 562 768 545 774 q 556 750 559 760 q 551 731 553 742 q 548 707 549 720 l 548 669 q 551 635 549 652 q 552 608 552 622 q 551 586 552 593 l 546 519 l 551 448 l 548 400 l 528 416 l 522 433 l 507 439 l 474 490 m 484 503 l 497 497 l 503 519 l 503 528 l 507 519 l 505 488 l 515 466 l 522 508 l 517 560 l 530 508 l 526 454 l 535 443 l 544 441 l 544 452 l 538 519 l 546 588 l 546 606 l 544 601 l 538 667 l 541 669 l 541 707 l 548 751 q 542 752 545 753 q 538 749 540 751 q 533 746 535 747 l 530 718 l 526 741 l 515 732 l 522 705 l 515 633 l 517 700 l 507 725 l 505 728 l 505 723 l 503 661 l 486 552 l 484 503 m 507 768 l 497 746 q 482 741 490 745 q 464 731 475 738 q 440 713 454 724 l 396 697 q 372 699 385 699 q 308 697 349 701 q 251 689 277 692 q 229 686 240 688 q 209 683 218 684 q 193 681 199 682 q 184 679 186 680 l 165 692 l 189 768 q 210 760 198 763 q 232 758 219 758 q 261 762 245 757 l 305 760 l 308 762 q 311 763 309 762 q 313 764 312 763 l 444 775 l 490 791 l 507 768 m 435 718 q 456 734 446 726 q 474 745 465 740 q 492 751 484 750 l 484 754 l 440 751 l 422 736 l 435 760 l 477 768 l 486 783 l 448 768 l 317 760 l 323 751 l 393 751 l 339 746 l 300 746 l 280 754 l 263 754 q 241 751 252 751 q 219 752 231 750 q 194 760 206 754 l 189 741 l 197 730 l 236 725 l 194 720 l 184 688 l 236 694 q 246 697 241 696 q 254 699 250 699 q 259 700 258 700 l 290 702 l 290 700 l 317 702 l 352 709 l 370 705 l 396 702 l 435 718 l 435 718 m 510 403 l 497 380 l 448 398 l 315 408 l 305 412 l 261 412 q 235 416 248 415 q 211 416 224 417 q 187 408 199 414 l 156 479 l 174 490 q 224 484 201 486 q 262 479 244 481 q 285 477 279 477 q 307 474 290 475 q 342 471 324 472 q 377 469 361 469 q 396 471 393 469 l 437 457 q 458 442 447 449 q 479 431 468 436 q 503 423 491 425 l 510 403 m 424 433 l 442 421 l 484 412 l 495 418 q 475 425 485 420 q 455 434 466 428 q 435 448 444 439 l 396 464 l 366 464 q 357 461 363 464 q 350 459 354 460 l 321 466 l 287 469 l 285 466 l 254 469 l 231 477 l 176 484 l 189 454 l 231 446 l 189 443 l 184 435 q 185 432 184 434 q 188 426 186 429 l 192 418 q 211 422 200 421 q 233 423 220 424 q 261 418 245 422 l 280 421 l 298 429 l 336 429 l 396 421 l 323 421 l 317 416 l 450 406 l 490 388 l 481 406 l 437 412 l 424 433 m 611 332 l 621 327 l 621 262 l 613 322 l 611 332 m 675 127 q 641 119 656 120 q 618 124 628 119 q 608 149 608 130 l 603 218 l 570 267 l 564 332 l 562 374 l 559 416 q 565 440 561 430 q 575 453 568 448 q 595 452 583 458 q 610 438 602 447 q 623 416 616 430 q 637 380 631 402 q 644 351 641 366 q 649 322 646 338 q 652 294 651 307 q 653 289 652 292 q 654 281 654 286 q 657 270 655 277 l 665 231 l 662 198 l 675 127 m 657 153 l 662 158 l 655 185 l 644 172 l 652 231 l 650 260 l 648 279 l 642 325 q 636 361 640 345 q 627 391 631 378 q 616 416 622 405 l 608 421 l 588 412 l 590 384 l 624 338 l 590 378 l 581 410 l 564 425 q 563 414 563 422 q 564 399 564 407 q 566 380 565 391 l 572 327 l 581 277 l 583 332 l 588 279 l 583 264 l 593 254 l 598 236 l 608 222 l 613 158 l 624 151 l 629 161 l 624 193 l 635 158 l 644 146 l 657 153 m 595 163 q 598 153 597 160 q 599 138 599 146 q 598 117 599 128 q 595 110 596 114 q 595 102 595 106 q 595 94 595 98 q 596 74 597 81 q 593 64 595 67 q 588 58 591 60 l 551 58 q 533 56 545 56 q 510 54 522 55 q 481 54 496 54 l 437 40 l 404 28 l 368 22 q 346 17 355 18 q 332 16 337 16 q 321 16 325 16 q 310 14 315 15 q 302 13 306 14 q 298 13 298 13 q 291 13 296 13 q 279 12 286 12 q 263 11 272 11 l 261 11 l 238 3 q 222 3 229 1 q 212 9 215 5 q 205 18 207 12 l 189 45 l 184 47 l 176 58 q 173 73 169 70 q 184 75 176 76 q 205 68 192 73 q 210 66 206 66 q 219 65 214 65 q 231 66 224 65 l 245 68 l 272 71 l 275 68 q 286 76 278 73 q 302 81 294 79 q 323 84 312 83 q 329 83 324 83 q 338 85 333 84 q 350 89 343 87 l 378 100 l 406 104 l 444 109 l 477 115 l 503 121 l 526 133 q 535 136 530 134 q 543 140 540 138 q 551 146 547 143 q 562 153 556 151 q 571 158 567 156 q 581 161 576 160 l 595 163 l 595 163 m 593 149 l 583 153 l 575 151 l 548 136 q 526 125 535 130 q 511 119 517 121 q 507 117 505 116 l 562 125 l 545 118 q 532 114 538 115 q 526 112 526 112 q 516 108 524 111 q 498 103 508 106 l 474 96 l 442 96 l 435 96 l 396 89 l 414 86 l 383 81 l 381 81 l 378 86 l 376 86 l 370 84 l 357 86 q 343 80 350 83 q 332 77 338 78 q 323 77 326 75 q 301 73 311 75 q 287 70 293 72 q 280 66 280 68 q 278 62 279 64 q 272 64 275 60 q 260 63 265 64 q 251 62 255 62 q 245 60 247 62 q 231 58 238 59 q 218 58 224 58 q 209 60 212 58 l 189 68 l 189 64 l 189 60 l 194 60 l 205 56 l 201 50 l 207 42 l 245 40 l 218 36 l 212 34 q 209 31 210 32 q 209 28 209 31 q 211 26 210 27 q 212 25 211 26 q 212 24 212 24 l 214 13 q 222 9 216 10 q 235 10 227 9 q 259 16 244 11 l 280 22 l 285 22 l 294 28 q 301 34 298 31 q 305 36 304 36 q 311 36 307 36 q 319 38 315 37 q 328 40 323 39 l 350 36 q 367 42 359 39 q 379 46 374 45 q 387 50 385 48 q 392 50 388 50 q 401 52 396 51 q 412 56 406 54 l 372 40 l 354 26 q 377 30 366 28 q 396 34 387 31 q 412 40 406 37 l 444 50 l 440 54 l 419 47 l 424 50 l 432 52 q 438 55 435 54 q 442 56 441 56 q 450 58 443 57 q 464 59 456 58 l 484 60 l 490 68 l 481 71 q 457 69 467 70 q 441 68 448 68 q 437 68 435 68 q 446 69 439 68 q 461 72 453 71 q 481 77 470 74 l 497 73 l 500 71 q 505 68 503 68 l 541 64 l 544 64 l 551 64 l 588 64 l 588 71 l 583 79 l 572 81 l 553 77 q 563 81 558 79 q 570 83 566 82 q 575 86 574 85 l 590 84 l 588 89 q 587 100 587 94 q 587 110 587 104 q 590 119 588 115 l 593 149 m 168 56 q 121 32 142 39 q 102 27 111 28 q 86 29 94 26 q 74 38 79 31 q 67 56 68 44 l 60 112 l 60 143 q 56 153 57 145 q 55 171 54 159 q 60 203 56 182 q 62 217 61 210 q 63 229 62 223 q 62 239 63 235 l 56 236 l 56 272 q 61 286 58 279 q 64 295 63 291 q 67 301 66 300 q 67 313 67 302 q 66 336 66 323 q 65 368 65 350 l 62 391 l 56 433 l 60 488 l 65 549 l 65 614 l 62 679 l 56 736 q 94 756 76 753 q 109 756 101 758 q 125 750 117 755 q 139 734 132 745 q 151 705 145 723 l 145 679 l 145 628 l 156 568 l 156 508 q 150 477 152 494 q 150 441 149 462 q 158 393 151 420 l 158 325 l 140 218 l 153 189 l 153 156 l 156 146 l 168 56 m 147 112 l 142 109 l 140 100 l 151 79 l 158 84 l 147 143 q 145 159 146 151 q 145 173 144 165 q 147 187 145 180 l 135 218 l 135 229 l 106 168 l 117 205 l 127 222 l 124 260 l 117 286 l 109 352 l 117 309 l 127 286 l 135 309 l 138 332 l 130 408 l 135 418 l 140 398 l 145 386 l 147 334 l 153 330 l 153 393 l 147 416 q 144 444 145 429 q 143 475 142 458 q 147 510 144 492 l 147 568 l 145 583 l 138 573 l 130 532 l 132 503 l 120 431 l 127 503 l 124 539 q 130 548 127 543 q 132 560 132 553 q 127 578 132 567 q 133 584 130 580 q 137 595 135 587 q 140 616 138 603 l 138 628 l 138 677 l 145 705 l 122 705 l 109 725 l 92 738 l 90 586 l 87 671 l 79 725 l 67 730 l 69 663 l 73 635 l 75 611 l 73 593 l 69 543 l 79 500 l 73 431 l 75 495 l 69 526 l 65 482 l 65 429 l 69 391 l 75 380 l 77 337 q 80 307 79 321 q 83 294 81 294 q 81 290 83 292 q 79 284 80 287 q 75 277 77 281 l 73 296 l 65 272 l 65 243 q 70 235 68 242 q 71 219 71 230 q 65 187 70 208 q 62 172 64 179 q 61 159 61 165 q 62 151 60 153 l 77 212 l 77 239 l 87 236 l 87 212 l 67 151 l 73 112 l 65 136 l 65 117 l 75 56 l 75 47 l 96 45 l 106 50 l 106 64 l 92 115 l 101 151 l 98 115 l 115 66 l 120 58 l 138 66 l 142 81 l 127 102 l 140 115 l 147 112 z "},"C":{"ha":813,"x_min":54,"x_max":759,"o":"m 267 9 q 237 2 249 4 q 217 1 224 1 q 203 2 208 1 q 192 5 197 3 q 184 11 188 8 q 179 18 181 14 q 168 30 175 23 q 154 43 161 37 q 138 58 146 50 q 125 72 128 66 q 124 81 123 78 q 130 85 125 84 q 140 85 134 85 q 179 75 155 83 q 200 72 188 72 q 224 74 213 73 q 252 77 237 75 l 284 79 q 288 77 286 77 q 292 79 290 77 q 295 82 294 80 q 327 90 314 87 q 349 94 340 93 q 366 96 359 96 q 376 96 370 95 q 389 99 382 98 q 406 104 397 101 q 428 109 411 106 q 462 115 444 112 q 508 123 483 119 q 523 124 510 123 q 551 127 536 125 q 589 132 568 129 q 604 134 595 132 q 624 139 614 136 q 649 147 635 142 q 693 162 676 154 q 711 172 703 166 q 718 176 715 175 q 724 178 722 177 q 730 180 727 179 l 751 182 q 758 166 757 175 q 759 150 759 157 q 757 132 758 141 q 755 115 754 125 q 757 104 755 110 q 758 82 759 90 q 754 72 756 75 q 748 68 751 68 l 700 66 q 660 62 677 63 q 629 60 642 60 q 603 61 614 60 l 506 39 q 481 32 494 35 q 456 27 468 29 q 430 24 444 24 q 398 19 412 20 q 374 18 384 18 q 352 18 361 17 q 315 15 330 16 q 288 12 299 14 q 267 9 276 10 m 195 9 q 210 5 200 5 q 232 5 218 3 q 267 15 246 7 l 309 24 l 341 42 l 376 45 l 409 42 l 460 56 l 506 61 l 443 45 l 414 28 q 446 33 429 30 q 476 38 460 35 q 506 45 492 41 l 600 66 q 637 67 620 66 q 669 69 653 68 q 697 72 686 70 l 746 75 q 749 77 747 75 q 751 82 751 79 l 741 90 l 730 90 l 697 88 l 730 99 l 751 96 l 748 112 q 747 122 747 117 q 751 134 747 132 q 752 148 751 141 q 752 158 752 153 q 751 165 753 163 l 732 174 q 728 172 730 173 q 723 171 726 171 q 719 169 721 170 q 706 161 712 165 q 695 155 701 158 q 684 150 689 152 l 633 134 l 711 144 l 657 123 l 589 112 l 530 112 l 503 106 q 485 103 493 104 q 478 101 477 101 l 500 99 l 457 93 q 454 94 455 93 q 451 95 452 94 q 449 96 450 95 q 448 98 449 97 q 443 99 447 99 q 431 98 436 98 q 422 97 426 97 q 416 99 418 98 q 393 93 404 96 q 375 90 383 91 q 366 90 367 88 q 337 85 350 88 q 315 81 326 83 q 300 77 304 79 q 294 73 297 74 q 281 75 286 69 q 264 73 271 74 q 251 71 257 71 q 241 68 244 70 q 212 66 224 67 q 190 66 200 66 q 179 68 180 66 q 168 72 174 70 q 159 75 163 73 q 151 77 155 76 l 149 72 q 149 69 148 71 q 157 66 150 66 l 173 61 l 170 56 l 179 45 l 241 42 l 197 42 q 193 39 195 40 q 186 36 189 36 l 186 28 q 189 26 188 28 q 192 15 192 22 l 195 9 m 155 164 l 165 136 l 157 110 q 123 86 140 92 q 107 83 115 83 q 90 86 98 83 q 72 99 81 90 q 54 123 63 107 l 60 136 l 54 182 l 65 196 l 62 229 q 58 240 60 233 q 56 257 57 246 q 54 283 54 267 l 54 351 l 65 382 l 71 428 l 71 488 q 66 511 68 499 q 62 530 64 520 q 60 545 60 539 q 59 557 60 551 q 59 568 58 563 q 60 574 59 572 q 57 602 58 589 q 55 623 56 612 q 54 639 54 633 l 54 688 q 98 712 77 705 q 116 716 106 715 q 134 715 125 718 q 151 706 143 713 q 165 688 159 700 l 168 625 l 162 621 l 151 574 l 149 542 l 157 505 l 159 488 l 159 452 l 157 423 q 160 399 159 410 q 161 382 161 390 q 157 374 161 375 q 153 355 155 366 q 151 335 152 347 q 151 309 150 323 l 151 266 l 159 233 l 162 185 l 155 164 m 146 164 l 157 185 l 151 231 l 144 266 l 144 286 l 140 269 l 146 244 l 133 275 l 122 336 l 119 401 l 114 388 l 116 248 l 111 258 l 111 382 l 100 395 l 98 509 l 100 534 l 94 591 l 100 585 l 100 558 l 111 534 l 111 415 l 125 409 l 144 304 l 149 374 l 151 377 l 155 382 q 153 398 153 382 q 152 433 153 414 q 151 483 151 455 l 151 491 l 146 483 l 149 385 l 140 498 l 140 574 l 155 636 l 151 610 l 159 625 l 159 685 l 146 677 l 127 682 l 119 647 l 100 602 l 100 661 l 109 679 l 93 677 l 68 677 l 60 685 l 60 634 l 62 606 l 73 582 l 76 545 l 71 569 l 68 571 q 67 547 66 559 q 70 522 68 534 q 76 496 73 509 q 79 463 79 482 q 77 426 79 444 q 73 382 75 405 l 62 352 l 71 358 l 79 393 l 79 366 l 76 352 l 84 334 l 84 315 l 73 261 l 79 326 l 71 345 l 62 329 l 62 277 l 60 275 l 62 261 l 71 229 l 71 193 l 71 191 l 71 185 l 60 182 l 68 136 l 62 125 l 71 132 l 79 121 l 94 112 l 111 132 l 116 191 l 122 132 l 111 107 l 127 104 l 149 115 l 149 112 l 157 134 l 146 164 m 719 720 l 730 696 l 725 642 l 700 652 l 651 679 q 617 684 633 681 q 591 687 604 686 q 574 690 578 688 q 555 692 568 691 q 529 694 542 693 q 505 695 515 695 q 492 696 494 696 l 463 696 l 416 696 l 410 699 l 395 701 l 338 704 l 327 707 l 281 718 l 276 720 l 222 728 l 181 728 q 149 739 161 731 q 139 746 144 741 q 133 755 135 750 q 131 768 130 761 q 136 785 131 776 l 176 782 l 233 782 l 265 785 l 300 790 l 311 779 l 346 777 l 425 782 q 461 772 441 777 q 500 764 478 768 q 546 758 522 760 l 574 766 l 578 766 l 597 771 l 732 764 l 741 731 l 719 720 m 719 652 l 697 699 l 679 715 l 574 724 l 705 745 l 725 755 l 633 764 l 622 755 l 603 764 l 597 764 q 584 758 590 760 q 578 758 581 758 q 572 756 575 758 q 570 755 571 755 l 546 750 q 519 753 534 751 q 493 758 505 755 q 465 764 479 760 l 421 774 l 373 771 l 416 766 l 460 755 l 508 728 l 446 753 l 420 758 l 384 764 l 352 761 l 311 768 l 260 755 l 292 782 l 279 779 q 270 778 275 778 q 265 777 266 777 l 252 777 l 230 777 l 201 777 l 140 777 l 151 764 l 212 766 l 151 755 l 165 750 l 184 736 l 224 736 l 281 725 l 284 725 l 313 718 l 341 713 l 376 709 l 366 713 l 392 724 l 359 736 l 287 747 l 359 745 l 409 728 l 420 715 l 452 709 l 478 707 l 517 709 l 495 701 q 514 701 500 702 q 541 699 528 701 q 576 696 557 698 q 592 692 580 693 q 617 690 604 691 q 651 688 633 688 l 703 658 l 719 652 z "},"D":{"ha":836,"x_min":54,"x_max":781,"o":"m 599 736 q 675 724 642 734 q 703 713 690 720 q 727 697 717 707 q 743 676 737 688 q 747 647 748 663 q 740 635 745 640 q 728 626 736 630 q 708 623 720 623 l 585 628 l 544 669 l 485 675 l 388 694 q 364 702 379 698 q 279 720 338 709 q 230 726 252 723 q 192 730 210 728 q 166 734 174 732 q 126 751 141 743 q 109 769 113 759 q 121 789 104 779 l 233 764 l 260 767 l 360 767 l 477 759 l 519 745 q 522 743 519 743 q 532 745 524 743 l 555 750 l 599 736 m 711 631 l 685 650 l 629 661 l 568 705 l 644 664 l 688 664 l 693 689 l 685 703 l 641 728 l 596 731 q 590 732 593 731 q 586 734 587 733 q 583 736 584 735 l 557 736 l 505 723 l 516 736 l 519 736 l 490 747 l 469 750 l 438 753 l 432 745 l 480 734 l 363 756 l 336 756 l 408 723 l 319 753 l 275 753 l 246 759 l 233 756 l 172 770 l 136 762 l 149 750 l 157 742 l 166 739 l 233 731 l 282 728 l 302 723 l 374 705 l 388 703 l 418 694 l 488 689 l 560 687 l 596 667 l 557 680 l 549 675 l 588 636 l 711 631 m 177 242 q 158 159 165 201 q 153 120 155 140 q 150 80 151 100 q 151 39 149 59 q 157 0 153 18 q 102 10 125 -2 q 82 24 92 15 q 67 46 73 33 q 57 78 60 59 q 57 123 54 97 l 69 172 l 75 258 l 75 308 l 75 400 q 74 442 75 423 q 72 474 73 458 q 69 494 71 489 l 72 559 l 79 614 l 79 661 l 72 697 l 79 783 l 119 742 l 124 726 l 136 736 l 166 713 q 164 680 165 696 q 161 652 163 667 q 157 628 159 637 q 159 596 157 612 q 161 566 160 583 q 166 534 163 549 l 174 420 l 163 351 l 177 242 m 146 33 q 142 62 143 47 q 140 94 140 76 q 144 131 140 111 l 152 167 l 160 231 l 163 236 l 169 261 l 163 292 l 163 308 l 157 345 l 152 336 l 160 267 l 144 336 l 141 375 l 133 397 l 124 436 l 133 489 l 133 439 l 141 406 l 155 406 l 146 450 l 146 587 l 157 453 l 166 433 l 160 503 l 157 539 l 152 587 l 152 617 l 155 659 l 157 703 q 149 696 154 699 q 137 694 144 694 q 121 697 131 694 l 124 669 l 121 611 l 116 672 l 105 700 q 95 710 99 704 q 88 723 91 715 q 85 742 85 731 l 79 697 l 85 669 l 87 677 l 90 659 l 90 603 l 82 553 l 82 584 l 79 559 l 75 497 l 77 484 q 82 411 79 448 q 84 345 83 380 q 82 283 85 311 q 81 243 82 264 q 79 206 81 226 q 75 170 77 186 l 66 115 l 82 86 l 97 112 q 104 159 101 136 q 109 200 106 178 q 111 239 111 222 q 114 185 113 211 q 114 139 115 163 q 108 100 113 115 l 108 58 q 121 56 114 59 q 133 49 126 54 q 146 33 140 43 m 85 486 q 93 460 90 473 q 97 437 96 447 q 100 414 99 425 q 100 376 101 397 q 99 335 100 355 q 97 289 98 313 q 97 346 99 312 q 93 411 96 380 q 85 486 90 448 m 780 387 q 781 358 781 374 q 780 328 781 345 q 774 292 779 311 l 758 228 l 758 195 l 758 184 l 752 159 q 718 149 733 149 q 694 159 705 149 q 683 200 684 169 q 688 225 685 213 q 691 247 690 235 q 693 267 693 258 l 685 294 q 690 323 687 309 q 693 346 691 334 q 693 364 694 358 l 688 414 l 696 472 l 693 536 l 675 584 q 679 598 676 591 q 687 608 682 604 q 701 611 692 612 l 722 597 l 724 614 q 736 623 730 621 q 750 621 742 625 q 766 600 758 616 q 767 590 766 596 q 768 577 768 585 q 768 559 768 569 l 777 486 q 776 475 777 481 q 775 465 775 471 q 774 453 774 459 q 775 418 774 438 q 780 387 776 399 m 771 364 q 768 361 769 363 q 763 359 764 359 l 758 348 l 755 364 l 763 431 l 755 458 l 763 444 l 768 469 l 768 484 l 760 553 l 760 587 q 755 579 758 582 q 746 574 751 576 q 732 572 741 572 l 735 559 l 735 486 l 727 551 l 716 567 l 699 575 l 683 584 l 701 539 l 704 484 l 711 511 l 708 486 l 713 469 l 730 453 l 730 431 l 719 389 l 724 428 l 719 444 l 711 458 l 708 428 l 701 397 l 704 378 l 716 353 l 716 312 l 708 351 l 701 361 q 698 330 699 345 q 695 307 696 318 q 693 292 694 296 l 696 283 l 701 289 l 699 276 l 701 269 q 700 250 701 260 q 697 229 699 241 q 693 205 696 218 l 693 181 l 711 172 l 719 186 l 727 222 l 730 178 l 744 161 l 749 186 l 749 228 l 755 253 l 760 300 l 771 342 l 771 345 l 771 364 m 685 145 q 712 136 704 144 q 722 120 720 129 q 722 97 725 110 q 709 75 718 85 q 691 59 701 66 q 668 46 680 52 q 643 39 655 41 q 580 31 614 31 l 538 20 l 511 25 l 480 17 l 465 14 l 355 3 l 257 6 l 235 9 l 199 0 q 178 21 186 12 q 167 39 170 31 q 164 54 163 47 q 166 66 164 60 q 188 86 172 78 l 269 81 l 300 73 l 352 89 l 382 79 l 477 97 l 532 100 l 572 142 l 685 145 m 701 115 l 583 102 l 696 123 l 693 139 l 624 136 l 599 128 l 572 123 l 544 92 l 516 76 l 530 92 l 477 89 l 388 73 l 399 66 l 477 81 l 388 58 l 357 76 l 338 73 l 327 61 l 305 53 l 272 58 l 319 66 l 311 66 l 300 64 l 267 73 l 188 81 l 199 64 l 205 50 l 229 58 l 272 42 l 221 45 l 193 36 l 199 20 l 199 9 l 235 17 l 262 14 l 355 12 l 460 20 l 508 33 l 513 33 l 522 31 l 627 61 l 588 39 q 637 45 616 39 q 671 58 658 50 q 699 76 688 65 l 690 83 l 701 97 l 701 115 m 282 31 q 298 38 286 37 q 324 39 311 40 q 360 36 340 39 q 373 29 366 31 q 386 29 380 28 q 399 33 393 30 l 501 42 q 446 26 478 31 q 385 20 414 21 q 313 20 350 18 l 338 31 q 326 35 335 34 q 307 34 317 35 q 282 31 296 33 z "},"E":{"ha":762,"x_min":54,"x_max":708,"o":"m 708 661 q 699 659 705 659 q 684 661 693 659 q 661 667 674 662 l 522 672 q 467 672 494 671 q 421 674 445 673 q 381 680 397 676 q 358 681 370 681 q 338 680 349 681 q 323 677 328 679 l 304 674 q 294 673 299 673 q 285 673 290 673 q 275 674 280 673 l 201 686 l 184 690 q 175 694 178 691 q 171 704 172 698 q 176 722 171 710 l 197 757 q 201 761 198 759 q 216 763 205 764 l 280 757 l 349 749 l 384 743 q 427 736 406 739 q 465 732 444 734 q 501 730 485 730 l 509 730 l 597 728 q 625 727 610 730 q 656 714 639 724 q 695 686 673 705 l 690 677 l 708 661 m 682 667 q 678 670 681 668 q 661 677 673 673 l 634 694 l 608 696 l 538 707 l 604 699 l 624 702 l 602 720 l 509 722 l 480 725 l 437 730 l 419 728 l 397 733 l 368 739 l 357 743 l 323 747 l 282 749 l 205 757 l 195 741 l 229 728 l 267 725 l 286 733 l 328 722 l 286 730 l 269 722 l 251 720 l 224 720 l 205 728 l 203 717 l 205 704 l 233 699 l 243 690 l 267 682 l 317 690 l 328 686 q 347 688 337 687 q 387 686 363 689 q 417 682 401 683 q 445 680 431 680 q 472 680 460 679 l 448 682 l 429 688 l 507 680 l 525 677 l 663 672 l 682 667 m 176 39 q 170 17 174 25 q 160 6 167 9 q 142 12 153 3 l 115 -1 l 102 1 q 78 11 88 3 q 62 30 69 17 q 57 66 56 43 l 54 100 l 62 183 l 62 236 l 62 286 l 64 302 l 67 332 l 67 363 l 67 441 q 68 457 67 450 q 70 470 68 464 q 73 477 71 475 q 73 493 73 484 q 73 511 73 500 q 71 536 72 522 l 71 560 l 75 600 l 75 646 l 75 707 l 75 743 q 73 760 74 752 q 73 773 73 766 q 75 786 73 781 l 94 781 l 102 791 q 120 782 111 787 q 138 771 128 777 q 158 757 148 764 l 158 739 l 155 702 l 146 667 l 158 643 l 158 555 l 160 489 l 163 429 l 163 380 l 163 307 l 171 259 l 166 236 l 168 177 l 168 123 l 173 74 l 176 39 m 168 46 l 163 107 l 163 142 q 162 159 163 144 q 161 191 162 174 q 160 238 161 212 l 163 259 l 163 273 l 150 299 q 151 240 151 267 q 152 198 152 218 q 153 177 153 179 l 144 262 l 144 337 l 146 401 l 140 395 l 136 372 l 140 486 l 144 416 l 155 382 q 154 425 155 405 q 153 458 154 444 q 153 489 153 475 q 151 513 151 500 q 150 538 150 526 q 150 563 149 550 l 150 606 l 146 616 l 142 629 l 136 654 l 142 664 l 140 667 q 144 688 142 676 q 149 711 146 700 q 153 739 151 724 l 150 749 l 150 747 l 140 749 l 134 743 l 125 680 l 128 747 l 123 757 l 105 760 l 97 768 l 92 765 q 84 767 87 766 q 77 768 77 768 l 81 743 l 81 717 l 81 694 l 81 643 l 81 600 l 81 589 l 75 534 q 78 512 77 522 q 80 494 79 502 q 81 477 81 486 q 78 472 81 472 q 75 473 77 472 l 75 465 l 77 451 l 81 446 q 84 437 84 441 q 83 433 84 435 l 77 395 l 77 372 l 89 372 l 94 390 l 102 526 l 102 449 l 99 382 q 97 373 99 378 q 91 361 94 367 q 83 347 87 355 q 83 331 83 340 q 82 315 83 323 q 81 299 81 307 l 71 279 l 67 236 l 67 231 l 67 185 l 62 102 l 64 66 l 64 58 l 67 50 l 92 28 l 97 50 l 94 198 l 99 71 l 107 26 l 123 31 l 134 41 l 144 58 l 144 129 l 155 58 q 159 47 155 50 q 163 46 161 46 l 168 46 m 120 589 l 118 536 l 115 619 l 120 589 m 669 363 l 634 350 l 551 358 l 474 372 l 419 374 l 330 368 l 259 366 l 173 382 q 172 422 168 405 q 187 451 175 438 q 229 465 199 463 l 304 446 l 341 443 l 429 433 l 501 425 l 530 419 l 586 408 l 637 408 l 659 403 l 655 382 l 669 363 m 647 398 l 637 401 l 586 403 l 528 414 l 456 422 l 446 416 l 424 425 l 307 441 l 243 454 l 227 441 l 216 414 l 280 406 l 378 401 l 216 401 l 184 388 l 259 374 l 330 374 l 421 380 l 472 380 l 485 380 l 546 368 l 576 374 l 594 372 l 637 382 l 629 390 q 606 393 627 391 q 558 399 584 395 q 490 406 528 401 l 639 395 l 647 398 m 604 119 q 620 118 609 119 q 642 116 630 118 q 666 110 654 115 q 685 97 677 106 q 695 75 693 88 q 690 41 697 61 l 610 31 l 543 23 l 450 15 l 359 15 l 328 7 l 272 7 l 241 7 q 213 5 227 6 q 189 1 199 5 q 185 5 187 2 q 181 15 181 9 q 184 25 183 23 q 184 28 184 27 l 195 39 l 195 46 l 201 52 q 206 55 202 54 q 217 57 210 56 q 237 58 224 58 l 345 76 l 406 87 l 448 94 l 482 94 l 538 107 q 563 112 551 109 q 585 116 574 114 q 604 119 596 117 m 652 44 q 642 45 647 45 q 634 47 638 46 q 626 50 629 48 l 549 52 l 626 68 l 645 94 l 631 102 l 624 111 q 602 109 614 110 q 581 107 593 108 q 557 102 569 106 l 533 94 l 498 84 l 448 60 l 310 46 l 437 62 l 464 79 l 446 81 l 437 81 l 403 76 l 376 71 l 347 66 q 336 62 340 64 q 328 60 332 61 q 323 58 323 58 l 304 58 l 290 58 l 241 50 l 211 50 q 212 44 212 47 q 209 36 211 41 q 201 23 206 31 l 280 31 l 201 18 l 197 9 q 218 12 206 11 q 243 13 229 12 q 275 12 257 13 l 307 15 l 325 26 l 349 20 l 357 20 l 450 20 l 551 31 l 652 44 z "},"F":{"ha":722,"x_min":54,"x_max":667,"o":"m 168 159 q 169 121 170 136 q 167 97 168 106 q 162 79 165 86 q 156 69 160 73 q 148 61 152 64 q 138 55 143 58 q 122 44 132 51 q 105 30 113 37 q 85 14 96 22 q 67 2 74 4 q 57 1 60 -1 q 54 9 54 3 q 56 22 54 15 q 75 68 60 40 q 81 93 79 78 q 84 121 83 107 q 85 153 85 136 l 89 193 q 92 201 93 196 q 89 206 91 204 q 86 246 86 230 q 87 272 86 262 q 89 290 87 283 q 91 303 90 294 q 91 320 92 311 q 89 342 90 330 q 87 369 87 349 q 86 411 87 389 q 85 466 85 436 q 87 486 85 470 q 90 521 88 503 q 94 568 92 543 q 94 585 95 573 q 92 610 94 597 q 89 642 91 625 q 79 696 85 675 q 72 718 76 709 q 69 730 70 724 q 68 739 68 735 q 67 746 67 743 l 67 771 q 86 774 77 775 q 106 772 96 774 q 127 764 116 769 q 134 762 129 762 q 144 761 138 761 q 157 762 150 761 q 182 758 174 760 q 194 751 191 755 q 199 743 198 747 l 188 683 q 184 635 186 656 q 179 599 182 614 q 173 568 176 581 l 179 450 q 183 418 182 435 q 184 387 184 401 q 184 354 184 370 q 182 316 184 333 q 178 286 180 298 q 173 258 176 271 q 170 215 171 233 q 169 184 170 197 q 168 159 168 170 m 151 72 q 159 89 156 77 q 162 115 161 98 q 160 159 163 132 l 160 211 l 146 252 l 149 294 l 160 332 l 151 395 l 155 452 l 162 373 l 177 338 l 177 377 q 176 413 177 394 q 173 448 175 432 l 168 564 q 174 610 172 588 q 178 649 176 629 q 179 683 180 669 l 190 743 q 188 745 189 744 q 182 749 184 749 l 171 740 l 166 724 l 166 688 l 160 727 l 166 751 l 146 751 q 135 753 140 751 q 127 755 131 754 q 124 760 124 757 q 108 764 115 762 q 95 765 101 765 q 85 764 89 766 l 72 746 q 72 740 71 743 q 75 729 72 734 q 81 713 78 721 q 85 699 83 707 q 89 683 87 690 l 100 617 l 102 713 l 113 648 l 116 564 l 102 494 l 102 428 l 113 452 l 111 400 q 110 397 111 399 q 104 395 109 395 q 102 393 103 394 q 100 384 100 391 q 99 370 100 376 q 97 360 98 364 q 94 356 96 356 q 96 326 95 340 q 96 304 96 315 q 94 290 96 294 q 93 256 93 272 q 93 230 93 243 q 94 211 92 216 q 98 203 96 207 q 99 196 99 200 q 96 189 100 193 q 94 168 95 178 q 93 150 94 159 q 94 138 92 142 q 89 102 92 118 q 84 78 87 89 q 81 66 82 67 q 75 54 77 60 q 70 43 72 48 q 67 33 68 37 l 72 31 q 75 29 73 28 q 81 39 79 29 l 89 58 l 94 52 l 107 61 l 124 134 l 116 83 q 117 77 116 79 q 118 68 118 70 q 124 66 121 66 q 129 68 127 66 q 132 70 130 69 q 144 68 134 71 l 151 72 l 151 72 m 667 727 q 657 721 663 724 q 643 718 652 719 q 623 721 635 718 l 505 703 q 456 690 479 695 q 416 683 437 686 q 381 683 395 680 q 361 679 370 682 q 344 674 353 677 q 330 669 336 672 l 313 659 q 304 655 309 656 q 297 653 301 654 q 289 652 293 652 l 222 652 l 210 654 q 200 659 203 655 q 196 671 197 663 q 199 696 195 680 l 214 746 q 216 749 214 747 q 228 753 218 753 l 286 760 l 347 764 l 376 764 q 414 765 395 764 q 448 767 429 766 q 480 771 466 768 l 486 773 l 563 787 q 587 791 574 792 q 616 782 599 789 q 653 753 633 774 l 650 743 l 667 727 m 642 727 q 639 731 642 728 q 633 734 637 732 q 623 738 629 736 l 599 751 l 574 751 l 515 749 l 570 753 l 588 760 l 568 779 l 489 764 l 460 760 l 425 757 l 410 751 l 390 753 l 362 753 l 355 760 l 322 757 l 289 751 l 220 746 l 212 721 l 243 710 l 278 718 l 291 732 l 330 727 l 294 727 l 278 713 l 264 705 l 239 703 l 225 707 l 222 692 l 225 676 l 250 674 l 258 665 l 280 661 l 324 683 l 333 680 q 349 684 341 682 q 366 688 357 686 q 384 692 374 690 q 411 692 397 692 q 435 694 422 693 q 458 699 448 696 l 439 699 l 420 703 l 489 707 l 505 710 l 625 729 l 642 727 m 494 455 q 510 448 503 453 q 522 438 517 444 q 530 425 527 432 l 467 419 l 439 417 l 344 408 l 315 408 l 278 404 l 243 384 l 212 376 l 222 433 l 225 452 l 243 452 l 283 452 q 291 453 284 452 q 304 455 297 454 q 324 458 313 456 q 343 457 328 458 q 378 455 359 456 q 425 452 399 454 q 459 453 446 452 q 480 454 473 453 q 494 455 489 454 m 513 431 l 505 437 l 500 444 l 494 450 l 431 444 l 423 441 l 412 444 l 376 441 l 357 448 l 368 448 l 315 450 l 302 448 q 273 446 286 446 q 253 445 262 445 q 243 444 244 444 q 236 446 241 444 q 231 448 233 446 l 231 437 l 233 433 l 237 419 l 233 400 l 248 406 l 250 397 l 275 408 l 315 417 l 338 417 l 322 422 l 313 437 l 324 425 l 357 417 l 410 422 l 437 422 l 513 431 z "},"G":{"ha":846,"x_min":54,"x_max":792,"o":"m 154 110 l 161 79 l 154 47 q 121 20 138 26 q 106 17 114 17 q 89 21 98 16 q 72 35 81 25 q 54 63 63 45 l 63 79 l 54 131 l 65 150 l 65 186 q 60 199 62 191 q 54 248 56 214 l 54 329 q 61 347 58 339 q 66 361 64 355 q 68 368 68 367 l 71 420 l 71 488 q 67 515 69 503 q 64 536 66 526 q 63 553 63 547 q 62 568 62 561 q 62 581 62 574 q 63 590 62 587 q 58 622 60 607 q 56 647 57 635 q 54 666 54 660 l 54 722 q 98 751 77 743 q 116 755 106 754 q 134 754 125 757 q 151 744 143 751 q 165 722 159 736 l 165 646 l 161 644 l 149 590 l 149 550 l 154 506 l 157 488 l 157 446 l 157 412 q 159 385 159 397 q 159 366 160 375 q 154 355 158 357 q 151 335 152 347 q 149 312 149 326 q 149 281 148 298 q 150 254 150 264 q 150 239 150 244 q 149 229 150 232 l 157 193 l 161 136 l 154 110 m 147 113 l 154 140 l 151 191 l 144 233 l 144 253 l 141 233 l 147 203 l 130 239 l 121 311 l 117 389 l 115 374 l 115 210 l 113 220 l 113 366 l 101 382 l 97 511 l 101 542 l 94 608 l 99 602 l 101 571 l 109 542 l 113 402 l 125 399 l 144 277 l 147 355 l 149 357 q 150 362 149 359 q 151 366 151 366 l 151 486 l 151 490 l 147 480 l 147 372 l 141 501 l 141 590 l 154 663 l 151 628 l 157 650 l 157 720 l 147 710 l 127 714 l 121 674 l 101 621 l 101 688 l 109 712 l 91 710 l 68 710 l 63 720 l 63 661 l 65 626 l 75 597 l 75 555 l 73 582 l 68 588 q 69 558 67 574 q 73 529 71 543 q 79 498 75 513 q 82 460 82 483 q 80 416 81 437 q 75 366 78 392 l 65 332 l 71 337 l 79 378 l 81 347 l 79 329 l 83 311 l 83 288 l 75 225 l 79 300 l 71 323 l 65 303 l 65 243 l 63 239 l 65 222 l 71 188 l 73 147 l 71 144 l 73 136 l 63 131 l 68 79 l 65 66 l 73 74 l 81 60 l 97 53 l 109 71 l 115 142 l 123 74 l 113 41 l 127 41 l 147 55 l 149 53 l 157 79 l 147 113 m 159 50 q 170 57 163 54 q 184 61 175 60 q 209 60 194 62 l 347 84 q 401 96 374 91 q 449 105 425 101 q 490 107 473 109 q 514 113 503 110 q 534 118 524 115 q 549 125 544 121 l 565 133 q 575 137 570 135 q 586 140 580 138 q 597 142 591 142 l 673 144 l 688 144 q 699 140 694 144 q 704 130 702 137 q 704 107 707 122 l 688 63 q 686 58 688 60 q 675 53 684 53 l 608 45 l 537 37 l 501 37 q 458 33 479 36 q 419 29 439 31 q 381 24 398 26 l 373 24 l 285 5 q 256 0 273 0 q 223 6 243 0 q 177 29 203 12 l 180 39 l 159 50 m 187 53 q 193 50 189 52 q 211 45 199 45 l 239 35 l 269 37 l 336 41 l 271 31 l 253 27 l 279 11 l 371 29 l 401 35 l 444 39 l 462 45 l 486 41 l 515 45 l 527 41 l 563 47 l 602 53 l 680 60 l 691 84 l 652 92 l 613 81 l 597 69 l 553 71 l 594 74 l 610 87 l 628 97 l 654 100 l 673 97 l 675 110 l 673 123 l 641 123 l 628 131 l 605 133 l 555 113 l 547 115 q 528 109 538 111 q 508 104 519 106 q 488 102 498 102 q 455 98 471 100 q 427 95 441 97 q 401 90 412 92 l 426 90 l 446 90 l 366 81 l 347 76 l 209 53 l 187 53 m 701 9 l 709 60 l 711 87 l 726 183 l 726 237 l 728 248 q 743 275 734 264 q 762 289 750 284 q 792 288 774 294 q 787 270 790 279 q 780 227 783 252 l 777 191 q 781 157 779 174 q 783 128 782 142 q 784 105 784 113 l 777 37 l 780 -33 l 777 -83 l 758 -67 l 751 -50 l 736 -43 l 701 9 m 711 24 l 726 19 l 730 37 l 730 50 l 738 37 l 732 5 l 744 -13 l 751 27 l 746 79 l 758 29 l 756 -29 l 764 -39 l 774 -41 l 774 -31 l 770 37 l 777 107 l 777 125 l 774 121 l 772 186 l 772 191 l 772 229 l 780 271 q 774 272 777 272 q 769 271 771 271 q 764 269 766 270 l 762 239 l 754 263 l 746 253 l 754 225 l 746 152 l 746 220 l 738 248 l 736 248 l 732 243 l 732 180 l 714 71 l 711 24 m 746 303 l 736 281 q 718 277 728 280 q 697 267 709 273 q 668 251 684 261 l 620 237 q 559 238 595 239 q 484 235 529 237 q 378 225 439 232 l 359 237 l 389 308 q 412 300 399 302 q 437 296 422 297 q 469 300 452 296 l 513 298 q 519 298 516 298 q 529 303 526 300 l 677 311 l 728 323 l 746 303 m 665 256 q 689 272 678 265 q 709 281 701 278 q 728 288 720 286 l 718 290 l 670 288 l 652 273 l 665 292 l 711 300 l 722 315 l 677 303 l 535 298 l 539 290 l 618 288 l 557 286 l 513 286 l 490 292 l 472 296 q 441 290 455 290 q 415 292 427 290 q 391 298 402 294 l 386 286 l 393 271 l 438 266 l 393 263 l 381 233 l 444 237 l 464 243 l 501 245 l 501 243 l 539 248 l 571 251 l 587 248 l 608 248 l 623 243 l 665 256 l 665 256 m 711 702 l 722 681 l 714 626 l 691 636 l 644 668 q 612 672 627 670 q 586 675 599 673 q 568 678 574 677 q 551 682 563 680 q 527 684 540 683 q 505 686 515 685 q 493 686 495 686 l 464 688 l 419 692 l 417 692 l 401 696 l 343 702 l 336 704 l 292 714 l 287 720 l 237 728 l 195 730 q 165 741 178 734 q 150 759 155 747 q 154 788 144 770 l 195 783 l 247 783 l 279 783 l 313 785 l 323 774 l 357 770 l 433 772 q 467 762 449 767 q 503 754 483 758 q 547 747 524 749 l 574 752 l 579 752 l 597 757 l 728 744 l 732 712 l 711 702 m 709 640 l 691 684 l 675 696 l 574 712 l 699 728 l 718 739 l 631 747 l 618 739 l 602 749 l 597 749 q 590 746 593 747 q 585 745 587 745 q 579 744 582 744 l 568 744 l 547 739 q 522 742 535 739 q 496 747 508 745 q 469 754 483 750 l 430 767 l 381 764 l 422 759 l 464 747 l 511 720 l 452 744 l 426 752 l 393 757 l 363 757 l 321 764 l 273 754 l 305 778 l 281 774 l 265 774 l 245 774 l 217 774 l 159 780 l 170 764 l 227 764 l 170 759 l 183 752 l 199 739 l 239 736 l 292 726 l 295 722 l 323 714 l 349 707 l 383 704 l 371 710 l 399 714 l 368 733 l 300 744 l 371 739 l 415 722 l 426 710 l 454 702 l 479 700 l 515 700 l 498 694 q 516 692 503 694 q 542 690 529 691 q 574 686 557 688 q 589 682 577 684 q 613 678 600 680 q 646 674 628 675 l 696 644 l 709 640 z "},"H":{"ha":806,"x_min":54,"x_max":751,"o":"m 180 577 l 177 460 l 177 339 l 175 254 l 180 205 l 175 189 l 172 90 l 177 29 q 168 12 173 18 q 157 4 163 6 q 142 11 151 3 l 128 7 q 118 4 123 5 q 113 3 114 3 q 108 3 112 3 q 100 5 104 3 q 89 7 94 6 l 76 7 l 64 14 l 54 24 l 60 34 l 58 42 l 58 58 l 54 83 l 62 144 l 62 179 l 62 192 l 64 245 l 73 270 l 71 339 q 71 368 70 355 q 73 392 71 380 q 79 412 75 404 q 78 434 78 423 q 77 452 77 443 q 76 465 77 460 q 74 478 73 469 q 76 486 75 481 l 81 537 l 86 587 l 86 620 l 84 641 l 86 691 l 84 694 l 79 742 l 92 753 l 113 747 l 127 753 l 153 753 q 168 749 161 752 q 179 740 174 745 q 185 726 184 735 l 188 686 q 182 653 185 669 q 176 626 180 640 q 170 606 173 613 l 180 577 m 175 577 l 163 604 l 175 646 l 180 686 l 180 697 l 175 707 l 166 742 l 158 745 l 153 742 l 148 719 l 142 739 l 129 745 l 121 732 l 115 713 l 105 726 q 101 704 102 717 q 100 680 100 691 q 99 651 99 666 l 92 643 l 92 633 l 94 620 l 89 544 l 84 494 l 81 468 l 86 432 l 89 425 l 89 414 l 84 406 l 79 392 l 89 377 l 89 363 l 97 355 l 94 296 l 89 323 l 76 328 l 79 270 l 76 264 l 79 232 l 73 184 l 71 161 l 62 77 l 68 66 l 76 98 l 86 120 l 76 96 l 76 72 l 92 21 l 92 14 l 113 11 l 119 27 l 129 37 l 145 58 l 150 149 l 158 34 l 170 37 l 166 90 l 166 189 l 172 205 l 166 248 l 170 328 l 161 237 l 150 256 l 148 283 l 161 296 q 160 331 162 313 q 155 363 158 349 q 148 397 153 381 l 135 418 l 140 582 l 145 456 l 163 366 l 170 406 l 163 475 l 155 494 l 158 507 l 170 517 l 170 534 l 175 544 l 175 577 m 527 416 q 577 413 557 419 q 593 406 586 410 q 606 393 601 401 q 611 374 610 385 q 607 347 612 363 l 436 339 l 361 345 l 332 339 l 283 341 q 246 344 263 342 q 218 345 232 345 q 201 341 205 345 q 196 345 199 342 q 193 353 191 349 l 196 369 l 210 379 l 210 387 l 212 392 l 222 397 l 252 395 l 434 408 l 465 408 l 527 416 m 511 366 l 568 374 l 581 395 l 572 404 l 568 408 q 552 410 560 410 q 536 410 543 410 q 518 408 527 409 l 500 404 l 479 397 l 436 379 l 321 379 l 431 384 l 452 395 l 436 397 l 399 397 l 380 392 l 356 395 l 332 387 l 317 387 l 302 390 l 252 387 l 226 390 q 223 377 226 382 q 218 368 221 372 q 212 361 216 364 l 292 363 l 210 357 l 210 353 q 227 353 213 354 q 255 351 240 352 q 292 347 273 349 l 317 349 l 332 355 l 356 349 l 364 353 l 439 347 l 581 353 l 568 357 l 511 366 m 749 72 q 747 38 751 54 q 733 13 744 24 q 698 -1 722 1 l 669 11 q 658 3 663 5 q 648 4 653 2 q 639 16 643 5 l 631 34 q 632 54 631 44 q 633 73 633 63 q 633 90 633 83 q 633 119 633 105 q 632 145 632 132 q 631 171 632 159 l 625 232 l 621 254 l 623 304 l 621 339 l 617 400 l 612 468 l 612 534 l 607 587 l 602 635 l 612 659 l 602 694 l 594 732 l 594 750 q 606 762 599 755 q 623 774 612 767 q 647 788 633 781 l 659 780 l 673 788 q 677 778 675 785 q 678 764 678 772 q 677 742 678 755 l 687 628 l 687 600 q 692 576 690 587 q 696 555 694 566 q 698 539 698 545 l 698 511 q 698 491 698 500 q 700 481 699 481 q 703 473 701 480 q 707 456 705 468 q 711 422 709 444 l 716 331 l 724 301 l 732 243 l 732 227 l 741 155 l 749 110 l 749 72 m 738 56 q 741 68 741 64 q 741 72 741 71 l 741 104 l 734 139 l 724 227 l 724 240 l 720 280 l 706 301 l 700 347 q 695 355 698 349 q 689 368 692 361 q 682 384 686 375 l 669 523 l 687 390 l 695 371 l 703 374 l 700 397 q 693 429 692 418 q 693 440 694 440 q 694 446 692 440 q 698 452 696 448 q 698 463 699 458 q 697 470 698 467 q 695 475 696 473 q 691 488 692 478 q 691 510 690 498 q 693 539 692 523 l 682 600 l 673 684 l 671 745 l 671 768 l 661 764 l 652 766 l 647 755 l 629 753 l 623 742 l 633 678 l 617 739 l 609 745 l 604 739 l 602 742 l 602 732 l 607 697 l 617 663 l 617 656 l 623 646 l 617 620 l 615 612 l 612 604 l 617 550 l 621 494 l 623 408 l 625 377 l 631 412 l 633 483 l 647 369 l 642 392 l 633 395 l 644 267 l 644 176 l 639 293 l 629 264 l 625 254 l 633 232 l 639 110 l 639 42 l 647 45 l 650 50 l 659 125 l 663 54 l 673 40 l 687 29 l 700 27 l 708 70 l 700 201 l 711 66 l 711 48 l 716 29 l 738 56 m 647 614 l 650 534 l 644 585 l 647 614 z "},"I":{"ha":326,"x_min":55,"x_max":271,"o":"m 269 758 q 268 751 269 754 q 258 744 266 746 q 245 738 253 741 q 229 732 239 735 q 203 728 218 730 l 180 726 l 145 718 l 94 713 q 79 711 85 711 q 70 713 74 711 q 65 721 65 715 l 68 726 l 65 726 l 56 741 q 55 746 55 743 q 55 750 55 748 q 59 755 56 752 l 83 772 l 106 772 l 112 770 q 123 772 117 770 q 134 774 127 773 q 145 779 140 776 l 251 791 l 267 788 l 269 758 m 227 739 q 241 744 235 741 q 252 748 247 746 q 258 751 256 750 l 251 762 l 258 774 l 251 781 l 222 772 l 192 758 l 163 762 l 192 768 l 219 779 l 148 772 l 115 765 l 106 765 l 86 765 l 89 755 l 73 739 l 83 730 l 122 736 l 80 723 l 75 715 q 81 715 78 715 q 89 718 86 715 l 124 723 l 143 726 l 169 730 l 203 736 l 216 739 l 227 739 l 227 739 m 59 78 l 77 83 l 182 69 q 193 66 188 67 q 203 64 198 65 q 213 62 208 62 l 219 62 l 243 62 l 267 45 q 271 37 271 41 q 269 33 271 35 l 264 18 l 262 15 l 264 12 q 259 4 264 6 q 248 1 254 1 q 231 1 240 0 l 182 10 l 148 15 l 122 18 q 81 28 94 22 q 68 33 74 31 q 58 43 60 36 q 56 48 56 45 l 59 78 m 70 43 q 75 39 71 41 q 85 35 79 37 q 98 31 91 33 l 110 31 l 122 24 l 157 20 l 182 18 l 201 15 l 237 6 l 251 6 l 248 12 l 203 27 l 245 22 l 256 27 l 237 45 l 240 57 l 219 54 l 213 54 l 180 64 l 106 69 l 133 57 l 163 54 l 136 48 l 103 62 l 75 69 l 70 64 l 77 54 l 70 43 l 70 43 m 180 370 q 179 363 180 369 q 178 349 179 357 q 177 331 178 341 q 176 349 176 341 q 176 362 176 356 q 177 368 176 368 q 177 373 177 369 q 178 381 178 376 l 180 393 l 180 370 m 208 119 q 207 106 208 112 q 203 96 205 100 q 196 92 201 92 l 148 87 q 140 87 143 86 q 135 92 137 89 q 133 104 133 96 l 133 153 l 136 192 l 136 263 l 133 316 l 130 354 l 130 378 l 133 386 q 135 416 134 400 q 136 446 136 429 q 136 482 136 463 l 133 553 l 130 611 l 133 665 l 133 681 q 133 695 130 688 q 141 708 135 701 q 163 718 148 714 q 183 720 174 720 q 197 718 191 720 q 203 707 203 715 l 198 661 l 203 593 l 203 514 l 203 473 q 203 467 203 469 q 202 462 202 464 q 201 459 202 460 q 199 454 199 457 q 197 449 198 452 q 198 440 197 446 l 203 428 q 205 414 205 421 q 203 378 207 399 q 201 361 202 368 q 201 351 201 355 q 201 345 200 347 l 203 298 l 205 237 l 203 174 l 205 145 l 208 119 l 208 119 m 201 130 l 198 148 l 198 219 l 192 245 l 198 263 l 196 284 l 192 298 l 192 307 l 190 321 l 196 336 l 196 357 l 198 386 l 198 414 l 190 452 l 192 454 l 190 464 q 191 469 190 466 q 192 485 192 475 l 190 511 q 189 523 189 517 q 189 532 189 528 q 187 538 189 536 l 184 555 l 184 616 l 190 576 l 192 543 l 196 532 l 198 580 l 196 627 l 192 661 l 192 676 l 187 655 l 187 686 q 187 691 188 688 q 180 702 186 696 l 166 707 l 166 653 l 163 684 l 161 692 q 161 695 162 694 q 148 686 158 696 l 140 681 l 140 665 l 138 618 l 143 597 l 143 529 l 140 526 l 143 493 l 154 477 l 151 422 l 157 391 l 157 389 l 148 393 l 143 378 l 151 292 l 148 263 l 148 302 l 145 321 l 143 328 l 140 331 l 143 281 l 143 233 l 143 224 l 143 187 l 140 181 l 140 155 l 140 132 q 139 117 139 124 q 139 107 138 112 q 140 101 139 102 l 148 109 q 153 111 150 109 q 161 125 157 115 q 166 152 164 138 q 169 176 168 163 q 169 200 170 189 l 177 116 l 184 116 l 198 116 l 201 130 z "},"J":{"ha":619,"x_min":54,"x_max":566,"o":"m 529 775 q 547 764 540 770 q 559 752 554 758 q 562 740 564 746 l 553 720 l 551 718 l 553 713 q 551 703 554 707 q 541 699 549 700 q 518 702 534 697 l 466 707 l 416 713 l 395 715 q 362 720 378 718 q 334 727 349 723 q 309 737 319 730 q 304 741 307 739 q 300 750 300 745 l 300 786 l 323 792 l 452 781 q 471 776 463 779 q 487 772 479 774 q 499 772 495 771 l 529 775 l 529 775 m 483 731 l 532 726 l 543 735 q 531 747 538 741 q 523 753 528 749 l 527 768 l 499 764 q 485 764 493 762 q 469 768 477 766 q 452 775 461 771 l 395 779 l 362 779 l 391 764 l 430 762 q 418 758 423 760 q 408 755 412 756 q 397 753 402 753 l 356 770 l 323 779 l 314 772 l 323 756 l 314 742 q 323 738 317 740 q 336 734 330 736 q 351 731 343 732 l 367 729 l 387 724 l 419 720 l 452 718 l 521 709 q 534 706 528 706 q 541 707 537 706 l 538 713 l 527 718 l 483 731 m 562 121 q 564 98 566 106 q 555 86 561 90 q 541 80 549 81 q 527 78 537 79 q 505 77 517 77 q 477 77 492 77 q 466 85 469 77 q 463 102 463 92 q 466 127 463 113 l 466 161 l 466 242 l 466 300 q 463 321 465 311 q 461 338 462 330 q 461 349 461 345 q 462 359 461 356 q 463 363 463 361 q 465 366 465 364 q 465 370 465 368 q 466 376 465 373 l 469 426 l 466 507 l 461 585 l 466 638 l 463 654 q 464 669 460 663 q 472 679 467 675 q 486 684 477 682 q 497 688 490 686 q 511 691 504 690 q 529 693 519 692 q 549 690 543 693 q 556 684 555 688 q 556 676 558 681 l 553 632 l 560 566 l 560 531 l 560 454 q 560 447 560 452 q 553 437 560 443 q 553 423 550 432 q 556 415 554 419 q 558 409 557 413 q 561 401 559 405 q 562 393 562 397 l 562 376 l 556 327 l 560 289 q 561 250 560 267 q 562 221 562 234 q 562 205 562 208 l 562 161 q 561 147 561 154 q 562 134 562 140 q 562 121 562 127 m 556 124 l 553 161 l 553 201 l 551 205 l 545 232 l 551 244 l 551 264 l 545 280 l 545 297 l 543 302 q 545 313 544 308 q 548 320 547 317 q 549 324 549 323 l 549 333 l 553 370 l 553 396 l 551 404 l 543 429 l 545 432 l 541 442 l 545 456 l 545 465 l 543 489 l 538 515 l 534 547 l 538 592 l 543 553 l 545 522 l 551 509 l 551 544 l 551 570 l 545 630 l 549 651 l 538 630 l 541 663 l 538 667 q 535 670 537 668 q 532 673 534 672 l 509 680 l 509 627 l 507 646 l 505 660 l 500 669 q 495 667 498 669 q 490 665 492 666 q 486 660 487 663 q 481 658 484 659 q 476 656 479 656 q 472 654 473 655 l 472 638 l 469 594 l 477 572 l 477 509 l 472 503 l 475 473 l 490 456 l 488 404 l 494 370 l 483 376 l 477 357 l 477 333 l 488 275 l 483 244 l 483 286 l 479 302 l 477 313 l 472 316 l 475 300 l 475 223 l 477 220 l 477 201 l 477 172 l 475 168 l 472 151 l 472 129 q 471 112 471 119 q 470 99 470 105 q 472 91 471 92 q 477 96 474 93 q 494 102 482 100 q 505 117 500 106 q 511 143 508 127 q 512 187 513 160 l 523 107 l 534 104 l 553 107 l 556 124 m 527 374 l 529 352 l 523 313 l 521 349 l 527 374 m 549 41 l 551 30 q 508 6 528 12 q 475 0 489 0 q 446 5 459 0 l 387 16 l 378 16 q 340 23 361 20 q 302 27 320 26 q 259 30 280 29 l 224 30 l 155 41 l 90 47 q 81 49 84 47 q 76 53 78 51 q 73 58 73 56 l 59 102 q 55 125 54 117 q 59 136 56 133 q 70 140 62 140 l 87 140 l 160 137 q 169 135 164 136 q 178 132 174 134 q 189 129 183 130 l 208 121 q 222 114 213 117 q 241 109 232 111 q 265 104 253 106 q 306 101 281 104 q 352 92 330 97 q 406 80 378 87 l 518 60 q 541 61 532 62 q 555 58 550 60 q 565 52 562 56 l 549 41 m 518 55 l 408 71 l 389 74 l 309 82 l 331 85 l 353 82 q 327 89 342 86 q 299 93 313 92 q 268 96 283 95 q 229 104 246 99 q 210 111 219 107 l 201 107 l 153 129 l 127 127 l 116 118 l 87 118 l 83 104 l 87 94 l 102 94 l 131 91 l 149 82 l 167 68 l 208 66 l 164 62 l 147 77 l 109 88 l 73 80 l 83 55 l 158 47 l 199 41 l 232 38 l 245 38 l 274 38 l 298 38 l 314 34 l 356 30 l 387 25 l 452 12 l 477 30 l 457 35 l 419 35 l 461 38 l 490 35 l 518 47 q 535 52 529 47 q 541 55 538 54 l 518 55 z "},"K":{"ha":763,"x_min":54,"x_max":709,"o":"m 660 767 q 654 758 659 763 q 644 747 651 753 q 623 736 636 741 l 534 660 q 492 621 512 639 q 455 590 474 606 q 420 566 435 574 q 403 549 410 557 q 390 534 396 542 q 380 519 383 526 l 370 503 l 362 496 q 355 489 359 492 q 345 482 351 486 l 283 439 l 268 432 q 258 429 263 427 q 248 436 253 430 q 237 458 242 441 l 226 503 q 227 509 225 507 q 230 514 228 512 q 237 519 232 517 l 291 563 l 345 607 l 378 625 q 413 650 395 637 q 445 674 428 661 q 475 697 461 686 l 479 703 l 531 746 q 551 766 538 758 q 582 778 562 773 q 633 782 602 783 l 635 767 l 660 767 m 635 753 q 630 753 633 754 q 622 751 627 753 q 611 746 618 750 l 583 743 l 558 724 l 520 705 l 555 727 l 570 741 l 536 743 l 485 697 l 460 679 l 425 652 l 415 638 l 394 628 l 370 609 l 356 607 l 330 585 l 296 557 l 235 511 l 237 484 l 273 498 l 304 526 l 310 544 l 351 568 l 315 542 l 308 523 l 296 507 l 275 488 l 256 479 l 262 469 l 273 462 l 296 474 l 313 474 l 335 484 l 366 528 l 378 531 q 390 546 383 538 q 403 560 395 553 q 420 573 410 567 q 446 593 433 583 q 468 611 456 602 q 488 631 479 621 l 469 617 l 450 607 l 515 654 l 531 669 l 617 743 l 635 753 m 165 73 q 168 47 167 59 q 170 25 170 36 q 168 6 170 14 l 144 14 l 130 -2 q 104 12 117 4 q 81 27 94 18 q 58 48 68 37 l 54 76 l 74 178 l 60 211 l 62 281 l 62 345 l 62 432 l 62 533 l 62 568 l 58 609 l 62 625 l 62 713 l 58 767 q 65 781 60 776 q 75 788 69 786 q 90 784 81 789 l 111 789 q 136 785 125 789 q 154 773 146 782 q 163 746 163 764 l 165 722 l 163 638 l 165 623 l 163 573 l 160 547 l 163 488 l 163 434 q 163 421 163 427 q 161 411 162 416 q 157 404 160 406 l 165 345 l 163 313 l 160 269 l 163 192 l 165 73 l 165 73 m 163 29 q 162 40 163 33 q 161 54 162 47 q 160 71 161 62 l 157 78 l 155 176 l 151 267 l 155 281 l 155 302 l 157 334 l 157 345 l 151 398 q 152 410 149 406 q 155 413 153 412 q 154 425 156 418 q 151 434 153 429 q 147 440 148 437 q 146 446 146 443 q 146 453 145 449 l 146 474 l 151 490 l 151 509 l 141 509 l 136 493 l 127 353 l 127 498 l 146 531 l 144 549 l 146 571 l 155 590 l 157 623 l 155 636 l 157 697 l 157 722 l 155 743 l 155 751 l 151 753 l 133 771 l 127 757 l 130 751 l 130 654 l 127 743 l 119 771 l 105 771 l 84 753 l 87 705 q 83 726 85 716 q 79 742 81 734 q 76 753 77 749 q 70 758 74 757 q 65 759 67 759 l 70 713 l 70 625 l 62 607 l 65 596 l 76 571 l 76 669 l 84 607 l 81 568 l 79 482 l 87 488 l 90 509 l 87 396 l 79 469 l 70 503 l 68 418 l 70 342 l 70 323 l 70 261 l 79 229 l 84 199 l 79 183 l 81 181 l 62 76 l 62 59 l 68 64 l 79 57 l 87 71 l 100 159 l 109 199 l 105 286 l 109 342 l 114 235 l 109 94 l 119 100 l 121 127 l 119 46 l 124 43 l 136 33 q 139 35 137 34 q 146 38 143 38 q 150 36 147 38 q 155 33 152 35 q 163 29 159 31 m 706 46 q 708 35 709 41 q 702 25 707 31 q 684 17 698 20 l 665 17 l 658 6 l 646 3 q 632 13 640 7 q 618 24 626 18 q 604 41 611 31 l 545 81 l 490 119 l 439 157 l 391 192 l 364 211 l 332 240 l 291 267 l 270 281 l 243 296 q 225 310 234 302 q 209 326 218 317 q 191 345 199 334 q 178 369 182 355 q 176 397 174 383 q 185 425 177 412 q 210 448 193 437 l 324 363 l 431 283 l 513 202 l 553 181 l 609 129 q 650 90 631 108 q 683 62 667 75 q 706 46 699 49 m 690 46 q 669 63 683 50 q 640 89 654 75 q 604 123 623 104 l 570 154 l 539 162 l 515 194 l 507 197 l 490 216 l 420 281 l 410 288 l 343 340 l 304 369 l 237 418 l 208 402 l 291 317 l 203 391 l 205 367 l 203 353 l 197 351 q 208 337 201 345 q 222 323 215 330 q 240 309 231 316 l 260 296 l 294 281 l 326 261 l 391 243 l 534 127 l 396 229 l 361 238 l 384 211 l 418 183 l 445 168 l 479 142 l 513 127 l 531 113 l 545 98 l 589 62 l 591 57 l 609 48 l 639 17 q 645 26 640 22 q 658 33 651 31 q 675 38 665 36 l 583 111 l 681 41 l 690 46 z "},"L":{"ha":673,"x_min":54,"x_max":618,"o":"m 159 690 l 164 600 l 161 546 l 159 419 l 153 402 q 152 397 152 399 q 153 382 151 392 q 158 366 155 375 q 161 346 159 357 q 161 320 163 334 l 157 272 l 157 214 l 157 154 l 157 100 q 155 80 156 90 q 155 63 155 72 q 157 47 155 54 l 159 30 q 157 16 159 22 q 152 6 156 11 q 139 1 147 2 l 85 -1 q 77 0 80 -3 q 71 6 73 1 q 71 21 69 12 q 72 53 71 39 q 72 76 73 65 q 71 89 72 86 l 71 154 l 71 214 q 68 243 69 229 q 65 268 66 256 q 63 286 64 279 q 64 306 63 297 q 68 320 66 314 l 68 413 l 65 492 l 60 600 l 57 617 l 60 682 l 60 726 q 57 747 54 736 q 67 767 58 757 q 98 784 77 777 q 131 789 117 789 q 154 786 143 790 q 164 770 164 783 q 163 746 164 757 q 161 727 163 735 q 159 710 160 718 l 159 690 m 157 583 l 153 650 l 151 693 l 153 724 l 142 687 l 142 739 q 141 746 142 743 q 138 753 140 749 q 130 761 136 757 l 111 770 l 111 682 l 107 710 q 106 720 107 714 q 105 730 106 724 q 102 744 104 736 q 98 750 100 748 q 94 750 97 751 q 87 742 92 749 l 81 732 l 65 726 l 68 699 l 65 633 l 74 594 l 77 502 l 74 496 l 74 456 l 91 428 l 91 363 l 96 318 l 85 326 l 79 303 l 91 208 l 85 174 l 85 214 l 81 239 l 79 250 l 74 253 l 77 236 l 79 148 l 81 142 l 81 95 l 79 89 q 78 53 78 69 q 78 26 78 39 q 79 10 77 14 q 84 16 81 13 q 90 19 87 18 q 96 21 92 21 q 105 37 101 26 q 112 63 109 46 q 113 109 115 80 l 122 30 l 133 24 l 146 27 l 151 38 q 148 63 149 49 q 148 92 147 75 q 151 129 148 109 l 142 157 q 146 169 144 163 q 149 180 147 174 q 151 193 151 186 l 144 210 l 142 239 l 146 261 l 151 298 q 153 320 152 309 q 153 341 153 330 q 151 363 153 352 l 144 394 l 144 399 l 142 411 q 144 418 142 414 q 146 425 145 421 q 146 433 146 429 l 142 485 l 139 518 l 136 571 l 139 629 l 146 569 l 146 524 l 153 502 l 157 583 m 127 326 l 130 294 l 122 250 l 122 294 l 127 326 m 618 38 q 617 31 618 33 q 615 26 616 28 q 610 24 614 24 l 551 10 q 531 9 540 9 q 516 9 524 9 q 505 13 509 10 q 488 18 497 16 q 469 22 479 20 q 447 24 458 24 q 425 21 436 22 q 405 19 416 20 q 387 19 395 19 l 358 19 q 336 19 347 19 q 319 21 325 20 l 215 16 q 197 10 205 12 q 183 8 190 9 q 175 13 177 8 l 173 33 l 173 43 q 173 54 172 49 q 175 62 174 58 q 181 72 177 67 q 196 81 186 75 q 216 91 205 86 q 240 97 227 95 q 266 98 253 100 l 328 98 q 353 98 338 97 q 385 102 366 100 q 433 109 404 104 q 452 114 441 112 q 474 117 462 115 q 500 117 486 118 q 524 119 511 117 q 545 122 533 120 q 568 125 557 123 q 576 126 572 127 q 583 123 579 125 q 591 114 587 120 q 604 87 598 100 q 614 63 610 76 q 618 38 618 50 m 480 81 l 517 92 l 531 81 l 566 78 q 571 80 567 78 q 581 85 575 82 q 593 92 587 87 l 580 120 q 549 115 564 117 q 524 112 537 113 q 503 112 511 111 q 481 111 492 112 q 461 109 471 111 q 444 103 451 107 l 460 106 l 444 100 l 419 95 l 397 92 l 387 95 l 342 89 l 263 86 l 245 60 l 266 58 l 305 69 l 266 52 l 237 50 l 215 30 q 206 25 210 28 q 200 21 203 23 q 198 19 198 20 q 205 20 202 19 q 211 21 209 20 q 215 21 214 21 l 319 27 l 330 27 l 404 38 l 384 30 l 359 24 q 368 23 360 24 q 388 23 376 23 q 414 25 400 24 q 439 30 427 26 q 451 31 444 31 q 466 31 457 31 q 486 27 475 30 l 494 33 l 539 21 l 557 30 l 566 41 l 588 47 l 588 60 l 583 78 l 571 72 l 551 69 q 542 71 547 68 q 531 75 538 72 q 517 86 525 79 l 480 81 z "},"M":{"ha":862,"x_min":54,"x_max":808,"o":"m 214 702 q 216 684 216 695 q 216 659 217 674 q 210 619 214 643 q 209 593 210 608 q 208 562 208 581 q 208 517 208 543 q 211 489 210 505 q 212 458 212 475 q 210 420 212 440 q 208 386 210 404 q 203 354 206 371 q 197 324 201 338 l 182 201 q 186 170 184 187 q 187 132 187 154 q 185 82 187 110 l 191 22 q 186 12 191 16 q 174 6 182 9 q 148 5 165 3 q 134 6 140 5 q 114 5 121 7 q 92 1 103 2 q 73 0 83 -1 q 54 5 62 1 l 54 31 q 56 39 54 35 q 58 47 57 42 q 63 59 60 52 q 73 80 68 68 q 80 104 76 90 q 86 136 84 118 q 93 168 90 153 q 98 193 96 180 q 100 210 100 205 l 100 313 q 104 369 102 343 q 106 391 105 380 q 109 412 108 402 q 112 429 111 421 q 114 439 113 436 q 117 461 116 451 q 119 478 119 470 q 117 492 119 487 q 117 511 116 498 q 119 537 117 521 q 124 578 120 554 q 128 583 126 580 q 128 593 132 587 l 128 631 q 129 665 129 648 q 127 693 129 678 q 122 718 125 708 q 107 767 111 748 q 106 781 106 775 q 109 789 106 787 q 119 789 112 791 q 137 776 125 786 q 158 756 148 765 q 176 740 167 748 q 191 727 184 732 q 200 720 196 724 q 207 712 203 717 q 214 702 211 707 m 202 619 q 210 663 209 646 q 209 691 210 680 q 202 710 207 703 l 193 712 q 182 713 186 710 q 180 715 180 714 q 173 716 178 716 q 168 715 170 716 q 168 712 168 714 q 166 707 167 709 l 165 702 l 165 648 l 157 727 l 142 735 l 137 730 l 132 749 q 129 756 131 755 q 125 759 127 758 q 122 758 123 760 l 117 755 q 119 746 117 751 q 123 736 121 741 q 128 725 126 730 q 133 709 132 722 q 134 683 134 696 q 134 648 135 667 q 133 635 133 644 q 134 616 134 626 q 134 593 134 606 q 138 587 138 591 q 136 580 138 583 q 132 570 135 575 q 127 554 129 566 q 125 528 125 542 q 124 495 123 513 q 124 478 125 490 q 122 456 123 467 q 117 426 119 442 q 120 419 119 425 q 121 409 121 414 q 122 394 122 402 q 121 389 121 391 q 122 387 121 387 q 124 386 123 385 q 129 380 129 385 q 128 377 129 378 l 128 324 q 123 337 125 331 q 119 353 119 349 l 114 283 l 122 210 l 114 127 l 96 59 l 100 159 l 86 94 q 81 78 84 86 q 75 63 78 70 q 68 48 72 56 q 65 41 66 45 q 64 35 64 38 q 63 28 63 31 l 73 8 q 83 7 77 7 q 96 9 90 7 q 111 12 103 10 q 116 15 112 14 q 125 16 120 16 q 137 17 130 17 l 157 14 l 155 40 l 162 82 l 159 42 l 165 28 l 174 17 q 180 20 178 17 q 182 22 182 21 l 180 85 q 180 119 181 99 q 178 159 179 140 q 174 204 176 181 l 191 324 q 196 359 194 340 q 201 396 199 378 q 205 436 203 416 l 185 400 l 170 321 l 174 380 l 185 444 l 180 482 l 180 525 l 199 568 l 202 619 l 202 619 m 652 621 q 646 661 647 645 q 646 686 645 677 q 648 704 646 698 q 653 715 650 710 q 661 723 656 720 q 671 730 665 726 q 686 742 677 734 q 703 758 694 749 q 722 778 712 767 q 741 791 734 788 q 751 792 747 794 q 754 785 754 791 q 753 772 754 779 q 736 725 749 754 q 733 699 734 714 q 732 669 732 683 q 734 634 732 652 l 734 593 q 731 589 731 591 q 731 584 730 586 q 734 578 732 581 q 741 539 739 555 q 743 514 743 524 q 742 495 743 502 q 742 481 741 490 q 745 465 743 473 q 749 444 747 454 q 753 414 750 435 q 758 372 755 393 q 762 315 760 346 l 762 210 q 764 193 762 205 q 768 168 766 181 q 773 136 770 153 q 779 106 775 120 q 787 83 783 93 q 796 62 791 72 q 801 50 800 55 q 803 41 802 44 q 804 35 804 37 l 808 8 q 787 2 798 3 q 766 1 776 1 q 745 5 755 2 q 736 8 742 7 q 726 9 731 9 q 713 8 720 9 q 687 9 695 7 q 675 14 678 11 q 671 22 671 18 l 674 85 q 673 135 673 113 q 675 172 674 157 q 680 204 677 190 l 663 326 q 657 357 659 340 q 654 389 655 374 q 652 422 652 406 q 649 462 649 444 q 649 492 648 479 q 652 519 650 507 q 652 564 652 545 q 652 596 652 583 q 652 621 652 611 m 660 712 q 653 695 656 707 q 651 667 651 685 q 657 621 652 650 l 663 570 l 682 528 l 682 486 l 674 446 l 685 380 l 688 324 l 674 404 l 657 439 q 660 400 658 420 q 664 363 661 383 q 671 326 667 343 l 685 207 q 681 161 682 183 q 680 121 680 142 q 682 87 680 101 l 676 26 q 680 23 677 24 q 685 20 684 20 l 697 31 l 699 45 l 699 82 l 708 42 l 705 17 l 725 20 q 736 20 731 20 q 745 18 741 19 q 749 14 749 16 q 765 12 758 12 q 778 11 772 11 q 787 12 784 10 l 799 35 q 798 39 798 37 q 796 43 797 41 q 794 48 795 45 q 787 64 790 56 q 781 80 783 72 q 776 96 778 88 l 762 161 l 764 62 l 749 131 l 740 214 l 749 287 q 744 322 746 307 q 741 346 743 336 q 740 355 740 356 q 739 349 740 353 q 736 340 738 345 l 734 326 l 730 380 q 731 383 730 381 q 733 386 732 385 q 736 389 734 387 q 738 390 736 389 q 739 393 739 391 q 740 398 740 395 l 740 412 q 740 422 740 418 q 742 428 741 427 q 738 458 740 444 q 735 480 736 469 q 736 495 734 492 q 734 530 735 513 q 731 556 732 543 q 727 573 730 568 q 724 581 725 577 q 722 589 722 585 q 725 596 722 593 q 726 619 726 608 q 726 637 726 629 q 725 651 726 646 q 726 685 725 669 q 727 710 726 699 q 730 725 728 722 l 736 737 q 742 748 739 743 q 745 758 744 754 l 740 764 q 736 764 739 764 q 733 760 735 762 q 730 752 732 758 l 722 733 l 716 739 l 705 730 l 694 651 l 697 704 q 695 710 696 707 q 694 718 694 717 q 686 719 691 718 q 682 718 682 720 q 679 715 681 716 q 674 714 677 715 q 665 715 671 714 l 660 712 l 660 712 m 631 688 q 630 647 633 663 q 625 621 628 631 q 614 605 621 610 l 569 517 l 571 509 l 506 380 l 478 338 l 478 335 l 467 303 l 456 283 l 429 280 l 415 289 l 404 283 l 387 283 l 372 313 l 353 366 l 330 394 l 307 454 l 304 472 l 244 573 l 233 616 l 228 675 l 222 702 q 225 726 222 718 q 233 737 229 734 q 244 741 237 741 l 271 712 q 278 698 274 708 q 288 677 283 688 q 298 651 293 665 l 302 639 l 317 605 l 330 585 q 341 569 336 578 q 351 550 347 559 q 362 528 357 539 l 364 519 q 377 496 372 507 q 387 475 383 484 q 395 454 391 464 l 415 420 q 424 406 420 407 q 430 408 427 404 q 435 420 433 411 l 446 458 q 453 469 448 462 q 463 484 458 477 q 478 503 470 493 q 481 506 479 504 q 485 512 484 509 q 488 519 487 515 l 495 541 l 537 631 l 566 684 l 589 715 l 603 741 q 609 752 606 749 q 615 753 612 755 q 620 745 618 751 q 624 732 622 740 q 631 688 628 715 m 612 614 q 617 621 615 616 q 620 633 618 627 q 622 648 621 640 l 603 614 l 620 656 l 617 670 l 606 682 l 603 699 l 597 712 l 571 682 l 534 605 l 506 541 l 594 648 l 541 565 l 509 528 l 495 519 q 492 511 495 516 q 486 500 490 506 q 478 488 483 494 l 464 472 q 455 458 458 465 q 449 445 452 451 q 444 431 446 437 l 444 414 l 429 363 l 429 389 l 423 398 q 419 400 421 398 q 414 405 416 402 q 410 412 412 408 l 387 454 l 387 460 l 372 488 l 362 511 l 364 477 l 347 525 l 313 573 l 304 593 l 304 602 l 334 556 l 339 554 l 340 554 l 340 555 q 339 556 340 555 q 335 566 339 558 q 325 583 330 574 q 311 605 318 593 l 294 644 l 294 651 l 261 710 l 242 733 l 242 727 l 250 715 l 253 710 l 253 699 l 279 631 l 248 704 q 244 697 246 701 q 239 690 242 693 q 233 682 237 686 l 242 611 l 248 608 l 261 585 l 261 562 l 307 480 l 313 482 l 307 500 l 294 531 l 319 482 l 327 449 l 334 431 l 334 412 l 344 404 l 355 389 l 353 377 l 358 368 l 381 315 l 389 297 l 392 297 l 395 297 q 396 304 395 300 q 398 307 397 306 l 400 313 l 404 321 q 408 321 404 323 q 412 318 410 319 l 427 297 l 444 292 l 452 292 q 460 313 456 303 q 467 328 464 321 q 469 338 469 335 q 473 347 469 339 q 483 363 477 354 q 497 386 489 373 l 511 412 l 492 386 l 511 422 l 520 458 l 532 474 l 537 477 l 543 482 l 560 514 l 560 517 q 584 564 573 543 q 602 596 593 581 q 612 614 610 611 z "},"N":{"ha":777,"x_min":54,"x_max":723,"o":"m 222 668 q 224 648 224 660 q 222 619 224 637 q 215 575 220 602 q 212 548 214 564 q 210 467 210 520 q 212 439 212 454 q 211 407 212 425 q 208 368 210 389 q 203 335 206 351 q 198 305 201 321 q 191 275 195 289 l 172 163 q 174 136 174 151 q 172 64 176 110 l 174 12 q 170 5 174 7 q 159 1 167 3 q 136 2 151 0 q 125 3 130 3 q 116 2 120 3 q 108 0 111 1 q 89 -3 98 -2 q 71 -2 81 -3 q 54 2 62 -1 l 57 24 q 58 29 57 26 q 60 36 58 32 q 64 46 61 41 q 72 63 68 54 q 85 110 78 80 q 92 136 89 124 q 96 157 94 147 q 98 173 98 168 l 98 217 q 99 249 98 234 q 100 269 99 264 q 104 323 102 298 q 109 364 106 345 q 113 390 111 383 q 117 411 115 401 q 120 428 119 419 q 121 441 122 436 q 120 463 119 450 q 123 491 121 474 q 131 534 125 509 q 134 538 132 536 q 134 543 134 541 q 131 548 134 545 l 131 592 q 133 631 132 612 q 133 663 134 646 q 131 692 132 680 q 115 749 118 728 q 114 765 113 758 q 117 774 114 772 q 127 772 121 777 q 146 755 134 768 q 166 732 156 743 q 184 714 174 723 q 201 700 193 705 q 210 691 205 696 q 217 681 214 687 q 222 668 221 675 m 208 577 q 217 626 215 607 q 218 656 219 644 q 213 675 216 669 l 205 680 q 196 680 200 679 q 191 683 193 682 q 186 687 188 685 q 182 688 186 689 q 177 684 177 686 l 172 671 l 172 610 l 164 700 l 151 709 l 146 702 l 139 727 q 134 740 136 737 q 131 741 132 741 l 123 734 q 126 722 125 728 q 130 709 128 715 q 136 694 133 701 q 140 679 139 692 q 140 650 140 666 q 139 610 140 633 q 137 595 138 604 q 138 576 137 585 q 139 551 138 564 q 141 543 142 547 q 139 534 140 538 q 134 526 137 530 q 131 507 132 520 q 129 479 130 494 q 126 444 127 463 q 127 429 127 440 q 124 407 126 418 q 118 378 121 393 q 121 370 120 376 q 121 359 121 365 q 121 344 121 351 q 122 338 121 339 q 123 337 123 337 q 129 332 129 335 q 128 330 129 331 l 126 278 l 121 304 q 119 295 121 305 q 117 274 118 286 l 113 243 l 118 176 l 108 102 l 94 46 l 98 127 l 83 73 q 78 60 80 66 q 73 48 75 54 q 66 36 70 41 q 62 28 64 33 q 62 24 62 25 l 71 5 q 80 4 75 3 q 92 5 86 4 q 108 7 100 5 q 117 9 108 7 q 126 9 121 9 l 146 7 l 142 28 l 151 64 l 149 31 l 151 18 l 159 9 q 166 12 162 9 q 170 15 168 14 l 168 66 q 170 95 169 77 q 170 129 170 113 q 168 168 169 148 l 184 275 q 193 311 190 292 q 199 347 197 330 q 203 385 201 366 l 184 349 l 168 275 l 172 330 l 184 393 l 179 434 l 182 477 l 201 521 l 208 577 l 208 577 m 591 153 q 597 140 595 146 q 599 128 600 134 q 593 117 599 122 l 553 92 q 547 90 550 90 q 539 93 543 90 q 530 105 535 96 q 517 130 523 118 q 507 148 511 139 q 500 158 502 156 q 477 202 487 182 q 460 233 467 219 q 452 248 453 246 l 438 272 q 428 290 433 281 q 422 299 423 298 q 408 317 414 309 q 399 332 403 325 q 395 342 395 338 l 392 355 q 384 370 387 362 q 377 382 380 376 q 371 393 374 389 l 335 456 l 292 526 l 275 553 q 262 578 269 566 q 251 599 257 589 q 241 616 245 610 q 233 631 235 623 q 235 647 232 637 q 249 666 237 656 q 265 679 258 674 q 279 684 272 683 q 289 678 286 685 l 301 654 l 309 633 l 335 597 q 345 580 339 589 q 358 559 351 571 q 376 529 366 547 l 412 465 l 415 449 q 417 444 416 446 q 425 434 420 437 l 435 424 q 439 418 437 421 l 447 403 l 471 353 l 511 288 l 555 212 l 570 184 l 591 153 l 591 153 m 588 146 l 560 187 q 551 203 556 195 q 543 219 547 212 q 534 235 538 227 l 513 261 l 511 269 l 500 288 l 488 304 l 486 311 l 476 323 l 471 342 l 454 373 q 447 389 451 381 q 439 404 443 397 q 429 419 434 412 l 409 439 l 407 444 l 401 451 l 395 469 l 380 491 l 357 519 l 335 556 l 323 587 l 342 556 l 361 529 l 373 515 l 357 543 l 335 582 l 307 628 l 296 644 l 301 625 l 287 654 q 279 661 283 659 q 270 661 275 662 q 259 659 264 661 l 284 612 l 275 625 l 267 641 q 258 645 260 647 q 257 641 257 644 q 254 634 256 637 q 250 628 252 631 q 245 621 248 625 q 254 609 249 618 q 264 590 258 600 q 277 564 270 578 l 292 548 l 328 487 l 328 482 l 342 456 l 363 444 l 388 397 l 409 368 l 399 371 l 404 349 l 429 311 l 452 278 l 465 251 l 447 283 q 443 289 446 284 q 436 298 439 293 q 427 309 432 303 l 422 309 q 427 302 423 309 q 437 288 431 296 q 450 269 443 279 l 476 222 q 481 213 477 220 q 489 198 486 205 q 498 178 493 189 l 500 173 l 513 151 q 518 141 514 149 q 528 124 523 134 l 540 100 q 543 111 540 104 l 547 117 q 546 142 551 127 q 534 171 541 157 q 515 204 527 187 l 565 134 l 572 138 l 588 146 m 427 382 l 440 366 l 454 326 l 437 358 l 427 382 m 713 73 q 719 58 717 64 q 722 47 720 52 q 723 39 723 42 l 723 18 q 710 15 718 14 q 693 16 701 15 q 672 21 683 18 q 663 23 668 22 q 654 25 659 24 q 644 26 650 26 q 623 27 631 26 q 611 32 614 29 q 606 39 606 35 l 610 86 q 611 129 610 110 q 614 162 612 148 q 618 192 616 178 q 612 243 614 217 q 606 289 609 264 q 600 334 603 314 q 598 377 598 355 q 597 416 597 399 q 598 456 597 437 l 600 474 l 606 543 l 606 604 l 606 694 l 595 781 q 602 792 597 791 q 614 791 607 793 q 631 781 621 788 l 654 793 l 682 793 q 694 791 690 793 q 701 787 699 789 q 703 781 703 784 q 706 764 705 775 q 705 741 706 752 q 703 712 705 727 q 696 692 699 707 q 691 661 693 677 q 687 619 688 642 q 688 605 688 614 q 686 587 687 596 q 684 564 685 576 q 683 555 682 559 q 684 551 683 553 q 690 531 688 546 q 693 499 692 516 q 693 456 694 479 q 689 445 690 453 q 690 427 688 436 q 693 403 691 416 q 695 377 694 395 q 697 339 696 358 q 698 291 698 317 q 697 265 698 281 q 695 233 696 249 q 693 197 694 216 q 693 183 693 189 q 694 171 694 176 q 696 160 695 165 q 699 127 696 143 q 705 100 702 112 q 713 73 709 85 m 711 61 l 693 127 q 688 154 690 142 q 686 175 687 165 q 684 189 684 184 q 686 204 684 192 q 688 232 687 217 q 690 261 690 247 q 690 280 691 275 q 690 299 690 285 q 690 329 690 313 q 690 360 690 345 q 687 382 689 375 q 683 414 684 399 q 681 439 682 427 q 684 458 681 452 q 685 496 685 478 q 684 525 685 511 q 680 546 682 539 q 677 553 677 550 q 676 559 676 557 q 680 564 676 562 q 682 589 681 578 q 683 607 682 599 q 682 616 683 615 q 684 661 682 641 q 688 695 685 679 q 698 717 692 711 l 701 743 l 690 758 l 682 763 l 677 779 l 667 781 l 662 770 l 659 696 l 657 747 l 654 763 l 644 752 l 613 758 l 609 761 q 606 766 606 763 q 605 756 604 767 q 607 730 606 745 q 610 692 608 713 l 610 592 l 621 577 l 618 477 l 637 474 l 642 465 q 642 431 642 447 q 642 404 642 418 q 640 382 641 390 l 623 373 l 623 397 l 618 366 l 625 293 l 610 376 l 623 412 l 623 419 l 618 451 l 608 467 l 606 454 l 606 376 l 616 286 l 623 189 q 620 153 621 170 q 617 121 618 137 q 618 92 616 104 l 610 41 l 618 36 l 628 43 l 631 56 l 631 86 l 640 54 l 633 34 l 651 34 l 651 51 l 669 64 l 682 95 l 675 149 l 677 378 l 680 158 l 693 125 l 690 77 l 711 61 z "},"O":{"ha":821,"x_min":54,"x_max":767,"o":"m 642 726 l 642 659 l 601 666 l 530 692 l 456 698 l 411 695 l 248 692 l 172 695 l 83 692 q 93 709 85 701 q 110 726 99 717 q 141 745 121 736 q 172 744 153 744 q 213 745 188 744 q 271 750 237 747 q 346 760 311 755 q 375 764 360 762 q 403 767 390 766 q 426 769 416 768 q 441 770 435 770 l 515 770 l 589 776 l 669 791 l 642 726 m 598 723 l 624 763 l 657 784 l 591 768 l 578 766 l 575 758 l 535 752 l 512 758 l 452 758 q 443 760 446 758 q 441 763 441 762 l 385 758 l 309 747 l 385 752 q 366 746 377 749 q 343 741 355 743 q 321 738 332 739 q 307 737 311 736 q 296 738 302 739 q 282 736 289 738 q 266 733 275 735 l 243 741 q 192 736 211 737 q 161 736 172 736 q 141 737 148 736 l 134 726 l 128 715 l 103 700 l 168 703 l 180 710 l 154 710 l 190 718 l 200 705 l 231 705 l 248 710 l 276 718 l 325 721 l 283 713 l 266 705 l 245 700 l 243 698 q 265 698 244 698 q 312 699 286 698 l 380 700 l 441 718 l 458 741 l 448 713 l 408 703 q 419 701 412 701 q 435 703 427 701 q 456 705 445 703 l 530 698 l 566 684 l 578 682 l 581 698 l 606 692 l 598 723 m 766 98 q 766 81 767 88 q 764 68 766 74 q 758 62 762 63 q 738 58 749 60 q 716 56 728 57 q 693 57 705 56 q 684 59 688 56 q 678 66 681 61 q 677 83 675 72 q 678 110 677 96 q 679 134 679 121 q 680 157 680 147 q 680 191 680 174 q 681 218 680 204 q 680 240 681 233 q 680 270 680 256 q 681 294 680 282 q 680 313 681 306 l 675 359 l 675 385 l 677 395 l 680 407 l 680 422 l 680 497 l 680 560 l 675 633 l 675 651 l 680 705 q 678 715 679 709 q 676 725 677 720 q 675 737 675 731 q 678 750 675 743 q 689 761 682 755 q 710 770 696 767 q 734 775 724 774 q 752 773 744 776 q 762 761 760 770 l 758 710 l 758 682 q 761 655 760 667 q 763 634 762 644 q 764 618 764 624 l 764 532 l 764 491 q 763 486 764 490 q 760 479 762 483 q 757 469 758 474 l 757 456 l 758 456 q 760 448 758 453 q 763 435 762 442 q 765 421 764 429 q 764 407 766 414 l 758 345 l 762 286 l 764 240 l 764 199 l 764 160 q 765 126 764 144 q 766 98 765 109 m 758 111 q 758 132 758 117 q 758 163 758 147 q 758 202 758 180 l 751 237 q 754 245 753 239 q 756 257 755 251 q 757 273 757 264 q 755 281 755 277 q 753 289 754 285 q 751 298 751 294 q 750 305 751 301 q 749 313 750 309 q 749 321 749 317 l 753 345 q 754 362 753 351 q 755 382 754 372 q 758 407 757 395 q 758 422 758 416 q 755 435 757 429 q 753 446 754 441 q 748 467 748 459 q 749 471 748 470 l 746 484 l 751 498 q 751 517 752 505 q 748 540 749 528 q 743 568 746 553 l 741 595 l 743 656 l 749 614 l 751 575 l 757 560 l 757 636 l 751 705 l 751 726 l 743 703 l 743 733 q 743 742 745 739 q 740 748 741 746 q 735 752 737 751 l 721 761 l 721 700 l 716 718 l 713 737 q 711 745 713 744 q 707 745 709 747 q 701 741 704 744 l 695 737 l 682 730 l 685 707 l 682 659 l 690 633 l 690 557 l 685 553 l 687 519 l 701 497 l 701 438 l 705 397 l 695 404 l 690 382 l 690 357 l 698 288 l 695 255 l 695 298 l 693 318 l 690 331 l 682 334 l 687 298 l 687 224 q 690 207 689 216 q 690 189 690 197 q 690 170 690 180 l 687 161 l 685 102 l 685 69 q 686 72 684 71 q 692 77 689 74 q 703 83 696 79 q 714 106 710 90 q 720 140 718 123 q 721 184 722 161 l 730 90 l 741 87 q 745 89 742 89 q 750 90 747 89 q 757 90 753 90 l 758 111 m 184 143 q 188 130 187 136 q 186 119 189 124 q 177 113 184 114 q 149 111 162 110 q 126 115 138 111 q 108 128 115 119 q 106 134 106 131 q 104 141 105 137 q 105 148 104 144 l 105 151 q 107 158 107 155 q 107 165 108 162 q 105 172 106 169 l 98 206 l 98 252 l 96 291 l 90 352 l 86 399 q 84 406 85 403 q 79 415 82 410 q 76 424 77 419 q 74 432 75 427 q 75 441 74 437 q 77 462 76 452 q 77 478 77 470 q 75 489 77 486 q 73 517 74 504 q 70 541 71 529 q 68 557 69 552 l 60 633 q 56 654 56 645 q 57 670 54 663 q 68 677 59 677 l 111 680 q 125 678 119 681 q 136 671 131 676 q 141 654 141 666 q 140 637 140 645 q 139 626 139 631 q 141 621 140 621 q 144 609 142 620 q 146 586 145 599 q 149 553 148 571 l 152 509 l 154 459 q 156 447 155 453 q 158 436 157 441 q 161 425 159 430 q 165 404 164 414 q 166 386 167 395 q 161 370 165 376 q 161 364 161 367 q 160 359 161 361 q 161 355 160 356 l 168 345 q 168 341 168 343 q 170 334 170 337 l 175 283 l 180 243 l 182 209 l 182 174 l 184 143 m 168 172 l 177 154 l 175 181 q 175 199 176 188 q 174 221 175 210 q 172 248 174 233 l 168 286 l 164 271 l 164 245 l 161 206 l 159 245 l 157 277 l 159 295 l 159 315 q 158 328 159 322 q 155 337 157 334 q 152 345 153 341 l 154 355 q 153 360 153 357 q 153 366 153 363 q 154 372 153 369 q 157 389 157 380 q 156 408 157 399 q 152 427 155 417 q 150 436 151 431 q 148 446 149 441 q 146 456 146 451 l 141 475 l 141 497 l 144 509 l 141 527 l 138 545 q 139 551 138 547 q 140 558 139 555 l 141 568 l 136 616 l 136 644 l 131 656 l 115 656 l 105 654 l 105 580 q 98 624 102 608 q 90 646 94 639 q 81 656 86 654 q 69 660 75 656 q 63 664 66 662 l 63 661 q 62 656 62 660 q 63 648 62 652 q 65 636 64 642 l 73 593 l 75 586 q 77 575 77 582 q 78 562 77 568 q 79 547 79 555 l 79 543 l 79 527 q 83 503 81 515 q 84 481 84 491 q 83 459 84 469 l 89 459 q 90 474 90 464 q 89 495 90 484 q 86 522 87 507 l 93 494 q 91 469 92 482 q 90 444 90 456 q 90 418 90 431 l 98 402 l 101 402 l 105 407 l 105 378 l 111 329 l 98 308 l 103 283 l 105 281 l 111 220 l 105 202 l 111 172 q 115 155 116 165 q 113 143 114 149 q 120 141 115 143 q 127 138 124 140 q 136 133 132 135 q 140 135 138 132 q 141 138 141 136 l 144 172 l 152 125 l 161 128 q 169 132 167 130 q 172 138 170 135 q 172 143 172 140 l 168 172 m 134 425 l 134 404 l 128 427 l 126 461 l 134 425 m 732 402 l 735 375 l 730 331 l 728 372 l 732 402 m 672 77 l 669 75 l 654 57 l 650 39 l 630 37 l 586 39 l 528 28 l 286 17 l 190 1 l 180 1 q 148 7 161 2 q 127 22 136 12 q 120 50 118 31 q 125 73 122 62 q 132 91 127 82 q 141 106 136 100 l 255 113 l 342 106 l 434 90 l 492 87 l 646 95 l 672 77 m 642 45 q 639 47 640 46 q 634 47 635 48 q 612 47 633 47 q 565 48 591 47 l 497 50 l 627 52 l 637 62 l 606 75 l 589 75 l 566 84 l 526 77 l 497 77 l 481 79 l 431 83 l 336 101 l 254 109 l 149 101 l 186 79 l 380 64 l 269 67 l 152 54 l 154 28 l 175 20 l 182 6 l 266 20 l 271 24 l 296 31 l 327 31 l 365 37 l 355 26 l 416 28 l 444 39 l 456 31 l 526 37 l 586 45 l 630 42 l 642 45 m 248 93 l 299 98 l 345 93 l 434 79 l 352 87 q 325 81 340 83 q 292 82 311 80 q 248 93 273 83 z "},"P":{"ha":747,"x_min":54,"x_max":692,"o":"m 175 29 q 126 4 149 12 q 90 -1 107 -3 q 67 24 73 1 l 56 85 l 60 119 q 56 128 57 121 q 55 147 54 134 q 60 182 56 159 q 62 198 61 191 q 63 210 62 204 q 62 216 63 215 l 56 216 l 56 254 l 67 283 q 66 326 66 305 q 64 360 65 343 q 62 388 63 378 q 58 414 60 400 q 56 440 57 425 q 56 471 55 455 l 65 541 l 65 606 q 64 655 65 631 q 61 696 62 675 q 56 731 60 718 q 96 753 77 749 q 113 754 104 755 q 129 748 121 753 q 144 731 137 743 q 156 702 151 720 l 151 672 l 151 621 l 161 559 l 161 497 q 156 467 157 484 q 156 430 155 451 q 165 380 157 408 l 165 308 l 145 198 l 159 168 q 158 150 158 159 q 159 130 158 141 q 161 106 159 119 l 175 29 m 161 56 l 154 104 q 150 134 150 127 q 151 139 150 138 l 151 168 l 138 198 l 140 202 l 110 143 l 119 184 l 130 198 l 130 241 l 121 264 l 119 273 l 110 337 l 119 290 l 130 264 l 140 290 q 141 318 142 300 q 139 353 140 336 q 135 393 137 372 l 140 405 q 141 393 140 399 q 145 382 143 387 q 151 370 148 376 l 154 319 l 156 316 l 156 378 q 149 426 150 404 q 149 465 147 448 q 154 500 150 484 l 154 559 l 151 572 l 143 562 l 132 519 l 135 490 l 121 414 l 130 490 l 126 530 q 133 542 132 535 q 133 553 134 548 q 130 567 132 560 q 138 577 135 570 q 142 591 141 583 q 145 608 144 599 l 143 616 l 143 672 l 149 700 l 124 700 l 110 724 l 95 736 l 95 651 l 92 576 l 90 649 l 81 724 l 67 729 l 76 646 l 73 624 l 76 606 l 76 592 l 71 530 l 81 488 l 73 418 l 76 484 l 71 513 l 67 471 l 67 414 l 71 376 l 76 365 l 84 273 l 76 257 l 73 273 l 67 254 l 67 224 q 71 215 71 220 q 71 203 72 209 q 67 189 69 197 q 62 159 63 170 q 60 141 60 147 q 62 130 60 134 l 79 189 l 79 218 l 92 213 l 90 189 l 67 125 l 73 85 l 67 106 l 67 88 l 76 22 l 97 18 l 110 24 l 108 40 l 95 88 l 102 128 l 102 90 l 119 40 l 126 29 l 140 37 l 145 59 l 132 77 l 145 90 l 151 85 l 145 83 l 145 75 l 156 54 l 161 56 m 637 321 l 612 302 l 553 324 l 374 351 q 366 355 370 353 q 346 361 359 359 l 298 365 q 269 371 284 368 q 237 373 255 373 q 199 370 219 374 l 167 444 l 194 452 q 304 430 250 440 q 352 421 328 426 q 401 414 377 417 q 448 408 426 410 q 490 405 471 406 l 545 382 q 570 366 557 373 q 596 352 582 359 q 626 342 610 346 l 637 321 m 521 365 l 545 349 l 602 335 l 612 337 q 587 349 599 342 q 563 361 576 354 q 540 378 551 368 l 490 395 q 469 396 479 395 q 454 397 461 397 q 444 399 446 397 l 425 399 l 390 407 l 338 414 l 296 420 l 269 429 l 194 444 l 208 412 l 262 401 l 208 405 l 197 395 l 205 380 q 233 382 218 382 q 262 380 245 382 q 298 372 279 378 l 326 370 l 351 376 l 403 370 l 480 354 l 385 365 l 376 359 l 553 332 l 608 313 l 596 326 l 537 340 l 521 365 m 631 766 l 621 744 q 600 740 612 743 q 575 730 590 736 q 540 713 559 724 l 484 696 q 410 696 453 697 q 319 691 374 694 q 191 677 264 687 l 170 688 l 202 763 q 229 755 214 758 q 261 753 243 753 q 301 759 279 753 l 351 755 q 359 756 356 755 q 366 758 363 757 q 372 761 369 759 l 551 772 l 610 788 l 631 766 m 537 718 q 566 734 552 728 q 589 743 579 740 q 612 749 602 747 l 598 755 l 543 749 l 519 736 l 537 755 l 591 763 l 604 779 l 551 763 l 376 755 l 385 749 l 478 747 l 405 742 l 351 742 l 322 749 l 301 749 q 266 744 283 744 q 235 746 248 744 q 205 753 218 749 l 199 736 l 210 726 l 264 724 l 210 718 l 194 685 l 269 694 l 296 700 l 338 702 l 338 700 l 387 704 l 421 709 l 444 704 l 467 707 l 484 704 l 537 718 m 680 649 q 682 602 681 624 q 684 563 684 582 q 682 532 684 543 l 676 464 q 677 429 677 446 q 679 398 678 414 q 680 370 680 382 l 680 316 l 655 337 l 650 359 l 633 367 l 598 429 l 608 503 l 623 629 l 626 718 q 642 750 632 737 q 662 768 650 762 q 692 766 675 774 l 680 694 l 680 649 m 676 559 l 676 570 l 676 562 l 671 644 l 671 649 l 674 696 l 682 749 l 680 747 l 674 747 l 667 742 l 663 704 l 655 736 l 644 724 l 652 690 l 644 603 l 646 683 l 637 718 l 633 718 q 632 697 632 711 q 631 669 631 683 l 631 635 l 612 497 l 608 447 l 623 438 l 628 466 l 631 477 l 637 464 l 631 425 l 641 401 l 650 449 l 644 513 l 657 449 l 655 380 l 663 372 q 665 371 664 371 q 668 369 667 370 q 671 367 669 368 q 672 386 672 371 q 671 419 671 401 q 669 464 670 439 l 676 559 z "},"Q":{"ha":821,"x_min":54,"x_max":766,"o":"m 640 722 l 642 656 l 599 663 l 530 689 l 457 694 l 411 692 l 248 689 l 172 692 l 83 689 q 93 706 85 697 q 110 723 98 713 q 138 741 121 732 q 171 740 152 740 q 212 741 187 740 q 271 746 237 743 q 346 756 311 751 q 375 760 360 758 q 403 764 390 762 q 426 766 416 765 q 441 767 435 767 l 511 767 l 591 772 l 667 791 l 640 722 m 599 720 l 623 760 l 656 780 l 591 765 l 578 765 l 574 755 l 532 749 l 511 755 l 450 755 q 443 758 445 755 q 441 762 441 760 l 385 755 l 309 744 l 385 749 q 366 742 377 745 q 343 737 355 739 q 321 734 331 735 q 307 734 311 733 q 296 734 303 735 q 283 732 290 734 q 266 730 275 731 l 243 736 q 192 733 211 734 q 161 732 172 732 q 142 734 148 732 l 134 725 l 128 711 l 104 696 l 167 699 l 180 706 l 155 706 l 190 715 l 200 701 l 231 701 l 248 706 l 276 715 l 324 718 l 281 709 l 266 701 l 245 699 l 243 694 q 249 694 243 694 q 266 694 256 694 q 288 695 275 694 q 313 695 300 695 l 380 696 l 441 715 l 459 736 l 450 709 l 409 699 q 419 698 412 698 q 435 699 427 699 q 449 701 443 700 q 457 701 456 701 l 530 696 l 564 682 l 578 679 l 581 694 l 606 689 l 599 720 m 766 95 q 766 79 766 86 q 763 66 765 73 q 758 59 762 60 q 737 56 749 57 q 715 54 728 54 q 690 54 703 53 q 683 58 686 55 q 678 65 680 60 q 677 80 676 71 q 679 107 678 94 q 680 132 680 119 q 680 156 680 145 q 681 189 680 173 q 681 216 681 202 q 680 237 682 229 q 681 267 680 253 q 681 291 681 279 q 680 311 682 303 l 675 356 l 675 382 l 677 391 l 680 404 l 680 420 l 680 496 l 680 556 l 675 629 l 675 648 l 677 701 l 677 711 q 677 721 677 716 q 675 732 676 726 q 678 746 675 739 q 689 758 682 751 q 713 767 696 764 q 736 770 726 770 q 752 768 745 771 q 761 758 760 766 l 756 706 l 758 679 q 761 652 760 665 q 763 631 762 642 q 764 615 764 621 l 761 529 l 761 488 q 760 484 761 487 q 759 477 760 481 q 757 470 758 473 q 756 466 756 467 l 756 453 q 761 432 758 447 q 764 404 765 418 l 758 342 l 761 282 l 764 237 l 764 197 q 763 157 763 176 q 763 123 763 140 q 766 95 764 106 m 758 109 q 756 129 757 115 q 756 159 756 144 l 756 199 l 751 235 q 753 242 752 237 q 755 254 754 248 q 756 270 755 262 q 753 277 754 273 q 752 285 753 281 q 751 294 751 290 q 751 302 751 298 q 750 309 751 306 q 749 318 749 313 l 753 342 q 754 358 753 348 q 755 379 754 369 q 756 404 755 391 q 756 419 757 412 q 755 432 756 427 q 753 442 755 438 q 749 455 750 450 q 748 463 748 460 q 749 468 748 467 l 745 478 l 749 496 q 749 514 750 503 q 747 537 748 526 q 743 565 745 550 l 740 592 l 740 656 l 749 610 l 751 572 l 756 556 l 756 632 l 751 701 l 751 722 l 743 699 l 743 730 q 744 739 745 735 q 741 745 743 743 q 735 749 739 747 l 718 758 l 718 696 l 716 715 l 713 734 q 711 742 713 741 q 707 742 709 743 q 700 736 704 740 l 695 732 l 683 727 l 685 704 l 683 656 l 688 629 l 690 556 l 685 549 l 688 515 l 700 493 l 700 435 l 705 394 l 695 401 l 688 379 l 690 354 l 697 285 l 695 252 l 695 294 l 692 315 l 688 328 l 683 330 l 688 294 l 688 222 q 690 206 689 215 q 690 187 690 197 q 688 165 689 176 l 688 158 l 685 100 l 683 66 q 686 71 683 68 q 692 75 689 73 q 703 80 696 78 q 714 104 710 87 q 719 138 718 121 q 720 180 721 157 l 730 87 l 740 85 q 742 86 740 86 q 748 87 745 86 q 756 87 751 87 l 758 109 m 735 374 q 734 366 735 373 q 732 351 734 359 q 730 330 731 342 q 729 350 730 341 q 728 364 728 357 q 728 372 728 370 q 728 377 728 373 q 730 386 728 380 q 732 399 731 391 l 735 374 m 673 77 l 654 59 l 649 39 l 631 37 l 583 37 l 566 39 l 540 39 l 545 20 l 540 3 l 555 -6 l 588 -20 l 616 -24 q 624 -43 627 -35 q 615 -56 622 -50 q 593 -65 607 -62 l 502 -37 l 482 16 l 476 28 l 471 28 l 414 23 l 390 26 l 283 16 l 200 3 l 180 -1 q 148 6 160 1 q 130 20 136 12 q 122 38 123 28 q 121 56 120 47 q 142 104 124 79 l 256 113 l 338 104 l 433 90 l 492 87 l 568 92 l 647 95 l 673 77 m 642 44 l 635 47 l 497 49 l 626 52 l 637 62 l 623 66 l 604 75 l 586 75 l 564 82 l 526 77 l 497 77 l 482 80 l 431 82 l 338 100 l 252 109 l 149 100 l 185 80 l 378 62 l 264 66 l 152 54 l 155 26 l 174 16 l 183 6 q 222 12 204 9 q 250 16 237 14 q 266 18 262 18 l 269 23 l 297 28 l 327 28 l 364 37 l 357 28 l 390 34 l 411 32 l 421 32 l 444 39 l 452 34 l 473 37 l 476 37 l 484 39 l 490 34 l 490 26 q 488 21 490 24 l 487 18 l 497 -6 l 502 -12 l 502 -6 l 507 -4 l 511 -32 l 530 -39 l 588 -55 q 592 -50 589 -52 q 599 -44 596 -44 l 561 -37 l 545 -24 l 591 -37 l 608 -37 l 611 -32 l 586 -24 l 547 -12 l 532 1 l 535 11 l 532 20 l 535 34 l 530 47 l 566 47 l 586 44 l 626 41 l 642 44 m 300 97 l 345 92 l 433 80 l 350 87 l 342 85 l 324 82 l 304 82 l 248 90 l 300 97 m 185 140 q 189 127 188 133 q 186 119 189 123 q 176 113 184 115 q 149 111 162 111 q 126 115 138 112 q 109 127 115 118 q 106 132 107 130 q 105 138 106 135 q 106 146 105 142 q 107 148 106 147 q 109 149 108 148 q 109 156 110 152 q 107 163 109 160 q 104 171 106 167 l 98 204 l 96 252 l 96 288 l 91 349 l 83 397 q 83 402 83 399 q 79 412 81 407 q 77 421 77 417 q 75 429 76 425 q 76 437 75 433 q 77 458 76 449 q 77 474 77 467 q 76 486 77 482 q 73 514 75 500 q 72 537 72 526 q 71 554 71 549 l 58 629 q 54 651 54 642 q 57 666 54 659 q 68 673 60 673 l 111 677 q 127 675 120 678 q 138 668 134 673 q 142 650 143 662 q 140 633 141 641 q 140 622 140 627 q 142 617 140 617 q 144 605 143 616 q 146 582 145 595 q 149 549 148 567 l 152 506 l 155 456 q 156 444 155 450 q 159 422 157 433 q 163 401 162 412 q 164 382 165 391 q 159 366 163 372 l 159 354 l 167 342 q 168 338 168 340 q 170 330 170 334 l 174 280 l 180 241 l 180 209 l 180 171 l 185 140 l 185 140 m 167 168 l 174 151 l 174 178 q 174 196 174 185 q 173 218 174 207 q 172 244 172 230 l 167 282 l 162 267 l 164 241 l 162 204 l 157 241 l 157 273 l 157 292 l 157 313 q 157 325 158 319 q 155 335 157 331 q 152 344 154 340 l 155 351 q 153 363 152 357 q 155 368 153 366 q 157 386 157 376 q 156 404 157 395 q 152 425 155 414 q 149 443 150 432 q 147 453 148 448 l 142 471 l 142 493 l 144 508 l 142 524 l 136 541 q 137 547 137 543 q 138 555 137 551 q 138 565 138 559 l 134 612 l 134 641 l 131 653 l 116 653 l 106 650 l 106 577 q 99 620 103 605 q 90 642 94 635 q 79 653 84 650 q 67 656 74 653 q 60 661 64 659 l 60 658 q 63 646 60 654 q 66 635 64 641 q 67 626 66 633 q 68 611 67 619 l 71 589 l 76 582 q 77 572 77 578 q 78 559 77 566 q 79 544 78 552 l 79 539 l 79 524 q 84 478 84 499 q 83 456 84 466 l 86 458 q 88 472 87 462 q 88 492 89 481 q 86 518 87 504 l 91 491 q 89 466 90 479 q 90 441 89 453 q 91 415 90 429 l 98 399 l 101 399 l 106 404 l 106 374 l 111 326 l 98 306 l 104 280 l 106 277 l 111 219 l 106 199 l 111 171 q 115 162 114 167 q 115 151 115 157 q 114 140 115 145 q 120 138 117 140 q 127 136 124 137 q 136 132 132 134 q 138 132 137 130 q 138 135 138 133 l 144 168 l 149 123 l 162 127 q 167 130 165 128 q 170 134 169 132 q 172 140 172 137 l 167 168 m 134 425 l 134 404 l 126 427 l 126 460 l 134 425 z "},"R":{"ha":817,"x_min":54,"x_max":762,"o":"m 158 27 q 117 3 136 11 q 101 -1 109 0 q 86 0 94 -2 q 74 7 79 1 q 66 24 69 13 l 58 87 l 58 119 q 55 128 56 121 q 54 147 54 134 q 58 183 54 160 q 60 199 59 192 q 62 211 62 205 q 61 218 62 217 l 58 218 l 58 256 l 66 286 q 66 327 66 307 q 64 361 65 344 q 61 390 63 378 q 58 414 60 401 q 57 441 57 426 q 58 474 56 456 l 63 544 q 64 570 64 557 q 66 591 65 581 q 66 608 66 602 q 65 657 66 633 q 62 699 64 677 q 58 734 61 720 q 92 757 75 753 q 106 758 98 759 q 120 751 113 757 q 134 734 127 745 q 144 705 140 723 l 139 675 l 139 622 l 147 563 l 147 500 q 142 469 144 487 q 142 432 141 454 q 150 382 143 410 l 150 310 l 133 196 l 147 170 q 145 151 146 161 q 145 131 144 142 q 147 105 145 119 l 158 27 m 147 58 l 142 105 q 138 134 138 126 q 137 140 137 138 l 139 170 l 127 196 l 127 205 l 104 146 l 113 186 l 120 199 l 120 242 l 113 264 l 109 275 l 104 339 l 113 290 l 120 267 l 127 290 q 129 319 130 301 q 127 354 128 337 q 122 395 125 374 l 127 404 q 131 394 129 400 q 134 383 132 389 q 139 371 137 377 l 142 319 l 142 317 l 142 380 q 135 428 137 406 q 135 466 134 450 q 139 500 136 484 l 139 563 l 139 576 l 131 565 l 122 522 l 125 492 l 115 417 l 120 489 l 117 533 q 123 545 122 538 q 123 557 124 551 q 120 570 123 564 q 126 579 124 573 q 130 593 129 586 q 133 611 132 602 l 131 618 l 131 675 l 137 703 l 115 703 l 104 727 l 91 738 l 91 653 l 87 578 l 87 651 l 80 727 l 66 732 l 75 648 l 72 627 l 75 608 l 75 592 l 69 533 l 80 489 l 72 417 l 75 487 l 69 517 l 66 474 l 66 417 l 69 374 l 75 366 l 80 272 l 75 258 l 72 275 l 66 256 l 66 224 q 70 215 70 220 q 71 204 71 210 q 69 191 70 197 q 63 160 64 172 q 62 141 62 148 q 63 130 62 134 l 77 191 l 77 218 l 87 216 l 85 191 l 66 126 l 72 87 l 66 108 l 66 89 l 75 22 l 93 16 l 104 24 l 104 41 l 91 89 l 96 130 l 96 92 l 109 41 l 117 30 l 131 37 l 133 58 l 122 78 l 133 92 l 139 87 l 133 83 l 133 76 l 142 54 l 147 58 m 548 395 l 532 371 l 481 380 l 336 366 q 329 368 332 367 q 314 369 323 370 l 273 363 q 248 363 261 365 q 222 359 237 362 q 193 347 208 355 l 155 410 l 174 420 q 265 423 221 420 q 344 429 303 425 q 416 439 385 433 l 465 433 q 488 422 476 427 q 512 415 499 418 q 537 412 525 412 l 548 395 m 450 410 l 473 399 l 519 401 l 530 404 q 506 409 518 406 q 484 415 496 412 q 461 425 471 419 l 416 431 q 401 428 408 429 q 391 426 396 427 q 384 425 386 425 l 366 420 l 338 420 l 297 417 l 260 415 l 239 415 l 178 415 l 193 388 l 236 390 l 196 380 l 187 371 l 196 358 q 218 366 206 363 q 243 370 229 368 q 273 371 257 372 l 295 374 l 314 382 l 357 390 l 419 393 l 340 382 l 336 374 l 481 388 l 526 382 l 515 390 l 467 393 l 450 410 m 653 119 q 683 87 666 103 q 717 57 697 73 q 762 24 737 40 q 741 4 755 11 q 710 -1 730 -1 q 659 16 690 0 l 609 76 l 553 132 l 467 205 l 432 242 l 400 272 q 359 309 377 292 q 343 323 351 316 q 329 335 335 330 q 317 344 322 340 q 311 347 313 347 l 314 353 l 340 345 l 357 345 q 367 349 362 347 q 376 354 371 351 q 384 358 380 356 q 403 360 395 359 q 417 360 410 361 q 425 355 423 359 l 439 336 q 457 319 447 330 q 479 296 466 311 q 508 261 492 282 l 566 210 q 590 190 576 202 q 617 161 602 179 q 653 119 633 144 m 744 30 l 685 73 l 648 111 l 642 113 l 583 183 l 591 178 l 555 210 l 559 199 l 550 212 l 521 226 l 494 226 l 473 248 l 450 275 l 475 258 l 484 245 l 497 235 l 503 235 l 478 283 l 459 304 l 465 301 l 437 330 l 421 347 q 416 342 419 344 q 410 338 413 340 q 402 336 406 336 l 389 336 l 402 323 q 419 301 412 311 q 430 282 426 290 q 437 264 435 273 q 417 293 426 281 q 402 311 408 304 q 389 325 395 319 l 371 334 l 366 325 l 355 325 l 346 328 q 362 316 350 326 q 387 295 374 307 q 419 267 401 282 q 432 255 425 262 q 444 241 438 248 q 456 224 450 233 l 478 205 l 489 201 l 481 218 l 497 199 l 500 189 q 505 183 501 187 q 514 175 509 179 q 526 164 519 170 l 534 164 l 553 153 l 537 161 l 526 161 l 559 135 l 609 87 l 625 67 q 646 43 637 52 q 659 29 654 34 q 667 22 664 24 l 669 27 l 653 62 l 585 130 l 663 60 l 683 27 l 703 24 l 685 54 l 718 24 l 730 27 l 736 32 l 744 30 m 553 180 l 561 170 l 545 180 l 553 180 m 555 767 l 545 745 q 527 741 537 745 q 505 731 518 738 q 475 712 492 724 l 427 699 q 365 699 401 701 q 288 694 334 698 q 180 683 241 691 l 158 694 l 185 770 q 210 762 196 764 q 237 759 221 759 q 271 764 252 759 l 317 762 q 323 761 320 760 q 333 767 329 761 l 486 772 l 537 788 l 555 767 m 473 718 q 498 734 486 728 q 518 745 509 741 q 537 751 528 749 l 526 756 l 478 751 l 459 738 l 473 759 l 521 767 l 532 781 l 486 767 l 336 759 l 340 753 l 425 751 l 362 745 l 314 745 l 292 756 l 273 756 q 242 752 257 752 q 216 753 227 752 q 191 759 202 755 l 185 745 l 193 732 l 241 729 l 193 724 l 180 692 l 244 699 l 266 705 l 303 705 l 307 705 l 346 707 l 375 712 l 391 707 l 414 707 l 427 705 l 473 718 l 473 718 m 589 651 q 591 612 590 630 q 593 579 593 596 q 591 554 593 563 l 583 494 q 586 465 585 479 q 588 439 587 452 q 589 417 589 427 l 589 371 l 564 388 l 559 406 l 543 412 l 510 465 l 515 528 l 532 635 l 534 710 q 550 737 540 726 q 571 752 558 747 q 602 751 584 758 l 589 688 l 589 651 m 585 576 l 585 584 l 583 578 l 580 646 l 580 651 l 583 694 l 591 738 l 589 734 l 583 734 l 574 732 l 572 699 l 564 724 l 555 715 l 561 686 l 553 613 l 555 680 l 545 710 l 543 710 q 541 692 541 704 q 540 669 541 680 q 539 640 539 655 l 521 524 l 519 479 l 532 474 l 537 498 l 539 505 l 543 494 l 539 463 l 550 441 l 559 484 l 553 538 l 566 481 l 564 425 l 567 421 q 572 417 570 417 q 578 416 573 417 q 583 415 581 415 q 583 430 583 418 q 581 456 582 443 q 578 492 579 473 l 585 576 z "},"S":{"ha":756,"x_min":54,"x_max":702,"o":"m 536 717 q 610 701 577 713 q 636 688 623 695 q 658 671 648 681 q 672 649 667 662 q 674 621 677 637 q 667 609 672 614 q 656 601 663 604 q 637 600 649 598 l 519 610 l 479 653 l 421 661 l 328 683 q 304 691 319 686 q 272 700 292 694 q 221 711 252 705 q 174 720 196 715 q 138 726 156 723 q 112 730 119 729 q 74 751 87 741 q 58 770 62 760 q 73 789 54 780 l 181 760 l 205 760 l 304 757 l 418 743 l 456 730 q 460 728 457 728 q 472 728 464 726 l 493 733 l 536 717 m 640 605 l 615 627 l 565 640 l 504 686 l 576 642 l 618 640 l 627 666 l 618 680 l 576 703 l 533 711 q 527 713 530 711 q 523 714 524 713 q 519 717 521 715 l 493 717 l 443 705 l 454 720 l 458 722 l 429 730 l 410 739 l 378 741 l 373 733 l 418 717 l 306 746 l 277 746 l 347 709 l 261 743 l 221 746 l 192 754 l 178 751 l 119 768 l 85 762 l 99 749 l 104 741 l 114 739 l 178 728 l 227 722 l 245 714 l 314 695 l 328 690 l 356 683 l 424 675 l 496 669 l 528 648 l 493 661 l 482 658 l 519 616 l 640 605 m 141 669 l 138 618 l 136 594 l 125 501 l 127 448 l 127 436 q 113 411 122 421 q 93 396 106 402 q 61 396 80 391 q 66 414 63 404 q 70 433 68 422 q 73 456 71 444 l 73 490 q 67 524 70 507 q 64 551 65 537 q 64 573 62 565 l 66 637 l 58 705 l 61 754 l 83 739 l 88 722 l 104 717 l 141 669 m 130 656 l 117 661 l 114 640 l 112 629 l 106 640 l 109 669 l 96 690 l 91 650 l 99 600 l 83 648 l 85 703 l 75 711 l 66 714 l 66 703 l 75 640 l 70 573 l 70 551 l 73 559 l 81 496 l 81 493 l 81 453 l 75 413 q 85 413 81 410 q 88 416 87 414 l 91 445 l 99 424 l 106 432 l 99 458 l 104 528 l 104 464 l 114 436 l 117 436 l 119 441 l 117 504 l 130 608 l 130 656 m 618 152 l 621 197 l 621 221 l 632 304 l 632 351 l 632 359 q 646 382 637 373 q 665 396 653 391 q 693 396 676 401 q 690 381 691 389 q 687 365 688 374 q 685 346 686 356 l 685 312 q 690 283 687 296 q 693 259 691 271 q 693 239 694 247 l 690 180 l 699 121 l 696 77 l 674 90 l 669 106 l 653 109 l 618 152 m 627 165 l 640 160 l 646 177 l 646 189 l 651 177 l 648 152 l 661 135 l 666 170 l 659 216 l 674 170 l 671 123 l 682 115 l 690 112 l 690 123 l 682 180 l 688 242 l 685 258 l 685 253 l 677 309 l 677 312 l 677 346 l 682 383 q 676 384 679 385 q 672 382 673 383 q 669 379 669 380 l 666 354 l 659 376 l 651 365 l 659 341 l 653 277 l 653 338 l 643 359 l 640 362 l 637 357 l 640 301 l 627 208 l 627 165 m 213 396 l 235 394 q 223 390 233 392 q 203 387 214 388 q 176 383 191 385 l 213 396 m 677 448 q 684 440 683 446 q 682 428 686 435 q 663 407 677 420 q 640 393 652 399 q 620 383 631 387 q 601 379 609 379 q 596 378 599 379 q 581 368 591 376 q 568 359 575 363 q 556 354 563 356 q 544 351 549 351 l 474 354 l 451 359 l 437 362 q 431 364 433 363 q 418 370 425 366 l 406 359 q 376 353 389 355 q 355 349 364 350 q 345 349 345 347 l 306 343 l 237 343 l 213 349 l 192 343 l 162 346 l 101 341 q 85 336 93 337 q 73 335 79 334 q 64 343 67 336 q 74 363 65 351 q 97 387 81 372 q 144 421 113 401 q 158 424 148 423 q 182 424 167 425 q 221 418 197 422 q 229 416 225 417 q 235 416 232 416 q 240 418 238 416 l 258 427 q 287 426 273 426 q 310 427 298 426 q 328 429 321 427 q 344 427 336 428 q 358 425 351 425 q 370 424 365 424 q 384 425 377 425 q 394 426 389 426 q 400 427 399 427 q 405 425 401 425 q 414 425 408 425 q 432 427 420 425 l 507 432 l 541 427 l 576 433 q 589 433 583 433 q 602 434 595 433 q 615 439 608 435 q 628 444 620 441 q 647 448 635 446 q 677 448 659 449 m 632 424 q 636 428 632 426 q 647 432 641 430 q 657 436 652 434 q 661 439 661 437 q 644 438 652 439 q 631 436 637 437 q 621 433 624 435 q 604 428 612 430 q 591 425 597 426 q 578 427 584 425 l 541 418 l 507 424 l 400 418 l 397 418 l 359 418 l 328 421 q 303 418 315 419 q 280 416 292 416 q 258 418 269 416 q 250 414 254 416 q 242 411 246 412 q 235 410 238 410 q 220 411 231 410 q 195 415 209 413 q 170 417 182 416 q 154 416 158 418 l 127 391 l 127 382 l 149 373 l 141 370 l 132 372 q 124 371 127 372 q 117 368 120 371 q 111 364 114 366 q 106 357 106 361 q 105 353 106 353 q 101 351 103 353 q 93 351 97 352 q 86 349 90 351 q 81 343 82 347 q 87 344 83 343 q 101 349 94 345 l 162 351 l 189 349 l 213 357 l 237 351 l 245 351 l 248 357 l 264 354 l 322 359 l 304 365 l 291 373 l 283 379 l 296 386 l 437 396 l 306 382 l 334 370 l 355 368 l 410 373 l 421 379 q 426 375 423 377 q 433 372 429 374 q 443 368 437 370 q 473 362 456 364 q 506 359 487 360 q 549 359 526 358 l 565 368 l 584 386 l 587 396 l 482 383 l 595 410 l 612 407 q 622 412 618 410 q 629 418 625 415 q 632 424 632 420 m 525 26 q 469 27 500 24 q 410 35 437 30 q 345 47 377 40 l 306 61 l 427 45 q 446 40 438 41 q 459 41 454 39 q 469 45 465 42 q 520 45 503 47 q 547 41 538 44 q 557 34 556 39 q 529 39 541 38 q 510 41 517 41 q 496 39 501 41 l 525 26 m 674 82 q 697 62 692 74 q 695 36 702 52 q 656 -1 688 20 l 612 10 q 568 9 591 9 q 523 10 549 9 q 472 16 498 12 l 347 28 l 296 45 l 264 42 l 213 56 q 145 67 176 58 q 118 77 132 71 q 93 90 105 82 q 72 108 81 98 q 58 132 63 119 q 58 154 55 144 q 69 169 60 162 q 99 176 78 176 l 235 162 l 277 121 l 339 112 l 448 87 l 482 96 l 544 77 l 581 82 l 674 82 m 653 47 q 659 61 656 55 q 664 71 661 66 q 669 77 667 75 l 581 75 l 541 69 l 581 61 l 536 58 l 509 66 l 496 79 l 474 82 l 437 69 l 342 96 l 427 77 l 440 82 q 377 96 408 89 q 324 106 351 101 q 280 112 297 111 l 296 96 l 264 112 l 235 143 l 200 152 l 176 160 l 94 168 l 91 155 l 221 127 l 81 143 l 81 130 l 94 115 l 83 109 q 111 90 93 99 q 149 75 125 83 q 208 64 172 68 l 162 90 l 286 53 l 296 53 l 336 42 l 355 37 l 472 21 q 542 18 511 19 q 567 17 555 17 q 590 16 580 16 q 606 17 600 16 q 612 18 612 17 l 656 7 l 653 18 l 663 31 l 635 42 l 576 47 l 621 56 l 653 47 z "},"T":{"ha":707,"x_min":54,"x_max":652,"o":"m 652 659 l 612 665 l 528 686 l 450 684 l 414 679 l 233 657 l 195 657 l 54 644 q 61 659 55 650 q 78 677 66 666 q 110 703 89 688 q 138 703 119 701 q 183 710 154 705 q 260 727 212 715 q 340 746 303 738 q 371 753 355 749 q 399 759 386 756 q 422 763 412 762 q 436 765 432 765 l 500 770 l 579 781 l 606 790 l 652 659 m 610 692 l 595 725 l 599 749 l 606 765 l 601 781 l 583 776 l 462 760 l 404 752 l 292 727 l 366 738 l 330 722 l 290 713 l 279 713 l 243 706 l 220 711 q 163 700 184 703 q 131 696 142 696 q 112 697 117 695 l 106 695 l 101 681 l 99 670 l 77 652 l 231 665 l 287 670 l 369 679 l 434 708 l 450 732 l 441 703 l 393 684 l 418 684 l 450 692 l 528 692 l 579 679 l 583 697 l 610 692 m 409 416 q 415 376 412 397 q 417 333 417 357 q 414 279 418 308 q 412 259 413 269 q 409 239 410 250 q 407 219 408 229 l 407 157 q 410 120 410 138 q 405 90 409 104 q 391 65 401 75 q 359 44 373 54 q 334 27 346 35 q 319 15 323 19 q 300 1 307 5 q 288 0 292 -2 q 285 17 283 3 q 288 31 285 23 q 293 45 290 37 q 302 62 296 53 q 307 73 304 66 q 312 86 309 78 q 317 106 315 94 l 324 190 q 326 192 326 191 q 324 201 328 195 q 321 220 322 209 q 320 245 319 230 q 322 279 320 260 q 324 290 323 283 q 325 305 325 296 q 322 328 324 315 q 319 375 319 348 q 320 431 318 398 q 328 506 321 463 q 327 530 328 517 q 323 558 326 542 q 317 595 321 575 l 308 617 q 304 624 306 619 q 302 636 303 628 q 302 657 301 644 l 315 657 q 332 656 322 656 q 355 652 341 655 q 360 650 356 651 q 370 648 363 648 q 387 649 376 648 q 405 646 397 648 q 416 642 412 644 q 420 636 421 639 l 414 593 q 411 557 413 574 q 408 529 410 543 q 404 509 406 515 l 409 416 m 409 319 q 409 349 410 332 q 407 384 408 363 q 401 430 406 404 l 398 506 l 407 590 l 414 633 l 407 639 l 398 633 l 393 623 l 391 598 l 387 625 l 391 639 q 376 640 383 638 q 363 642 370 640 q 351 647 356 644 l 319 649 l 308 639 l 308 631 l 322 598 l 333 544 l 335 614 l 346 565 l 349 504 l 335 446 l 335 394 l 346 419 q 346 411 346 418 q 346 395 346 404 q 345 379 345 387 q 344 372 345 372 q 338 368 340 368 q 335 366 336 367 q 334 361 334 365 q 333 352 334 357 q 332 342 333 347 q 328 336 330 338 q 330 311 330 323 q 331 292 331 302 q 328 276 330 281 q 326 245 326 260 q 327 221 326 233 q 330 203 328 209 q 333 198 332 201 q 330 186 336 193 q 326 134 328 157 q 325 115 326 124 q 322 97 323 105 q 320 83 321 89 q 319 76 319 77 q 313 64 316 71 q 307 51 311 59 q 298 33 303 43 q 304 29 302 30 q 309 30 307 28 q 311 39 311 31 l 322 60 l 328 52 l 340 60 l 358 132 l 355 87 l 358 68 q 361 66 359 66 q 366 68 363 65 q 371 70 368 68 q 376 71 374 71 q 382 71 378 72 q 393 75 388 70 q 399 92 397 80 q 401 127 402 103 l 398 170 l 396 206 l 380 243 l 385 285 l 393 314 l 385 377 l 387 414 l 396 355 l 409 319 l 409 319 z "},"U":{"ha":783,"x_min":54,"x_max":729,"o":"m 143 769 q 158 763 152 768 q 166 749 163 758 q 165 722 169 739 q 163 696 164 710 q 162 670 163 685 q 163 637 162 654 l 161 599 l 159 536 l 153 495 q 157 461 156 477 q 159 432 159 447 q 155 408 159 417 q 151 395 153 401 q 148 374 148 382 q 151 366 149 370 q 154 358 153 362 q 155 351 155 353 l 153 270 l 153 207 l 148 155 l 151 102 q 149 92 151 96 q 138 86 145 89 q 117 85 132 83 q 92 91 104 87 q 72 99 82 94 q 58 113 62 104 q 56 119 56 116 q 58 132 54 125 l 60 147 l 54 207 l 58 240 l 62 307 l 66 390 l 62 450 q 59 457 60 453 q 58 465 58 460 q 60 475 58 469 l 66 524 l 68 599 l 68 681 l 66 753 q 66 762 64 758 q 72 769 68 766 q 83 774 75 772 l 143 769 l 143 769 m 155 684 l 159 720 l 155 741 l 138 741 l 125 741 l 114 650 q 112 700 115 682 q 105 730 109 719 q 94 747 100 742 q 87 749 90 747 q 80 753 83 751 q 73 759 77 755 l 73 730 l 76 674 l 78 666 l 78 613 l 76 609 l 73 526 l 68 508 l 76 511 q 80 518 79 513 q 83 531 82 524 q 83 543 83 538 q 83 549 83 548 l 83 583 l 88 549 l 76 487 l 76 461 l 80 439 l 92 446 l 86 410 l 88 353 l 71 330 l 68 300 l 73 294 l 71 222 l 62 197 l 66 152 l 62 130 l 78 123 l 88 116 q 94 113 92 111 q 96 116 96 113 l 102 140 l 104 159 l 104 100 l 125 108 q 131 111 129 109 q 133 117 132 114 q 133 123 134 119 l 130 157 l 140 132 l 140 155 q 145 191 144 168 q 148 237 147 214 q 148 294 149 264 l 140 276 q 138 250 140 264 q 134 225 136 237 q 130 199 132 212 l 133 281 l 138 315 l 140 335 q 141 346 141 340 q 140 357 140 352 q 138 366 139 362 l 140 376 q 141 385 140 379 q 145 397 143 391 q 151 412 148 405 q 153 430 153 418 q 151 454 153 441 q 148 487 150 469 l 148 498 l 143 518 l 143 528 l 148 549 l 151 565 l 151 587 l 148 601 l 153 629 l 155 632 l 155 684 m 127 465 l 125 439 l 119 469 l 122 508 l 127 465 m 694 33 l 694 23 q 655 6 675 12 q 617 -1 637 1 q 579 7 597 -2 q 493 27 534 18 q 458 35 475 31 q 424 41 440 38 q 394 46 408 44 q 372 49 381 48 q 359 48 366 48 q 347 49 353 48 q 336 52 341 50 l 305 57 l 277 64 l 188 81 q 184 81 186 81 q 180 85 180 83 q 172 112 175 98 q 166 137 168 123 q 165 163 164 151 l 167 164 l 170 168 q 176 170 171 169 q 214 165 182 170 q 247 163 231 165 q 276 160 260 162 q 302 152 291 157 q 319 144 311 147 q 331 138 325 140 q 338 134 337 135 q 347 131 340 133 q 360 126 353 129 q 375 122 368 124 q 388 118 382 119 q 420 113 405 116 q 447 109 434 111 q 468 106 460 107 l 547 83 l 663 59 q 686 58 675 59 q 703 54 694 56 q 715 47 711 52 l 694 33 m 657 43 q 669 44 663 43 q 680 46 675 45 q 686 52 684 48 l 663 52 l 535 81 l 522 83 l 431 96 l 456 96 l 486 93 l 434 106 l 378 116 l 331 130 l 318 130 l 267 152 l 239 149 l 227 144 l 199 144 l 194 134 l 196 121 l 214 121 l 239 116 q 251 110 245 113 q 262 102 256 106 q 273 93 268 98 l 321 85 l 273 88 l 259 102 l 217 113 l 178 108 l 186 85 l 277 69 l 336 59 l 360 59 l 380 57 l 408 55 l 418 52 l 431 47 l 488 35 l 506 31 l 583 16 q 594 21 589 18 q 604 26 599 24 q 612 31 608 28 l 589 35 l 547 41 l 595 41 l 627 33 l 657 43 l 657 43 m 728 98 q 716 80 729 86 q 688 71 704 75 q 647 67 671 68 q 636 73 640 66 q 632 90 633 81 q 631 116 631 101 l 631 157 l 629 219 l 621 300 l 617 338 l 612 392 l 615 410 l 607 526 l 599 606 q 595 641 595 629 q 594 659 594 653 q 595 668 594 667 q 595 688 595 677 q 594 709 595 699 q 591 730 593 720 q 590 743 591 738 q 589 747 589 746 q 595 765 588 758 q 611 777 602 772 q 635 786 621 783 q 657 789 649 789 q 668 785 665 788 q 673 776 672 781 l 673 720 q 675 710 674 718 q 678 692 677 701 l 681 666 l 686 606 l 694 506 l 686 482 l 699 446 q 701 415 701 431 q 702 387 701 399 q 703 358 703 372 l 712 258 l 717 201 l 720 149 l 728 98 m 717 123 l 712 163 l 710 217 l 699 250 l 703 268 l 703 290 l 696 304 l 694 325 l 691 335 l 694 358 l 691 368 l 694 439 l 681 482 l 681 485 l 679 498 q 680 503 680 500 q 680 509 680 505 q 679 521 680 513 q 677 543 678 531 q 673 563 675 552 q 669 585 671 574 l 663 671 l 671 629 l 676 587 l 681 573 l 680 606 q 679 628 679 618 q 679 640 679 639 q 677 652 679 641 q 673 677 675 664 q 669 713 671 694 l 669 741 l 661 713 l 657 751 q 657 757 659 754 q 645 769 654 764 l 629 774 l 635 711 l 627 745 q 625 754 626 751 q 622 759 623 758 q 617 755 620 760 l 610 745 l 597 741 q 597 728 597 734 q 598 719 598 724 q 599 713 599 715 l 599 668 l 610 642 l 610 606 l 615 570 l 612 562 l 615 532 l 629 508 l 631 446 l 640 410 l 629 416 l 624 392 l 629 361 l 643 302 l 640 266 l 637 304 l 631 330 l 629 340 l 621 345 l 627 330 l 629 294 l 631 267 q 632 248 631 256 q 635 240 633 240 q 636 235 635 237 q 637 232 637 233 q 637 223 637 231 q 638 204 637 214 q 640 178 639 192 l 637 173 q 639 132 637 151 q 641 101 640 117 q 643 81 642 86 q 646 87 644 84 q 650 92 648 90 q 657 96 653 94 q 668 116 664 103 q 674 147 671 127 q 673 197 676 166 l 689 102 l 699 102 l 715 106 l 717 123 m 671 418 l 673 392 l 671 345 l 669 387 l 671 418 z "},"V":{"ha":777,"x_min":54,"x_max":725,"o":"m 116 671 l 173 536 l 203 492 l 233 415 l 199 473 l 189 462 l 215 327 l 195 387 l 181 497 l 116 671 m 685 755 q 706 747 697 751 q 719 738 713 743 q 722 723 725 732 l 707 682 l 677 632 l 674 621 l 649 553 l 649 548 q 644 533 649 547 q 631 503 638 519 q 614 460 624 484 l 566 352 l 544 307 l 539 274 l 509 219 l 486 184 q 467 140 476 163 q 450 95 458 121 q 435 41 441 69 q 427 20 432 28 q 416 6 423 12 q 398 -1 409 -1 l 352 -1 l 316 4 q 299 3 307 0 q 284 13 292 5 q 271 41 277 21 q 267 67 270 54 q 261 93 265 79 q 253 123 258 108 l 233 164 l 225 200 l 225 224 l 212 254 l 186 315 l 170 366 l 170 376 l 153 439 l 157 492 l 116 602 l 79 680 l 54 751 q 60 766 56 759 q 73 778 64 772 q 96 787 81 784 q 127 789 113 790 q 149 786 138 789 q 161 773 159 783 l 161 731 l 173 677 l 197 621 l 217 569 l 239 499 q 240 497 240 498 q 241 495 240 496 q 241 492 241 494 q 248 470 245 480 q 254 454 251 461 q 258 446 256 447 l 261 426 l 279 385 q 288 374 283 381 q 295 359 291 369 q 304 335 300 349 l 328 263 l 344 216 q 358 193 351 200 q 372 187 364 186 q 387 208 380 189 q 412 267 404 248 q 418 286 416 279 l 429 313 l 439 321 l 465 382 l 476 418 l 494 462 l 503 484 l 528 511 l 542 566 q 549 588 546 578 q 555 603 553 596 q 559 610 558 610 l 586 682 q 597 704 591 693 q 608 723 603 713 q 619 737 614 732 q 637 749 627 744 q 659 755 646 753 q 685 755 671 758 m 713 723 q 703 722 708 722 q 695 724 699 723 q 688 726 691 724 l 674 721 l 644 713 l 602 649 l 635 721 l 644 726 q 636 728 639 727 q 633 731 634 730 q 630 734 631 732 q 614 716 621 726 q 602 696 607 706 q 591 673 595 685 l 566 613 q 565 604 566 608 q 564 598 564 601 q 564 593 564 595 l 553 572 l 551 569 l 536 507 l 528 497 l 523 484 q 522 452 523 466 q 521 430 522 439 q 519 420 521 420 q 510 404 518 420 q 492 369 502 388 q 465 319 479 347 l 517 420 l 509 476 l 478 410 l 462 352 l 448 321 l 444 313 l 435 288 l 418 269 l 415 261 l 418 233 l 427 203 l 401 164 q 392 142 398 149 q 378 134 385 136 q 360 133 370 131 q 348 143 354 134 q 338 161 342 151 q 328 186 332 172 l 319 213 l 313 237 l 308 269 l 302 280 l 294 261 l 302 192 l 286 269 q 288 277 286 273 q 292 285 290 281 q 299 294 295 290 l 277 362 l 277 374 l 253 426 l 253 436 l 237 489 q 235 494 235 492 q 233 503 233 500 l 205 577 l 183 613 l 157 673 l 159 713 l 157 731 l 153 768 l 132 763 l 121 751 l 129 680 l 98 751 q 86 751 93 751 q 75 749 80 750 q 62 746 68 747 l 83 690 l 98 652 l 137 569 l 165 489 q 164 480 165 488 q 163 465 163 473 q 161 443 162 454 l 175 378 l 178 357 l 191 319 l 217 288 l 220 278 l 233 237 l 231 227 l 233 211 l 233 189 l 245 180 l 255 170 l 261 162 l 271 139 l 294 68 l 269 125 l 263 145 l 247 148 l 258 128 l 277 68 l 291 34 q 296 26 293 27 q 299 26 297 25 l 319 26 l 336 24 l 352 43 q 349 30 346 35 q 352 26 349 27 l 368 18 q 376 37 372 31 q 383 46 380 43 q 390 50 387 49 q 412 55 402 50 q 427 68 421 61 q 439 87 435 77 l 448 115 l 448 125 l 456 148 l 462 172 l 470 186 l 494 211 l 503 227 l 500 241 l 523 278 l 526 283 l 544 337 l 547 346 l 555 352 l 594 439 l 627 522 l 616 531 l 578 456 l 607 533 l 627 548 l 668 623 l 668 630 l 701 682 l 713 723 z "},"W":{"ha":1118,"x_min":54,"x_max":1063,"o":"m 321 73 l 321 32 q 308 9 317 16 q 284 1 300 2 q 243 16 269 1 l 181 256 l 184 279 l 181 330 l 176 336 l 170 353 l 152 424 l 125 477 l 93 592 l 87 601 l 75 646 l 79 677 l 64 716 l 54 745 q 56 747 55 745 q 60 760 58 751 q 62 764 60 762 q 73 775 64 770 l 93 779 q 98 782 95 780 q 104 789 102 785 l 117 767 l 119 781 q 121 785 119 783 q 134 787 123 788 l 152 787 q 163 782 159 785 q 171 774 168 779 q 172 764 174 770 q 174 751 172 759 q 179 733 176 745 q 187 705 182 722 q 191 692 189 698 q 192 682 192 686 q 191 675 193 677 q 190 655 189 667 q 193 632 191 646 q 201 601 195 618 l 214 533 l 229 471 l 250 453 l 267 382 l 273 353 l 285 288 l 292 262 l 302 152 l 321 73 m 275 69 q 296 73 289 72 q 307 73 304 73 q 312 73 311 73 l 294 152 l 282 258 l 275 286 l 273 306 l 269 317 l 255 353 l 246 379 l 243 392 l 229 421 l 226 463 l 220 468 l 205 526 l 199 574 l 187 625 q 182 655 182 644 q 182 671 181 666 q 184 680 182 678 l 172 725 l 163 764 l 143 758 l 141 739 l 128 739 l 117 730 l 128 657 l 104 730 l 96 749 q 78 745 84 745 q 70 745 73 744 q 66 749 67 747 l 64 743 l 70 720 l 84 680 l 84 648 l 96 604 l 99 595 l 104 580 l 113 571 l 132 512 l 143 509 l 146 524 l 132 601 l 161 497 l 205 376 l 161 483 l 149 483 l 176 415 l 178 395 l 176 382 l 172 376 l 184 336 q 189 322 188 333 q 191 298 191 311 q 191 264 191 283 l 196 250 l 199 258 l 211 271 l 209 302 l 220 271 l 201 248 l 205 223 l 201 214 l 250 32 q 251 38 250 35 q 255 45 253 41 q 260 52 258 48 l 267 64 l 231 218 l 275 69 m 433 273 l 429 238 l 406 185 l 433 273 m 769 220 q 769 175 771 191 q 765 151 768 159 q 757 137 762 140 l 745 97 l 710 115 l 686 146 l 677 174 l 653 229 l 624 286 l 610 302 l 574 365 l 556 395 q 543 409 549 408 q 533 406 538 410 q 524 392 528 402 l 488 291 l 439 196 l 411 115 l 409 91 q 362 78 378 73 q 340 95 347 82 q 332 135 332 110 l 347 174 l 347 203 l 368 288 l 391 315 l 414 368 l 435 412 l 459 438 l 477 471 l 473 490 l 512 549 q 531 566 521 564 q 549 566 541 569 q 568 554 559 564 l 613 500 l 639 450 l 688 385 l 710 347 l 727 302 l 769 220 m 764 205 l 764 218 l 721 296 l 703 345 l 683 376 l 683 368 l 695 345 l 712 294 l 686 345 l 674 361 l 672 382 l 639 415 l 639 427 l 621 447 l 591 466 l 595 492 l 598 471 l 613 463 l 618 471 l 606 495 l 559 551 l 553 512 l 551 549 q 549 555 551 553 q 546 554 548 556 q 541 545 545 553 l 538 556 q 534 557 536 558 q 529 554 532 557 q 522 545 526 552 l 482 486 l 486 468 l 465 436 l 456 424 l 468 433 l 482 450 l 468 415 l 456 409 l 441 398 l 433 359 l 423 347 l 418 336 l 414 321 l 411 345 l 397 309 l 382 288 l 382 271 l 380 248 l 365 218 l 376 271 l 373 277 l 355 203 l 355 174 l 341 135 q 358 135 351 137 q 371 129 365 134 q 380 111 377 123 l 385 130 l 371 159 l 380 189 l 380 155 l 394 130 l 389 111 l 400 97 l 404 115 l 433 199 l 444 220 l 453 238 l 486 309 l 486 300 l 500 350 l 500 370 l 512 385 l 512 400 l 518 421 l 532 438 q 539 447 535 444 q 548 448 543 449 q 562 438 554 448 l 565 427 l 576 409 l 591 398 l 595 379 l 591 361 l 586 359 l 604 330 l 610 355 l 613 317 l 635 309 q 645 309 641 309 q 652 307 648 308 q 657 302 656 305 l 669 300 l 677 286 l 707 199 l 703 262 l 715 214 l 710 165 l 672 286 l 648 302 l 629 294 l 650 282 l 659 267 l 701 149 l 653 271 l 635 282 l 686 176 l 695 152 l 712 120 l 718 117 l 740 120 l 751 146 l 749 191 l 733 223 l 757 191 l 764 205 m 1010 789 q 1038 789 1025 791 q 1056 781 1048 787 q 1061 764 1063 776 l 1034 680 l 1038 671 l 1004 539 l 987 507 l 987 471 l 958 395 l 958 368 l 945 321 q 944 315 944 319 q 943 307 943 311 l 943 296 l 913 194 l 892 144 l 878 83 l 825 32 q 805 45 813 36 q 792 66 798 52 q 786 102 786 80 l 810 123 l 789 140 l 808 194 l 852 258 l 866 400 l 882 497 l 887 519 l 916 568 l 930 646 q 932 651 930 646 q 936 662 934 656 q 941 674 938 668 q 945 684 943 680 l 945 701 l 940 754 q 956 770 947 763 q 973 782 963 777 q 996 787 983 787 l 1002 769 l 1010 789 m 1055 767 l 1043 764 l 1028 751 l 999 677 l 1013 745 l 999 728 l 987 749 q 974 746 981 746 q 962 747 967 746 q 949 749 955 747 q 954 711 953 725 q 954 690 955 697 q 951 677 954 681 l 951 660 l 940 631 l 937 642 l 928 583 l 922 566 l 913 551 l 920 512 l 911 474 l 911 421 l 871 267 l 899 421 l 901 466 l 899 486 l 887 456 l 878 398 l 866 347 l 857 256 l 813 189 l 800 149 q 809 144 805 149 q 817 134 814 140 q 825 120 821 127 l 846 137 l 887 232 l 854 135 l 825 94 l 833 64 l 854 91 l 871 87 l 884 146 l 892 170 l 905 199 l 913 227 l 934 300 l 937 345 l 951 398 l 979 477 l 979 509 l 993 568 l 1013 609 l 1032 669 l 1025 687 l 1055 767 z "},"X":{"ha":732,"x_min":54,"x_max":678,"o":"m 338 296 q 336 288 339 292 q 329 277 334 283 q 311 262 323 271 l 214 101 l 193 81 l 172 40 q 145 6 162 16 q 129 0 138 2 q 108 2 119 -1 q 83 14 97 5 q 54 40 70 23 q 83 96 69 70 q 109 139 96 117 q 132 170 122 160 l 180 218 l 193 247 l 227 288 q 251 313 239 300 q 270 337 260 323 q 286 363 280 350 q 296 361 290 363 q 306 353 300 359 q 318 334 311 347 l 323 316 l 334 306 l 338 296 l 338 296 m 306 267 q 316 276 311 272 q 323 283 320 279 q 328 291 327 288 q 320 295 324 291 q 312 307 317 298 q 301 332 307 315 l 250 259 l 296 337 l 290 342 q 286 349 286 347 q 273 329 281 340 q 256 308 267 319 q 232 283 246 296 l 211 259 l 214 234 l 188 218 l 188 216 q 170 197 179 207 q 154 179 163 189 q 137 162 144 170 q 118 138 130 155 q 96 101 106 120 q 70 53 83 79 q 75 56 73 54 q 85 58 82 58 l 121 89 l 103 45 l 119 16 l 132 16 l 142 12 q 151 19 146 15 q 158 27 154 22 q 164 40 161 33 l 168 60 l 178 83 l 178 127 l 248 222 l 188 130 l 191 104 l 203 109 l 206 113 q 214 122 210 116 l 222 134 l 229 155 l 244 178 l 252 201 l 262 214 l 273 222 l 296 254 l 301 257 l 306 267 l 306 267 m 581 159 q 596 142 589 151 q 608 127 602 135 q 614 114 613 119 l 596 106 l 593 89 q 576 84 586 86 q 554 82 567 83 q 521 83 541 81 l 508 101 l 492 127 l 467 183 l 444 201 l 413 242 l 377 298 l 360 321 l 293 417 l 248 486 l 217 519 l 208 537 l 162 603 l 152 616 l 113 663 q 110 679 110 671 q 114 690 110 685 q 129 696 117 696 l 144 714 q 170 722 157 721 q 193 717 181 722 q 217 696 205 712 l 237 673 l 239 667 l 271 616 l 286 595 l 293 585 l 305 566 q 314 552 310 559 q 318 545 318 546 q 320 540 318 544 q 325 531 322 536 l 332 519 l 357 486 l 375 463 l 391 439 q 402 423 397 431 q 408 414 408 415 l 411 404 l 436 371 l 446 357 l 486 293 l 581 159 l 581 159 m 581 116 q 585 123 583 121 q 591 127 588 125 q 599 127 595 128 l 576 158 l 555 185 l 477 291 l 475 298 l 462 318 l 441 353 q 423 375 430 366 q 411 390 416 384 q 403 401 406 397 l 403 404 l 391 422 q 379 429 385 422 q 370 444 374 435 q 360 466 365 453 l 347 483 l 338 478 l 347 460 l 416 345 l 336 463 l 334 472 q 332 478 332 475 q 332 483 332 481 q 331 487 332 484 q 330 492 330 489 l 328 498 q 322 507 326 502 q 315 519 319 513 l 306 534 l 306 552 l 288 583 l 277 591 l 227 673 l 211 693 l 206 701 l 174 706 l 180 691 l 248 595 l 188 677 l 162 698 l 152 688 l 144 667 l 178 621 l 139 661 q 133 664 136 663 q 128 664 130 664 q 123 663 125 663 l 159 619 l 217 540 l 222 522 l 229 513 l 254 498 l 193 583 l 242 527 l 308 422 l 313 432 l 301 450 l 362 357 l 316 412 l 291 432 l 350 345 l 382 306 l 406 267 l 423 242 l 428 234 l 446 224 l 465 206 l 470 190 l 472 188 l 492 140 l 511 106 l 521 94 l 521 99 l 532 101 l 532 111 l 496 183 l 542 114 l 552 106 l 570 119 l 581 116 l 581 116 m 677 783 q 675 774 678 779 q 669 764 673 770 q 655 750 665 758 l 586 663 q 571 637 580 650 q 552 611 564 626 q 527 580 541 596 q 513 563 520 572 q 500 546 507 555 q 490 527 494 536 q 484 507 488 517 q 472 489 479 498 q 452 471 465 479 l 426 448 q 422 444 425 445 q 415 445 419 444 q 406 452 411 447 q 395 465 400 458 q 386 480 390 473 q 377 498 381 488 l 413 545 l 436 578 l 460 601 l 465 608 q 484 630 475 619 q 499 648 492 640 q 511 661 507 656 l 532 688 l 568 736 q 582 760 572 749 q 607 778 591 769 q 652 791 623 787 l 657 781 l 677 783 l 677 783 m 660 765 q 655 764 658 765 q 649 761 652 762 q 642 757 646 759 q 636 754 640 755 q 627 750 633 752 q 614 745 621 747 l 596 724 l 568 701 l 593 724 l 604 742 l 576 736 l 537 683 l 532 675 q 528 669 532 674 q 519 658 524 664 q 506 642 513 650 l 496 626 l 481 610 q 470 599 475 604 q 465 595 465 594 q 457 590 463 595 q 452 585 454 587 l 426 552 l 382 498 l 391 481 l 413 496 l 431 522 l 431 537 l 460 560 l 436 534 l 434 524 l 428 507 l 418 491 l 408 483 l 413 473 l 423 468 l 439 483 l 450 486 l 465 496 l 480 534 l 488 537 q 496 553 491 545 q 506 568 500 561 q 519 583 512 575 l 532 595 l 555 629 l 542 616 l 527 606 l 581 667 l 645 752 l 660 765 z "},"Y":{"ha":779,"x_min":52,"x_max":725,"o":"m 470 98 l 467 64 l 467 49 l 459 1 l 437 5 l 423 15 l 408 5 q 389 3 397 1 q 375 12 382 5 q 366 39 368 20 l 366 69 l 366 79 l 372 190 l 361 277 l 363 309 q 364 330 363 320 q 364 342 364 340 q 364 348 364 342 q 363 361 364 353 q 358 378 361 369 q 347 396 354 387 l 315 424 l 288 474 q 282 482 288 475 q 269 497 276 489 q 251 519 261 507 l 217 549 l 184 597 l 182 604 l 123 686 l 118 694 l 58 766 q 56 783 52 777 q 72 789 59 788 q 115 781 84 790 l 141 766 l 161 739 l 186 705 l 217 666 l 233 653 l 243 635 l 298 597 q 317 573 309 583 q 330 556 324 564 q 338 549 336 549 q 343 539 338 548 q 355 518 349 530 q 374 488 363 505 l 420 439 l 437 412 l 456 389 l 470 360 l 470 306 l 459 239 l 459 193 l 470 141 l 470 98 m 463 138 l 456 166 l 447 195 l 447 226 l 452 209 l 452 241 l 454 259 l 452 332 l 452 349 l 449 368 l 437 389 l 437 401 q 434 406 437 403 q 432 408 433 407 l 416 435 l 372 484 l 366 484 l 359 504 l 343 517 l 328 547 l 341 530 l 330 547 l 292 591 l 238 630 l 228 651 q 221 654 224 652 q 214 659 218 656 q 208 666 211 662 l 197 679 l 184 689 l 182 697 l 177 705 l 156 736 l 135 762 l 118 774 l 104 769 l 120 749 l 96 774 l 87 774 l 79 777 l 63 774 q 70 764 66 769 q 79 753 75 758 q 89 741 83 747 l 96 739 l 107 717 l 127 697 l 141 694 l 177 679 l 200 653 l 174 676 l 149 689 l 127 694 l 130 689 l 192 602 l 192 597 l 212 570 l 220 570 l 217 581 l 205 600 l 194 604 l 165 651 l 197 612 l 212 604 l 224 578 l 228 563 l 231 552 l 248 540 l 240 558 l 240 566 l 238 576 l 260 537 l 261 530 l 264 519 l 261 519 l 292 479 l 318 429 l 343 406 l 341 416 l 330 436 l 321 486 l 336 439 l 347 427 l 341 455 l 307 526 l 359 460 l 361 421 l 372 404 l 388 386 l 395 362 l 395 332 l 385 322 l 369 323 l 366 277 l 372 239 l 372 247 l 380 193 l 380 209 l 388 164 l 404 267 l 390 146 l 377 118 l 374 82 q 373 61 373 71 q 375 44 374 52 q 377 27 376 35 l 382 37 l 400 37 l 408 64 l 408 185 l 420 60 l 420 44 l 456 33 l 459 49 l 463 75 l 463 98 l 463 138 m 240 612 l 275 600 l 295 585 l 318 534 l 290 585 l 275 597 l 240 607 l 228 615 l 224 625 l 240 612 m 416 287 l 416 226 l 413 241 l 416 287 m 719 751 q 725 732 724 742 q 724 712 725 722 q 719 691 722 701 q 688 662 706 682 q 652 620 669 642 q 609 566 631 595 l 568 517 l 547 499 l 498 447 l 467 396 l 444 447 l 406 484 l 432 499 l 486 525 l 527 558 l 547 584 l 631 668 q 660 691 644 677 q 688 718 675 705 q 719 751 704 734 m 714 702 q 713 707 713 705 q 711 712 712 710 q 709 717 710 715 l 711 733 l 647 671 l 642 668 l 568 593 l 545 552 l 547 532 l 537 552 l 553 578 l 532 552 l 487 519 l 454 504 l 459 494 l 444 484 q 454 479 450 481 q 465 474 462 474 q 467 468 466 474 q 469 455 468 463 l 472 436 l 470 413 l 493 452 l 547 509 l 560 519 l 598 566 l 621 593 l 595 566 l 606 589 l 624 612 l 629 615 l 644 635 l 659 643 q 677 665 668 654 q 694 683 685 673 q 711 697 704 692 l 714 702 z "},"Z":{"ha":697,"x_min":61,"x_max":651,"o":"m 518 781 q 553 791 542 791 q 568 787 564 791 q 571 773 573 783 q 561 754 568 764 q 547 734 554 743 q 528 712 538 723 q 502 695 517 701 q 471 688 486 690 q 436 687 454 686 l 391 682 l 367 678 l 338 675 l 319 668 l 304 673 l 286 678 l 256 682 l 227 668 l 177 652 l 94 644 q 66 663 71 652 q 64 684 61 674 q 81 707 68 695 l 108 709 l 100 718 l 110 739 l 161 747 l 198 747 l 231 753 l 302 753 l 310 750 l 325 760 l 344 764 l 375 771 l 444 768 l 465 779 l 503 784 l 518 781 l 518 781 m 481 766 l 516 768 l 518 773 l 503 777 l 469 771 l 444 760 l 420 764 l 401 758 l 389 766 l 373 766 l 359 760 l 332 755 l 312 745 l 289 745 l 267 739 l 242 737 l 214 745 l 201 739 l 161 739 l 117 734 l 114 732 l 117 722 l 141 704 l 127 702 l 106 690 l 151 682 l 196 696 l 153 673 l 108 682 l 100 665 l 102 652 q 130 652 117 651 q 154 655 144 654 q 177 660 166 657 l 196 663 l 227 673 l 259 688 l 269 687 l 312 694 l 354 709 l 310 684 l 330 682 l 336 682 l 370 687 l 395 687 l 434 694 q 470 694 456 692 q 494 699 484 696 q 511 707 505 703 l 511 715 l 499 722 l 378 722 l 503 729 q 513 736 512 731 q 513 743 514 739 l 511 760 l 481 766 m 589 758 q 618 724 611 747 q 623 700 622 713 q 619 669 623 687 q 605 630 615 652 q 578 581 595 608 l 532 533 l 516 499 l 465 448 l 420 406 l 412 398 l 373 315 l 302 264 l 281 237 l 259 184 l 238 158 l 220 139 l 198 103 l 175 68 l 122 20 q 96 24 107 19 q 78 39 86 28 q 72 72 71 50 l 85 126 l 217 294 l 245 311 l 273 367 l 304 410 l 340 448 l 378 499 q 397 511 389 504 q 411 529 404 518 q 422 557 418 540 l 442 586 l 448 600 l 463 610 l 524 675 q 538 685 529 676 q 557 709 545 692 q 589 758 570 726 m 573 586 q 592 616 585 604 q 603 638 600 629 q 608 654 607 648 l 608 682 l 551 620 l 597 687 l 603 722 l 589 726 l 587 712 l 566 682 l 578 712 l 568 712 q 549 687 557 695 q 535 675 541 678 q 524 670 528 671 l 503 647 l 495 633 l 461 591 l 448 572 l 430 557 q 417 524 425 536 q 401 505 409 512 q 380 494 391 498 l 344 444 q 331 430 336 437 q 322 420 326 425 q 317 414 318 415 q 313 408 317 412 q 307 399 310 404 q 296 387 302 394 l 298 382 q 316 396 309 389 q 329 406 323 401 q 336 412 334 410 q 340 415 337 412 q 346 422 342 418 l 354 433 l 365 451 l 401 486 l 434 517 l 412 482 l 373 444 l 344 398 l 310 374 l 286 353 l 267 325 l 254 313 l 251 308 l 222 292 l 177 231 l 201 250 l 225 281 l 212 247 l 198 235 l 193 229 l 172 215 l 156 197 l 130 170 l 92 124 l 87 111 q 92 100 91 106 q 94 87 94 93 q 92 72 94 79 l 100 62 l 114 62 l 175 134 l 114 47 l 122 44 l 124 31 l 170 70 l 191 105 l 204 131 l 217 146 q 224 152 220 149 q 230 158 227 155 q 235 165 233 161 l 242 181 l 251 213 l 269 237 l 296 281 l 325 288 l 367 321 l 384 358 l 389 368 l 393 376 l 404 398 l 412 412 l 452 446 l 461 461 l 505 520 l 520 528 l 526 537 l 573 586 l 573 586 m 473 530 l 518 581 l 511 559 l 473 530 m 175 174 l 225 229 l 208 203 l 175 174 m 618 121 q 642 104 635 114 q 650 86 648 95 q 648 64 651 75 q 635 51 644 54 q 615 45 625 47 q 589 47 603 44 l 520 41 q 488 32 509 35 q 448 28 467 29 q 399 26 425 26 l 351 20 q 283 13 309 15 q 243 12 257 12 q 220 15 226 12 l 172 5 q 161 2 164 1 q 156 7 157 3 q 156 17 155 10 l 179 54 l 206 81 q 218 91 209 87 q 237 96 227 94 q 261 100 248 99 l 395 97 l 439 113 l 476 119 l 484 119 l 532 115 l 542 115 q 575 121 561 120 q 600 123 590 123 q 618 121 611 123 m 625 54 q 631 56 631 54 q 629 61 630 58 q 627 68 627 65 l 611 64 l 532 94 l 611 72 l 631 78 q 623 92 626 85 q 621 102 621 97 q 627 111 621 107 q 607 115 619 114 q 582 115 597 117 q 545 107 566 113 q 530 106 539 106 q 510 106 522 106 q 478 111 497 107 l 455 107 l 428 92 l 404 92 l 399 90 l 315 92 l 296 81 l 273 76 l 225 81 l 225 70 l 220 64 l 242 60 l 261 56 l 242 51 l 212 56 l 208 54 l 187 51 l 166 22 l 170 15 l 201 17 l 217 20 l 245 20 l 296 22 l 304 28 l 351 31 l 365 47 l 409 54 l 455 54 l 370 44 l 367 34 l 386 36 l 414 36 l 420 34 q 447 35 432 34 q 476 38 460 37 q 513 44 493 40 l 518 47 l 534 49 l 528 51 l 499 54 l 534 60 q 547 59 539 60 q 561 57 553 58 q 581 54 570 56 l 618 54 l 625 54 z "},"a":{"ha":529,"x_min":54,"x_max":475,"o":"m 395 444 q 391 435 393 439 q 385 428 388 431 q 377 420 381 424 l 309 410 l 260 412 l 213 412 l 174 406 l 126 404 l 59 401 q 59 422 57 413 q 64 437 60 431 q 73 449 67 444 l 97 454 l 104 457 l 123 457 l 161 454 l 215 452 l 285 452 q 291 450 288 450 q 296 449 294 449 q 300 449 299 448 q 303 450 302 450 q 308 451 305 450 q 314 452 311 451 l 380 452 l 395 444 m 377 446 l 332 446 l 305 446 l 298 444 l 282 446 l 280 444 l 277 446 l 244 446 l 187 449 l 199 444 l 244 444 l 193 441 l 171 449 l 165 449 l 113 452 q 103 450 107 452 q 100 449 101 450 l 79 444 q 79 441 79 444 q 79 438 79 439 l 81 431 l 128 422 l 161 428 l 136 417 l 83 422 q 76 420 77 425 q 75 414 75 417 q 73 408 75 411 l 70 406 l 134 410 l 171 412 l 183 414 l 190 417 l 199 420 l 181 426 l 195 426 l 226 420 q 237 420 230 420 q 252 420 244 420 q 269 420 260 420 l 280 422 l 298 422 l 285 414 l 311 414 l 374 426 l 374 428 l 377 433 l 327 435 l 372 435 l 377 446 m 475 50 q 473 26 475 35 q 470 12 471 18 q 465 3 467 6 q 450 0 458 -2 q 437 7 443 3 q 425 22 431 13 q 406 42 414 33 q 391 58 397 51 l 377 71 l 377 106 l 380 124 l 382 164 l 385 214 q 385 221 385 215 q 386 234 385 227 q 388 250 387 241 l 385 279 l 385 306 l 388 333 q 387 348 388 340 q 386 363 387 356 q 385 380 385 372 l 395 428 q 410 445 404 441 q 421 447 416 448 q 430 438 427 445 l 430 391 l 430 383 l 430 349 l 430 325 l 427 291 l 422 253 l 427 223 l 422 168 l 420 151 l 420 131 l 418 113 q 422 94 418 100 q 427 90 425 91 l 454 71 l 475 50 m 467 39 l 473 47 l 452 67 l 425 87 q 417 93 419 90 q 414 98 415 96 q 413 104 412 101 l 413 118 l 408 113 l 397 104 l 408 121 l 406 138 l 413 151 l 413 157 l 418 173 l 420 211 q 419 224 420 213 q 415 248 418 235 l 408 282 l 406 338 l 413 279 l 418 260 l 422 295 q 423 311 423 302 q 424 328 423 320 q 425 345 424 336 l 425 351 l 425 370 l 427 393 l 427 438 q 423 436 426 437 q 418 435 420 435 q 411 433 414 434 l 411 370 l 406 426 l 401 426 l 391 380 l 391 377 l 393 370 l 391 351 l 391 338 l 391 313 l 391 279 l 391 250 l 391 232 l 397 189 l 391 142 l 382 124 l 382 106 l 382 73 l 427 25 l 434 17 l 441 14 l 452 17 l 444 31 l 397 73 l 420 60 l 441 42 l 452 31 l 457 28 l 459 33 l 459 36 l 465 36 l 467 39 m 359 241 q 370 229 366 236 q 375 212 374 222 q 372 186 377 201 l 359 198 l 309 208 l 264 214 l 242 214 l 218 227 l 121 237 q 117 246 117 241 q 121 255 117 250 q 140 266 126 260 l 176 263 l 203 258 l 232 258 l 257 250 l 282 245 l 336 245 l 359 241 l 359 241 m 367 198 l 361 211 l 361 214 l 329 218 l 311 220 l 298 223 l 311 223 l 341 220 l 343 220 l 357 220 l 357 237 q 347 239 351 237 q 339 241 342 240 q 336 243 336 242 l 285 241 l 260 243 l 253 243 l 237 250 l 223 253 l 203 253 l 176 258 l 142 260 l 140 260 l 140 258 l 168 243 l 136 253 l 128 250 l 123 243 l 220 230 l 218 237 l 193 245 l 223 237 l 240 227 l 255 223 l 280 227 l 244 220 l 244 216 l 264 216 l 309 214 l 361 201 l 367 198 m 117 266 l 100 243 l 94 203 l 90 171 l 83 113 l 83 99 l 81 92 l 83 42 l 88 12 q 85 2 87 5 q 77 0 82 -1 q 62 10 72 1 l 65 20 l 59 67 l 59 90 l 59 94 l 59 106 l 54 155 l 54 164 l 59 211 l 54 258 l 81 268 l 117 266 m 102 256 l 90 256 l 88 258 q 85 259 86 259 q 81 258 81 259 l 86 243 l 81 214 l 75 253 l 67 253 l 62 256 l 59 256 l 65 214 l 65 205 l 67 173 l 67 164 l 70 121 l 62 160 q 60 157 61 159 q 59 153 59 155 l 59 144 q 61 139 60 144 q 62 125 61 133 q 62 106 62 117 l 62 90 l 67 20 l 65 10 l 79 17 l 86 12 l 79 42 l 79 83 l 75 71 l 75 92 l 79 104 l 79 115 l 86 173 l 88 203 l 97 243 l 100 250 l 102 256 m 363 78 q 371 68 368 75 q 374 53 373 62 q 369 28 374 43 l 332 28 l 305 28 q 293 25 298 26 q 277 22 281 22 l 264 20 q 256 20 260 20 q 250 20 252 20 q 236 18 249 20 q 208 16 223 17 q 168 12 190 14 q 149 6 157 9 q 132 1 140 3 q 117 -1 123 -1 q 109 -2 113 -3 q 102 10 102 -1 l 111 39 l 136 45 l 183 50 l 232 60 q 250 62 242 60 q 264 64 258 63 q 271 67 270 65 q 275 70 273 68 q 280 72 277 71 q 287 73 283 73 l 346 76 l 363 78 l 363 78 m 361 33 l 353 39 l 343 50 l 319 47 l 282 47 l 329 52 l 357 58 l 357 71 l 361 73 l 287 67 l 281 66 q 277 65 279 65 q 274 65 275 65 q 264 60 274 60 q 255 58 260 59 q 245 56 250 58 q 232 54 239 55 l 213 50 l 220 47 l 269 52 l 220 42 l 193 45 l 187 45 l 140 42 l 115 33 l 113 31 l 117 17 l 126 25 l 181 31 l 131 20 l 113 3 q 123 4 116 3 q 140 8 130 5 q 168 17 151 11 l 199 20 l 240 31 l 264 33 l 287 28 l 305 31 l 332 33 l 361 33 z "},"b":{"ha":524,"x_min":54,"x_max":469,"o":"m 335 412 l 374 422 l 391 420 l 335 412 m 161 347 q 147 353 151 347 q 141 366 142 359 q 140 386 139 374 l 151 396 l 199 401 l 224 409 l 256 414 l 270 427 q 293 432 279 429 q 319 438 307 435 q 348 446 333 441 l 425 456 l 435 443 l 438 427 l 420 407 l 411 403 q 403 400 407 401 q 396 399 399 399 q 385 397 395 399 q 363 393 374 395 l 332 388 l 285 380 l 252 378 l 220 361 l 161 347 l 161 347 m 157 359 l 155 352 l 161 352 l 211 365 l 216 367 l 254 391 l 311 394 l 264 386 l 256 382 l 285 386 q 288 386 286 386 q 292 387 290 386 l 296 388 l 384 401 l 396 404 l 417 412 l 422 417 l 425 427 l 420 435 l 412 439 l 387 446 l 412 446 l 420 451 l 348 437 l 330 435 l 272 425 l 272 422 l 301 422 l 335 430 l 296 414 l 262 414 l 256 412 l 233 407 l 220 404 l 199 396 l 153 391 l 153 380 l 165 380 l 153 375 l 153 365 l 176 365 l 157 359 m 62 38 l 73 51 l 75 126 l 75 136 l 73 206 l 80 240 l 75 292 q 74 314 74 305 q 74 329 73 323 q 75 340 74 336 l 75 352 l 77 396 l 80 454 l 75 497 l 75 557 l 71 627 l 67 682 l 67 724 l 57 774 l 96 793 l 117 783 l 121 707 l 119 669 l 121 614 l 123 570 l 127 528 l 127 484 q 128 476 128 484 q 127 458 127 468 q 127 433 127 447 l 132 378 l 127 331 l 127 300 l 123 267 l 123 245 q 122 232 122 240 q 121 217 121 224 l 121 199 q 120 179 120 189 q 121 159 121 168 q 121 136 121 147 l 123 71 l 121 28 l 98 9 l 75 -1 l 54 -1 l 62 38 m 75 20 l 85 22 l 85 30 l 85 45 l 94 54 l 104 121 l 101 54 l 94 43 l 101 28 l 117 28 l 119 30 l 119 68 l 117 144 l 117 194 l 119 237 l 121 271 l 121 328 l 127 378 l 123 435 l 119 433 l 117 378 l 106 311 l 111 375 l 109 435 l 119 448 l 119 499 l 109 507 l 94 588 l 94 652 l 101 583 l 109 533 l 117 515 l 117 567 q 116 574 117 568 q 113 587 115 580 q 109 606 111 595 l 119 578 l 119 616 l 114 669 l 119 707 l 111 780 l 104 772 l 104 752 l 106 692 l 92 767 l 62 772 l 71 720 l 73 686 l 75 678 l 75 614 l 75 608 l 80 557 l 80 494 l 80 489 l 83 481 l 85 460 l 92 448 l 85 409 l 85 446 l 83 454 l 83 401 l 83 380 l 83 357 l 80 344 l 80 336 l 94 250 l 94 214 l 92 170 l 92 214 l 88 235 l 85 237 l 75 203 l 80 128 l 77 49 l 64 36 l 64 30 l 75 20 m 142 38 l 136 59 l 140 74 l 216 66 l 237 64 l 270 59 l 311 51 l 348 38 l 402 33 q 423 24 415 29 q 433 13 431 19 q 429 -1 436 6 l 410 -1 l 384 3 q 373 3 378 3 q 365 3 369 3 q 361 3 361 3 l 332 3 l 250 22 l 197 20 l 155 30 l 132 22 l 130 28 l 142 38 m 148 56 l 169 54 l 211 45 l 148 45 l 153 36 l 155 33 l 197 24 l 203 24 l 211 30 l 218 28 q 222 28 220 28 q 226 28 224 28 q 231 26 227 26 q 239 26 235 26 l 250 28 q 253 27 250 28 q 258 26 255 26 q 264 24 260 25 l 309 22 l 343 22 l 316 20 q 297 20 306 20 q 290 20 289 20 l 332 9 l 361 7 l 384 9 l 412 3 l 425 2 l 410 22 l 399 24 l 402 30 l 348 33 q 317 42 332 38 q 293 49 305 45 q 275 54 280 52 q 283 46 279 49 q 290 41 287 43 q 293 41 293 39 q 276 46 283 43 q 264 50 269 48 q 259 54 259 52 l 229 56 l 229 59 l 216 62 l 144 68 l 144 66 l 148 56 m 213 391 q 205 387 209 389 q 199 386 201 386 l 176 380 l 224 396 l 213 391 m 408 367 q 430 395 418 385 q 450 404 439 403 q 469 386 460 404 l 467 275 l 459 229 l 456 188 l 454 123 l 451 97 q 441 61 447 76 q 427 40 435 48 q 408 41 419 33 l 412 76 l 412 181 l 417 220 l 412 288 l 415 326 l 408 367 l 408 367 m 465 386 l 438 388 l 451 375 l 454 354 l 435 279 l 446 354 l 438 378 l 430 378 l 412 367 l 417 334 l 422 323 l 415 290 l 420 237 l 433 214 l 425 168 l 429 214 l 422 216 l 417 181 l 417 128 l 425 162 l 429 147 l 422 118 l 425 108 l 417 115 l 417 76 l 412 43 l 422 51 l 425 68 l 429 81 l 429 66 l 441 79 l 444 89 l 446 102 q 447 113 446 103 q 448 134 447 123 q 451 165 450 148 l 451 188 l 450 220 l 456 242 l 459 250 l 465 277 l 465 386 z "},"c":{"ha":476,"x_min":54,"x_max":422,"o":"m 111 15 l 72 5 l 60 62 l 56 84 l 60 121 l 60 153 l 60 182 l 60 225 l 56 284 l 54 347 l 54 369 l 62 381 l 92 379 l 96 353 l 94 277 l 100 235 l 100 225 l 100 155 l 100 101 l 104 41 l 111 15 m 96 37 l 100 39 l 96 86 l 96 113 l 92 121 l 94 145 l 94 123 l 94 176 l 92 195 l 92 239 l 94 245 l 90 275 l 92 353 l 92 357 l 84 363 l 79 359 l 84 344 l 79 319 l 77 349 l 72 359 l 56 367 l 62 292 l 62 262 l 66 284 l 66 300 l 72 284 l 72 262 l 64 250 l 66 237 l 66 225 l 74 223 l 79 216 l 82 205 l 74 170 l 77 205 l 74 220 l 66 218 l 70 163 l 64 159 l 62 84 l 64 62 l 74 17 l 82 24 l 74 64 l 82 145 l 79 66 l 92 24 l 96 24 l 96 37 m 414 458 l 382 389 l 345 391 l 260 381 l 176 385 l 111 379 l 94 387 l 111 410 l 114 414 l 117 414 l 123 414 q 130 416 126 414 l 134 418 l 174 426 l 203 436 l 253 446 l 278 446 l 315 448 l 351 458 l 414 458 m 365 433 l 369 446 l 374 448 l 395 446 l 406 454 l 351 454 l 335 448 l 330 444 l 317 444 l 315 444 l 296 442 q 282 441 288 441 q 275 441 276 441 l 271 441 l 248 441 l 237 438 l 203 433 l 176 420 l 134 410 l 123 408 l 117 408 l 117 406 l 134 401 l 171 401 l 119 399 l 111 394 l 111 385 l 176 389 l 203 389 l 221 394 l 235 391 l 248 391 l 265 391 l 273 389 l 347 396 l 365 394 l 377 401 l 337 410 l 322 408 l 337 416 l 357 418 l 387 416 l 392 436 l 379 444 l 369 441 l 365 433 m 226 426 l 241 426 l 257 433 l 280 426 l 308 426 l 280 420 l 257 428 l 251 424 l 243 424 l 237 418 l 245 414 l 271 410 l 283 404 l 251 408 l 241 414 l 233 418 l 186 416 l 226 426 m 422 -1 q 408 0 415 0 q 394 0 400 0 q 382 0 387 0 q 377 -1 378 -1 l 369 -1 l 367 -1 l 335 5 l 308 5 l 263 12 l 233 12 l 203 15 l 186 15 q 175 13 180 14 q 165 14 170 13 q 157 15 161 14 q 146 16 151 15 q 138 18 142 16 q 129 21 133 19 q 115 31 115 24 q 120 43 115 37 q 139 58 127 51 l 186 58 l 205 56 l 248 51 l 294 51 l 345 58 l 392 64 l 416 64 l 422 -1 m 406 5 l 406 6 q 406 7 406 7 q 404 9 405 8 q 402 12 404 10 q 396 15 399 14 q 389 19 393 17 l 399 26 l 406 35 l 406 44 l 399 49 l 392 44 l 389 41 l 387 37 l 379 37 l 382 47 q 391 50 387 48 q 398 53 395 52 q 402 54 401 54 l 402 58 l 389 58 l 361 56 l 298 47 l 294 47 l 294 44 l 315 41 l 335 41 l 304 39 l 288 44 l 285 47 l 241 44 l 223 47 l 235 49 l 186 56 l 141 56 l 143 44 l 151 39 q 164 37 158 38 q 173 37 170 37 q 178 37 177 37 l 194 39 l 184 35 l 149 35 l 134 39 l 129 35 l 139 21 l 146 21 l 151 19 l 178 17 l 203 19 l 210 19 l 223 21 l 223 29 l 233 19 l 260 19 l 271 24 l 310 21 l 280 21 l 265 17 l 308 9 l 335 9 l 340 9 l 347 12 l 359 26 l 355 12 l 347 7 l 365 5 l 369 5 l 406 5 z "},"d":{"ha":525,"x_min":54,"x_max":471,"o":"m 106 200 l 98 222 l 103 245 l 102 271 l 106 286 l 106 200 m 83 401 q 98 397 93 401 q 106 391 103 394 q 109 380 109 386 l 109 341 l 114 308 l 114 245 l 114 195 l 114 151 l 114 102 l 117 68 q 113 54 117 58 q 106 48 110 50 q 96 47 101 46 q 82 50 87 47 q 77 56 78 53 q 75 66 75 60 l 70 107 l 73 164 l 68 237 l 57 268 l 62 286 l 54 326 l 54 389 q 60 396 56 393 q 71 399 65 398 q 83 401 77 401 m 73 250 l 73 266 l 73 285 l 68 276 l 65 268 l 73 250 m 106 341 l 106 380 l 103 385 l 94 389 l 85 382 l 91 349 l 91 313 l 80 380 q 65 379 71 376 q 59 382 62 380 l 59 326 l 65 286 l 68 290 l 68 344 l 73 294 l 80 286 l 80 262 l 83 245 l 80 172 l 77 234 l 73 237 l 73 206 l 75 164 l 75 156 l 80 146 l 75 136 l 75 104 l 80 66 l 80 60 l 88 62 l 91 96 l 96 151 l 94 94 l 96 62 l 106 60 l 111 62 l 109 102 l 109 153 l 109 164 l 109 241 l 109 279 l 109 304 l 106 341 m 135 422 l 153 422 l 191 412 l 135 422 m 385 389 q 384 369 386 377 q 378 355 382 361 q 364 349 373 349 l 304 364 l 273 380 l 239 382 l 193 393 q 162 397 176 395 q 140 399 151 398 q 127 401 129 401 q 112 404 120 401 q 103 408 107 406 l 85 429 l 88 445 l 102 458 l 177 445 q 206 439 192 441 q 232 434 218 436 q 255 429 245 431 l 270 416 l 302 408 l 325 404 l 374 396 l 385 389 l 385 389 m 348 370 l 374 367 l 373 378 l 361 382 l 373 385 l 374 393 l 328 398 l 304 406 l 292 408 l 269 414 l 262 416 l 229 416 l 193 433 l 226 422 l 252 422 l 252 425 l 195 437 l 177 442 l 103 452 l 111 448 l 137 445 l 114 442 l 103 437 l 98 429 l 103 419 l 106 414 l 127 406 l 140 404 l 229 390 q 233 389 231 389 q 236 389 235 389 q 239 389 238 389 l 269 385 l 262 389 l 216 396 l 270 393 l 313 370 l 315 367 l 364 355 l 373 357 l 366 362 l 348 370 m 471 3 l 448 3 l 427 14 l 401 31 l 399 73 l 404 138 l 404 197 q 403 217 403 208 q 402 234 402 225 q 401 248 402 242 l 399 268 l 399 300 l 396 331 l 393 378 l 396 435 l 396 487 l 399 529 l 399 570 l 401 614 l 404 669 l 401 706 q 401 719 401 707 q 404 745 402 731 l 406 783 l 429 792 l 466 776 l 458 722 l 455 679 l 455 627 l 450 557 l 450 498 l 445 456 l 448 396 l 448 352 l 450 344 q 451 332 451 340 q 451 317 451 326 q 450 294 451 307 l 445 241 l 452 208 l 450 141 l 448 127 l 450 52 l 463 41 l 471 3 m 461 31 l 458 39 l 448 52 l 443 130 l 448 206 l 440 241 l 435 234 l 432 216 l 432 174 l 432 214 l 429 252 l 445 338 l 443 346 l 443 359 l 443 382 l 443 404 l 440 452 l 437 445 l 437 408 l 432 448 l 440 460 l 440 485 l 445 490 l 445 494 l 445 555 l 450 609 l 448 614 l 450 679 l 452 687 l 452 722 l 461 774 l 435 766 l 419 693 l 422 753 l 419 774 l 411 779 l 406 709 l 409 669 l 406 616 q 405 598 406 606 q 404 585 404 591 q 404 578 404 580 l 414 607 l 409 568 l 409 519 l 414 534 l 425 583 l 432 651 l 429 589 l 414 508 l 406 500 l 406 448 l 414 435 l 411 375 l 417 313 l 406 380 l 406 435 l 401 435 l 396 378 l 401 331 l 404 274 l 406 239 l 406 195 l 406 149 l 404 73 l 406 33 l 406 31 l 425 28 l 432 47 l 425 56 l 419 125 l 429 56 l 440 49 l 437 33 l 437 23 l 450 23 l 461 31 m 396 28 l 391 26 l 370 31 l 328 23 l 276 26 l 193 7 q 178 6 185 7 q 168 5 173 5 q 161 5 163 5 l 140 7 l 111 3 l 96 0 q 90 16 87 9 q 100 27 92 22 q 121 37 108 33 l 174 41 l 214 52 l 252 62 l 288 66 l 307 68 l 383 75 l 385 62 l 380 41 l 396 28 m 380 71 q 345 68 360 69 q 320 65 331 66 q 309 62 309 64 l 296 62 l 296 60 l 265 56 q 258 52 264 54 q 246 47 253 50 q 229 41 239 44 q 234 43 231 41 q 241 49 237 45 q 250 56 245 52 q 231 53 243 56 q 207 46 219 50 q 177 37 193 42 l 121 31 l 125 28 l 111 23 l 96 5 l 109 7 l 140 14 l 161 10 l 191 10 l 234 21 l 182 26 l 216 23 l 260 26 q 267 27 264 26 q 273 31 273 28 q 278 30 274 31 q 286 30 282 30 q 294 29 290 29 q 299 28 298 28 q 308 31 302 28 l 315 33 l 322 28 l 328 26 l 370 37 l 378 49 l 315 49 l 354 56 l 378 60 l 380 71 m 302 398 l 348 385 l 337 387 q 330 388 333 387 q 325 389 326 389 l 302 398 z "},"e":{"ha":524,"x_min":54,"x_max":469,"o":"m 85 290 l 96 261 l 98 305 l 102 245 l 109 205 l 111 111 l 106 132 l 104 202 l 94 247 l 85 290 m 138 19 q 117 17 125 14 q 106 27 110 21 q 102 45 102 35 l 104 75 l 102 90 l 94 124 l 94 137 l 91 176 l 85 202 l 80 242 l 75 281 l 70 329 l 54 384 q 84 393 74 393 q 100 389 94 393 q 106 374 106 383 l 115 334 l 117 315 l 130 250 l 132 180 l 132 129 l 132 79 l 138 19 m 132 22 l 127 79 q 129 107 129 91 q 128 138 128 123 q 127 172 127 155 q 127 192 127 179 q 126 216 127 205 q 125 245 125 230 l 119 237 l 122 205 l 117 242 l 117 250 l 117 294 l 102 376 l 94 382 l 83 382 l 87 368 l 98 350 l 98 329 l 78 371 l 70 379 l 62 382 l 75 329 l 78 287 l 85 242 l 94 180 l 96 163 q 97 146 96 154 q 98 132 98 138 q 98 124 98 125 q 101 113 100 121 q 104 96 102 105 q 106 75 105 86 q 107 55 106 62 q 108 43 107 47 q 109 37 109 39 l 117 32 l 119 40 l 117 66 l 125 29 l 132 22 m 403 64 q 428 57 417 61 q 443 48 437 54 q 446 35 449 42 q 438 26 441 31 q 431 19 435 23 q 425 14 428 16 l 382 19 q 317 14 346 16 q 293 12 305 12 q 271 11 281 11 q 254 10 261 10 q 245 11 248 10 l 193 3 l 143 3 q 144 22 142 13 q 150 38 145 29 q 164 56 155 47 l 183 64 l 231 58 l 261 66 l 290 66 l 312 60 l 342 64 q 364 62 353 63 q 384 62 374 62 q 403 64 394 62 m 441 45 q 430 50 437 48 q 418 54 424 52 q 403 58 410 56 q 378 57 389 57 q 359 57 366 56 q 342 58 349 57 l 309 56 l 290 60 l 283 60 l 275 56 l 261 56 l 288 53 l 314 51 l 338 51 l 296 47 l 261 51 l 248 56 l 237 56 l 231 53 q 215 55 223 54 q 200 56 207 55 q 184 58 192 57 l 178 56 l 175 47 l 175 40 l 193 37 l 245 29 l 267 35 l 253 27 l 183 32 l 151 27 l 156 16 l 172 24 l 164 11 l 156 8 l 193 8 l 214 11 q 220 12 218 12 q 226 14 223 13 q 233 14 229 14 q 239 16 235 15 q 245 16 242 16 l 253 16 l 285 16 l 330 19 l 349 24 l 353 22 l 382 24 l 425 19 l 422 29 q 405 33 412 31 q 393 37 398 35 q 382 40 387 39 l 406 40 l 425 35 l 433 37 l 441 45 m 422 444 q 428 433 427 438 q 431 425 430 429 q 430 418 431 421 l 414 405 l 364 405 l 312 412 l 261 412 l 248 405 l 231 397 l 164 397 l 122 395 q 119 420 117 410 q 125 438 121 431 q 138 452 130 446 l 154 452 l 184 452 l 253 457 l 301 457 l 358 449 l 382 452 l 422 444 l 422 444 m 414 431 l 395 434 q 377 428 385 430 q 369 427 373 427 l 314 427 l 374 429 l 390 439 l 403 439 l 414 441 l 382 447 l 358 444 l 298 452 l 269 452 l 264 449 l 248 452 l 220 449 l 184 447 l 156 449 l 140 449 l 148 436 l 216 434 l 178 429 l 151 429 l 135 427 l 130 418 l 130 412 l 127 399 l 164 403 l 222 403 l 196 410 l 227 410 l 251 418 l 264 427 l 280 439 l 296 444 l 317 441 l 301 441 l 264 416 l 314 416 l 364 410 l 411 410 l 411 420 l 414 431 m 469 298 l 469 266 l 450 258 q 431 256 437 252 q 425 264 426 259 q 427 281 423 271 l 430 300 l 433 318 l 430 342 l 425 363 l 425 379 q 425 395 422 389 q 431 406 427 401 q 441 412 435 410 l 458 390 l 463 358 l 469 313 l 469 298 m 467 313 l 461 334 l 458 350 l 458 358 l 456 387 l 454 387 l 446 387 l 446 371 l 441 390 l 433 392 l 427 390 l 427 384 l 430 366 l 430 360 l 446 352 l 433 352 l 435 342 l 437 318 l 433 298 l 430 277 l 430 269 l 433 269 l 446 266 q 448 279 447 269 q 448 300 448 289 q 448 329 448 313 l 454 271 l 461 271 l 467 269 l 467 313 m 395 307 q 406 304 403 310 q 409 286 410 300 q 398 242 408 272 l 372 242 l 340 245 l 312 253 q 305 252 311 253 q 292 250 299 251 q 275 247 285 248 l 240 247 l 209 245 l 184 239 l 148 237 q 142 251 142 243 q 145 264 141 257 q 162 277 149 271 l 180 274 l 203 281 q 206 283 203 282 q 227 281 209 283 l 256 290 l 328 290 l 364 307 l 395 307 l 395 307 m 395 245 l 390 255 l 390 269 l 342 269 l 325 269 l 353 271 l 377 274 l 382 281 l 380 292 l 364 298 l 388 294 l 395 305 l 366 302 l 328 287 q 297 285 311 286 q 273 284 285 284 q 256 285 261 283 l 231 279 l 275 269 l 298 269 l 269 266 l 235 271 l 220 274 l 209 279 l 207 279 l 180 271 l 162 271 l 159 271 l 154 258 l 156 253 l 193 255 l 156 245 l 151 242 l 184 245 l 207 250 l 224 250 l 233 253 l 253 253 l 275 253 l 312 255 l 342 250 l 395 245 z "}}}
